<svg width="256" height="256" viewBox="0 0 256 256" fill="none" xmlns="http://www.w3.org/2000/svg">
<path d="M0 3.6008C0 2.34313 0 1.7143 0.244757 1.23394C0.460052 0.8114 0.803587 0.467864 1.22613 0.25257C1.70649 0.0078125 2.33532 0.0078125 3.59298 0.0078125H252.407C253.665 0.0078125 254.294 0.0078125 254.774 0.25257C255.196 0.467864 255.54 0.8114 255.755 1.23394C256 1.7143 256 2.34313 256 3.6008V252.415C256 253.672 256 254.301 255.755 254.782C255.54 255.204 255.196 255.548 254.774 255.763C254.294 256.008 253.665 256.008 252.407 256.008H3.59299C2.33532 256.008 1.70649 256.008 1.22613 255.763C0.803587 255.548 0.460052 255.204 0.244757 254.782C0 254.301 0 253.672 0 252.415V3.6008Z" fill="#272525"/>
<path d="M59.285 48.0625C58.7889 48.0625 58.3867 48.4647 58.3867 48.9607V159.445C58.3867 159.941 58.7889 160.343 59.285 160.343H80.0749C80.5709 160.343 80.9731 159.941 80.9731 159.445V82.389H84.6335L117.649 159.797C117.79 160.128 118.116 160.343 118.475 160.343H137.809C138.169 160.343 138.494 160.128 138.635 159.797L171.651 82.389H175.311V159.445C175.311 159.941 175.714 160.343 176.21 160.343H197C197.496 160.343 197.898 159.941 197.898 159.445V48.9607C197.898 48.4647 197.496 48.0625 197 48.0625H164.29C163.931 48.0625 163.605 48.2773 163.464 48.6084L129.972 127.14H126.312L92.8202 48.6084C92.679 48.2773 92.3539 48.0625 91.994 48.0625H59.285Z" fill="#EEECE8"/>
<path d="M58.3867 194.926C58.3867 194.43 58.7889 194.027 59.285 194.027H196.999C197.496 194.027 197.898 194.43 197.898 194.926V215.585C197.898 216.081 197.496 216.484 196.999 216.484H59.285C58.7889 216.484 58.3867 216.081 58.3867 215.585V194.926Z" fill="#F2A900"/>
</svg>
