<?xml version="1.0" standalone="no"?>
<!DOCTYPE svg PUBLIC "-//W3C//DTD SVG 20010904//EN"
 "http://www.w3.org/TR/2001/REC-SVG-20010904/DTD/svg10.dtd">
<svg version="1.0" xmlns="http://www.w3.org/2000/svg"
 width="1001.000000pt" height="1001.000000pt" viewBox="0 0 1001.000000 1001.000000"
 preserveAspectRatio="xMidYMid meet">
<metadata>
Created by potrace 1.14, written by Peter Selinger 2001-2017
</metadata>
<g transform="translate(0.000000,1001.000000) scale(0.100000,-0.100000)"
fill="#000000" stroke="none">
<path d="M1137 9994 c-1 -1 -24 -4 -52 -8 -269 -33 -525 -162 -725 -365 -186
-188 -294 -399 -341 -661 -18 -101 -18 -240 -16 -3995 2 -2140 6 -3906 11
-3925 69 -307 164 -488 356 -680 171 -171 401 -296 615 -336 11 -2 43 -8 70
-13 32 -7 1443 -10 3937 -11 3874 0 3887 0 3985 20 135 29 128 27 191 50 446
165 745 540 817 1025 7 42 6 7681 0 7750 -7 78 -17 149 -20 155 -2 4 -7 20 -9
37 -23 127 -137 369 -228 480 -41 50 -192 198 -233 229 -153 112 -342 196
-524 231 -79 15 -412 16 -3959 18 -2130 0 -3874 0 -3875 -1z"/>
</g>
</svg>
