<svg xmlns="http://www.w3.org/2000/svg" width="172.649" height="33.558" viewBox="0 0 172.649 33.558">
  <g id="bisq-markets" transform="translate(-158 -373.5)">
    <g id="bisq_logo_green" transform="translate(158 376.985)">
      <g id="bisq_mark" transform="translate(0 0)">
        <path id="Combined_Shape" data-name="Combined Shape" d="M8.251,22.938A11.845,11.845,0,0,1,0,11.722,11.38,11.38,0,0,1,3.118,3.8,11.625,11.625,0,0,1,10.946,0c4.083,0,5.907,3.373,4.469,5.255-1.607,2.092-3.475,1.922-4.865,1.025,0,0-1.912-1.281-2.476-1.708-.869-.64-1.825-.64-2.172.385C5.294,6.792,4.991,7.945,4.513,9.78A12.5,12.5,0,0,0,4.166,12.6a5.734,5.734,0,0,0,2.215,4.483,23.065,23.065,0,0,0,3.084,2.305,5.649,5.649,0,0,0,2.954.9h.087a5.649,5.649,0,0,0,2.954-.9,37.207,37.207,0,0,0,4.083-2.69c1.611-1.5,3.849.178,2.286,2.187a12.238,12.238,0,0,1-9.679,4.684A12.38,12.38,0,0,1,8.251,22.938Zm3.874-4.88a.512.512,0,0,1-.334-.111c-.251-.221-.71-.664-1.128-1.034a.368.368,0,0,1-.057-.44.472.472,0,0,1,.432-.224,22.129,22.129,0,0,1,2.213,0,.446.446,0,0,1,.381.251.362.362,0,0,1-.089.413c-.417.369-.876.812-1.085,1.034a.511.511,0,0,1-.322.111Zm2.482-4.744a1.463,1.463,0,0,1,1.473-1.377c.332,0,1.368.12,1.553.561.369.8-.888,1.883-1.443,2.084a1.728,1.728,0,0,1-.575.11C14.852,14.691,14.525,14,14.607,13.314ZM8.031,14.581c-.555-.2-1.812-1.282-1.443-2.084.148-.441,1.221-.561,1.554-.561a1.463,1.463,0,0,1,1.473,1.377C9.7,14,9.37,14.691,8.606,14.691A1.728,1.728,0,0,1,8.031,14.581Zm10.457-3.794C16.284,9.8,14.689,9.1,16,7.458a16.235,16.235,0,0,1,2.164-2.219c.851-.7,1.378-1.137,2.108.328A30.626,30.626,0,0,1,21.959,9.43a1.372,1.372,0,0,1-1.431,1.894A5.117,5.117,0,0,1,18.488,10.787Z" transform="translate(0 0)" fill="#25b135"/>
      </g>
      <g id="Group" transform="translate(27.192 0.604)">
        <path id="Fill_1" data-name="Fill 1" d="M14.5,20.545H10.918V14.184a5.512,5.512,0,0,1-1.692.958,5.913,5.913,0,0,1-1.975.354,7.037,7.037,0,0,1-5.1-2.158A7.954,7.954,0,0,1,0,7.748a7.954,7.954,0,0,1,2.153-5.59A7.037,7.037,0,0,1,7.251,0c.128,0,.26,0,.4.012.1.005.507.048.524.049a7.027,7.027,0,0,1,4.171,2.1A7.939,7.939,0,0,1,14.5,7.572c0,.013,0,12.439,0,12.968v.006ZM7.146,3.486h0c-2.682.027-3.638,2.219-3.638,4.261,0,2.061.969,4.262,3.688,4.262,2.156,0,3.781-1.832,3.781-4.262,0-.081,0-.165-.006-.249v0a4.727,4.727,0,0,0-.754-2.431A3.448,3.448,0,0,0,8.073,3.592v0c-.062-.015-.128-.03-.2-.043l-.011,0-.024,0-.034-.005-.026,0a4.62,4.62,0,0,0-.636-.05Z" transform="translate(33.235 4.834)" fill="#25b135"/>
        <path id="Fill_4" data-name="Fill 4" d="M6.629,6.112,5.159,5.789c-.964-.206-1.442-.627-1.42-1.252.023-.662.766-1.15,1.726-1.135A1.817,1.817,0,0,1,7.376,4.459l2.842-1.873A5.337,5.337,0,0,0,5.585,0a6.052,6.052,0,0,0-3.6,1.1A4.308,4.308,0,0,0,.156,4.48C.076,6.743,1.579,8.46,4.279,9.19c.41.111.951.252,1.495.358,1.271.246,1.432.7,1.416,1.161-.028.8-.766,1.3-1.879,1.281a3.207,3.207,0,0,1-2.931-1.768L0,12.326a5.623,5.623,0,0,0,5.19,3.067c2.986.048,5.49-2.027,5.582-4.626.083-2.348-1.386-4-4.143-4.655" transform="translate(21.452 4.937)" fill="#25b135"/>
        <path id="Fill_6" data-name="Fill 6" d="M0,14.778H3.695V0H0Z" transform="translate(16.218 5.245)" fill="#25b135"/>
        <path id="Fill_8" data-name="Fill 8" d="M7.252,20.545h0c-.128,0-.26,0-.4-.012-.1-.005-.207-.014-.311-.023H6.529L6.451,20.5l-.127-.011v-.008a7.025,7.025,0,0,1-4.171-2.1A7.936,7.936,0,0,1,0,12.983a.036.036,0,0,0,0-.008.033.033,0,0,1,0-.011V0H3.585V6.362A5.512,5.512,0,0,1,5.276,5.4,5.913,5.913,0,0,1,7.251,5.05a7.037,7.037,0,0,1,5.1,2.158A7.952,7.952,0,0,1,14.5,12.8a7.952,7.952,0,0,1-2.153,5.59A7.037,7.037,0,0,1,7.252,20.545Zm-.823-3.6h0c.059.015.123.029.2.043l.012,0,.023,0L6.694,17l.026,0a4.527,4.527,0,0,0,.636.05c2.683-.027,3.638-2.219,3.638-4.261,0-2.061-.969-4.262-3.688-4.262-2.156,0-3.781,1.832-3.781,4.262a5.138,5.138,0,0,0,.111,1.051h-.01a4.351,4.351,0,0,0,.9,1.95,3.42,3.42,0,0,0,1.905,1.156v0Z" transform="translate(0 0)" fill="#25b135"/>
      </g>
    </g>
    <path id="Path_3" data-name="Path 3" d="M.924,0H1.98V-6.4H2L4.631,0h.7L7.964-6.4h.022V0H9.042V-7.788H7.469l-2.453,5.9H4.972L2.5-7.788H.924Zm11.8,0h1.232l.77-1.925h3.707L19.217,0h1.232L17.116-7.788h-.957ZM15.1-2.849l1.474-3.575H16.6l1.452,3.575ZM24.211,0h1.056V-3.432h1.177L28.424,0h1.32L27.533-3.553A2.088,2.088,0,0,0,29.447-5.61c0-.979-.506-2.178-2.5-2.178H24.211Zm1.056-6.864h1.386c.836,0,1.672.2,1.672,1.254s-.836,1.254-1.672,1.254H25.267ZM33.682,0h1.056V-3.894h.088L38.456,0H40L35.981-4.191l3.762-3.6H38.269L34.826-4.422h-.088V-7.788H33.682ZM43.56,0h5.225V-.99H44.616v-2.5h3.7v-.99h-3.7V-6.8h3.971v-.99H43.56Zm11.1,0h1.056V-6.8h2.508v-.99H52.151v.99h2.508Zm6.8-.88A2.99,2.99,0,0,0,63.943.2a2.46,2.46,0,0,0,2.706-2.409c0-2.8-3.839-1.628-3.839-3.6,0-.484.352-1.188,1.518-1.188a1.634,1.634,0,0,1,1.386.682l.858-.781a2.693,2.693,0,0,0-2.244-.891,2.365,2.365,0,0,0-2.64,2.178c0,3.036,3.839,1.925,3.839,3.718a1.443,1.443,0,0,1-1.551,1.3,1.943,1.943,0,0,1-1.65-.836Z" transform="translate(264 394.28)" fill="#9d9da5"/>
    <line id="Line_1" data-name="Line 1" y1="33.559" transform="translate(248.67 373.5)" fill="none" stroke="#3e3e50" stroke-width="1"/>
  </g>
</svg>
