<svg viewBox="0 0 92 42" xmlns="http://www.w3.org/2000/svg" fill="white" class="c-cLYGRd c-cLYGRd-cpLjVx-size-md c-cLYGRd-ljqKRC-margin-0">
  <g transform="translate(0, 10)">
    <path d="M6.65783 17.9122V10.1221H8.34548C11.4689 10.1221 13.6855 11.2274 13.6855 14.9202C13.6855 18.0471 12.3505 19.5296 9.37819 19.5296C7.94245 19.5296 6.65783 19.4757 6.65783 17.9122ZM6.65783 9.36955V2.87905C6.65783 1.89411 6.82154 1.84361 8.10399 1.84361C11.7058 1.84361 13.3157 2.6265 13.3157 5.32877C13.3157 7.7785 11.9514 9.31905 9.16818 9.36955H6.65783ZM2.38354 3.99388V17.003C2.38354 19.3146 2.15037 19.5296 0 19.5565V20.2822H9.35278C13.1354 20.2822 17.3843 19.6102 17.3843 15.0947C17.3843 11.8155 14.379 10.4178 11.7363 9.88026V9.8265C14.0421 9.39645 16.2961 7.99877 16.2961 5.28405C16.2961 1.30605 11.4255 0.714722 8.26467 0.714722H0V1.44044C2.15037 1.46732 2.38354 1.68235 2.38354 3.99388ZM21.1495 10.5461C21.1495 10.2306 20.8501 9.91512 19.4346 9.83625V9.20525C21.0406 8.91605 22.6194 8.41651 24.1982 7.86439V18.3022C24.1982 19.1172 24.3615 19.2749 25.7226 19.2749V19.9059H19.5163V19.2749C20.9862 19.2749 21.1495 19.1172 21.1495 18.3022V10.5461ZM24.5985 2.699C24.5985 3.83288 23.6375 4.68329 22.6481 4.68329C21.6588 4.68329 20.6977 3.83288 20.6977 2.699C20.6977 1.56513 21.6588 0.714722 22.6481 0.714722C23.6375 0.714722 24.5985 1.56513 24.5985 2.699ZM34.5731 9.2977C34.6288 9.3695 34.6787 9.45159 34.7217 9.54548L39.4097 20.2198H40.1249L43.9919 10.7549L47.9384 20.2198H48.733L52.3881 11.1493C52.8119 10.0713 53.2621 9.01964 54.507 8.80931V8.17832H50.5075V8.80931L50.5671 8.81915C51.3375 8.94629 52.0173 9.05846 52.0173 9.54548C52.0173 9.75581 51.8584 10.1502 51.6464 10.676L49.5276 16.4602L47.0643 10.3868C47.0268 10.2844 46.9693 10.149 46.9108 10.011C46.804 9.75929 46.6935 9.49892 46.6935 9.41401C46.6935 9.07223 47.3557 8.88818 48.3621 8.80931V8.17832H41.4227V8.80931C42.9589 8.94077 43.4357 9.44031 43.4357 9.88726C43.4357 10.1539 43.2843 10.5145 43.0935 10.969C43.0586 11.0522 43.0224 11.1386 42.9854 11.2281L40.9195 16.355L38.4298 10.5709C38.3733 10.4267 38.3144 10.2923 38.2597 10.1677C38.1349 9.88315 38.0325 9.64944 38.0325 9.4666C38.0325 9.12481 38.7211 8.80931 39.8336 8.80931V8.17832H33.4239V8.18367L30.9649 8.18787V3.72512L26.7653 8.47835V9.11211H28.1484V17.8264C28.1484 19.2524 29.3303 20.2822 31.1158 20.2822C32.2224 20.2822 33.9323 19.5164 34.5611 18.5921V17.6415C33.9826 18.196 33.2785 18.8562 32.4486 18.8562C31.0907 18.8562 30.9649 17.932 30.9649 17.2982V9.11211L33.8612 9.10635C33.8612 9.10635 34.4489 9.15481 34.5731 9.2977ZM55.616 9.83625C57.0314 9.91512 57.3308 10.2306 57.3308 10.5461V18.3022C57.3308 19.1172 57.1675 19.2749 55.6976 19.2749V19.9059H61.9039V19.2749C60.5429 19.2749 60.3795 19.1172 60.3795 18.3022V7.86439C58.8007 8.41651 57.2219 8.91605 55.616 9.20525V9.83625ZM58.8582 4.68329C59.8476 4.68329 60.8087 3.83288 60.8087 2.699C60.8087 1.56513 59.8476 0.714722 58.8582 0.714722C57.8689 0.714722 56.9078 1.56513 56.9078 2.699C56.9078 3.83288 57.8689 4.68329 58.8582 4.68329ZM72.8554 8.83782C71.3383 8.28533 69.9567 7.86439 68.5752 7.86439C66.4622 7.86439 63.7532 8.94305 63.7532 11.3635C63.7532 13.2577 65.487 14.2312 67.2207 15.0204C68.9544 15.836 70.6882 16.4938 70.6882 17.7566C70.6882 18.8089 70.038 19.6508 68.9003 19.6508C66.2726 19.6508 64.9723 17.5198 64.4847 15.2835L63.8345 15.3888L64.0783 19.3614C65.1619 19.8349 67.1123 20.2822 68.2772 20.2822C70.8778 20.2822 73.3701 19.4666 73.3701 16.5463C73.3701 14.5206 71.5551 13.626 69.8755 12.8104C67.8167 11.8108 66.2726 11.1267 66.2726 10.2322C66.2726 9.23245 67.1936 8.4958 68.1418 8.4958C70.3632 8.4958 71.528 10.5479 72.2053 12.3632L72.8554 12.3106V8.83782ZM86.2423 15.7045L86.6189 16.0991C85.5429 18.6773 83.7136 20.2822 80.7277 20.2822C76.8809 20.2822 74.7827 17.9144 74.7827 14.2837C74.7827 10.6794 77.419 7.86439 81.1043 7.86439C84.0095 7.86439 86.565 9.99541 86.565 12.942H77.7956C77.6611 15.4677 79.2751 17.9144 82.0727 17.9144C83.9289 17.9144 85.1394 17.1251 86.2423 15.7045ZM77.8084 12.3799H82.7024C83.1995 12.3799 83.3566 12.3041 83.3566 11.7734C83.3566 10.2064 82.1528 8.99326 80.7396 8.99326C78.5412 8.99326 77.913 10.8382 77.8084 12.3799Z"></path><path d="M88.1542 9.64194C89.3296 9.64194 90.2731 8.67285 90.2731 7.47069C90.2731 6.26853 89.3296 5.29944 88.1542 5.29944C86.9827 5.29944 86.0352 6.26853 86.0352 7.47069C86.0352 8.67285 86.9827 9.64194 88.1542 9.64194ZM88.1542 9.08584C87.2746 9.08584 86.5669 8.36618 86.5669 7.47069C86.5669 6.57111 87.2746 5.85554 88.1542 5.85554C89.0378 5.85554 89.7414 6.57111 89.7414 7.47069C89.7414 8.36618 89.0378 9.08584 88.1542 9.08584ZM87.8183 8.43569V7.76101H88.1182L88.562 8.43569H89.1577L88.6499 7.68741C88.9098 7.60972 89.0617 7.38482 89.0617 7.08223C89.0617 6.70196 88.7699 6.44435 88.3421 6.44435H87.3185V8.43569H87.8183ZM87.8183 6.86961H88.2221C88.422 6.86961 88.526 6.95548 88.526 7.11904C88.526 7.28669 88.422 7.36438 88.2142 7.36438H87.8183V6.86961Z"></path>
  </g>
</svg>