<?xml version="1.0" encoding="UTF-8"?><svg id="Layer_1" xmlns="http://www.w3.org/2000/svg" viewBox="0 0 946.72 210"><defs><style>.cls-1,.cls-2{fill:#fff;}.cls-2,.cls-3{fill-rule:evenodd;}.cls-3{fill:#00d633;}</style></defs><g><g><path class="cls-1" d="M389.04,75.26c.08-.05,.16-.1,.23-.16,1.75-1.29,2.12-3.75,.84-5.5-9.47-13.18-24.86-20.8-41.09-20.35-30.6,0-51.65,22.24-51.65,55.1s21.05,55.39,51.97,55.39c16.52,.46,32.11-7.6,41.28-21.34,.07-.1,.14-.21,.2-.31,1.08-1.87,.45-4.26-1.42-5.34l-9.2-5.34c-1.75-1.01-3.97-.51-5.12,1.14-5.62,8.59-15.28,13.66-25.55,13.43-19.43,0-31.57-15.66-31.57-37.61s11.95-37.32,31.37-37.32c10.1-.29,19.66,4.52,25.45,12.8,1.19,1.62,3.44,2.06,5.15,1l9.11-5.56Z"/><path class="cls-1" d="M451.79,157.8h10.2c2.15,0,3.89-1.74,3.89-3.89v-50.75c0-18.38-13.06-25.98-31.57-25.98-10.39,.03-20.62,2.61-29.77,7.53-1.83,1.01-2.54,3.28-1.6,5.15l3.4,6.9s.05,.1,.08,.15c1.03,1.87,3.37,2.55,5.24,1.53,6.55-3.4,13.8-5.24,21.17-5.37,6.44,0,14.06,1.77,14.06,8.35,0,7.43-9.71,8.21-21.05,9.86-10.61,1.48-27.78,4.78-27.78,24.04,0,15.47,11.19,24.28,27.32,24.28,10.9,0,17.7-3.89,22.56-10.15v4.47c0,2.14,1.72,3.87,3.86,3.89Zm-4.91-29.94c0,11.8-8.52,16.88-17.63,16.88-7.31,0-12.38-3.28-12.38-10.3,0-7.62,5.8-9.49,12.82-10.76,7.02-1.26,13.6-2.16,17.19-4.86v9.03Z"/><path class="cls-1" d="M477.5,143.81s-.03,.04-.05,.06c-1.36,1.67-1.11,4.14,.56,5.5,9,7.02,20.16,10.67,31.57,10.32,20.86,0,34-10.15,34-26.59s-11.95-20.98-30.74-24.28c-8.81-1.48-17.63-2.67-17.63-8.96,0-5.66,6.14-7.75,13.43-7.75,7.36-.04,14.54,2.29,20.47,6.65,1.66,1.25,4.01,.98,5.34-.61l4.86-5.71c.06-.06,.11-.13,.16-.19,1.3-1.69,.99-4.11-.69-5.42-8.5-6.46-18.93-9.87-29.6-9.71-17.02,0-31.96,7.31-31.96,24.62s13.96,21.47,28.53,23.89c13.74,2.28,19.43,3.59,19.43,9.57,0,6.56-6.19,9.25-14.57,9.25-8.13,.19-16.08-2.38-22.56-7.28-1.64-1.32-4.03-1.09-5.39,.51l-5.15,6.12Z"/><path class="cls-1" d="M558.85,157.8h11.19c2.15,0,3.89-1.74,3.89-3.89v-40.58c0-11.95,7.77-19.11,17.92-19.11,10.76,0,13.43,7.6,13.43,15.98v43.71c0,2.15,1.74,3.89,3.89,3.89h11.19c2.15,0,3.89-1.74,3.89-3.89v-48.08c0-16.85-9.69-28.65-26.27-28.65-9.43-.26-18.4,4.07-24.04,11.63V55.08c0-2.15-1.74-3.89-3.89-3.89h-11.19c-2.15,0-3.89,1.74-3.89,3.89v98.83c0,2.15,1.74,3.89,3.89,3.89Z"/><path class="cls-1" d="M751.12,157.8h13.89c.45,0,.9-.08,1.33-.24,2.02-.74,3.05-2.97,2.31-4.98l-36.55-98.86c-.6-1.48-2.04-2.45-3.64-2.43h-18.04c-1.6-.02-3.04,.95-3.64,2.43l-36.67,98.83c-.16,.44-.25,.9-.25,1.36,0,2.15,1.74,3.88,3.89,3.88h13.11c1.67,0,3.16-1.06,3.69-2.65l8.06-23.77h40.7l8.11,23.77c.53,1.58,2.02,2.65,3.69,2.65Zm-16.83-42.98h-30.74l15.66-46.31,15.08,46.31Z"/><path class="cls-1" d="M796.73,82.66c-.05-2.15-1.84-3.84-3.98-3.79h-11.1c-2.15,0-3.89,1.74-3.89,3.89v97.13h0c0,2.15,1.74,3.89,3.89,3.89h11.19c2.15,0,3.89-1.74,3.89-3.89v-32.32c5.56,7.82,14.69,12.31,24.28,11.95,21.51,0,35.4-17.99,35.4-41.28s-13.89-41.06-35.4-41.06c-9.56-.4-18.69,4.03-24.28,11.8v-6.12c0-.07,0-.13,0-.2Zm0,35.58c0-13.6,7.16-24.5,20.3-24.5s19.57,10.93,19.57,24.5-6.43,24.77-19.57,24.77-20.3-11.17-20.3-24.77Z"/><path class="cls-1" d="M887.06,82.71c-.01-2.13-1.75-3.85-3.89-3.83h-11.17s-.03,0-.05,0c-2.13,.01-3.85,1.75-3.84,3.89v97.13h0c0,2.15,1.74,3.89,3.89,3.89h11.17c2.15,0,3.89-1.74,3.89-3.89v-32.32c5.57,7.81,14.7,12.3,24.28,11.95,21.49,0,35.38-17.99,35.38-41.28s-13.89-41.06-35.38-41.06c-9.56-.39-18.68,4.04-24.28,11.8v-6.12s0-.1,0-.15Zm20.32,60.3c-13.28,0-20.32-11.17-20.32-24.77s7.31-24.5,20.32-24.5,19.43,10.93,19.43,24.5-6.29,24.77-19.43,24.77h0Z"/></g><path id="RGB_Dollar-3" class="cls-3" d="M73.14,0c-21.05,0-31.59,0-42.84,3.5C17.88,8,8.09,17.79,3.59,30.22,0,41.59,0,52.11,0,73.17v63.55c0,21.18,0,31.61,3.5,42.95,4.5,12.43,14.29,22.22,26.71,26.72,11.36,3.6,21.88,3.6,42.93,3.6h63.62c21.08,0,31.59,0,42.93-3.6,12.43-4.5,22.21-14.29,26.71-26.72,3.59-11.37,3.59-21.89,3.59-42.95v-63.46c0-21.09,0-31.61-3.59-42.95-4.5-12.43-14.29-22.22-26.71-26.72-11.44-3.6-21.85-3.6-43.03-3.6h-63.52Zm20.11,79.47c0,7.82,9.11,10.42,19.65,14.38,18.43,6.22,33.61,13.85,33.61,31.92,0,19.63-15.23,33.04-40.14,34.57l-2.26,10.52c-.42,1.96-2.17,3.36-4.18,3.35h-15.66c-.26,0-.52-.04-.77-.09-2.34-.48-3.84-2.77-3.36-5.11l2.43-11.1c-9.4-2.4-18.05-7.14-25.13-13.77-.04-.03-.07-.07-.11-.11-1.61-1.67-1.56-4.33,.11-5.94l8.69-8.5c1.64-1.62,4.28-1.62,5.93,0,7.96,7.6,18.6,11.76,29.6,11.59,11.34,0,19.04-4.81,19.04-12.44s-7.72-9.64-22.29-15.06c-15.4-5.49-29.97-13.34-29.97-31.58,0-21.11,17.63-31.41,38.42-32.43l2.19-10.71c.43-1.95,2.16-3.33,4.15-3.33h15.61c.29,0,.58,.03,.86,.09,2.29,.47,3.76,2.7,3.29,4.99l-2.43,11.98c7.95,2.6,15.31,6.73,21.68,12.15,.08,.07,.16,.15,.24,.22,1.62,1.63,1.61,4.26-.02,5.88l-8.11,8.14c-1.62,1.6-4.21,1.65-5.9,.12-7.87-6.67-17.85-10.33-28.17-10.35-8.5,0-17,2.82-17,10.64Z"/></g><path class="cls-2" d="M93.25,79.47c0,7.82,9.11,10.42,19.65,14.38,18.43,6.22,33.61,13.85,33.61,31.92,0,19.63-15.23,33.04-40.14,34.57l-2.26,10.52c-.42,1.96-2.17,3.36-4.18,3.35h-15.66c-.26,0-.52-.04-.77-.09-2.34-.48-3.84-2.77-3.36-5.11l2.43-11.1c-9.4-2.4-18.05-7.14-25.13-13.77-.04-.03-.07-.07-.11-.11-1.61-1.67-1.56-4.33,.11-5.94l8.69-8.5c1.64-1.62,4.28-1.62,5.93,0,7.96,7.6,18.6,11.76,29.6,11.59,11.34,0,19.04-4.81,19.04-12.44s-7.72-9.64-22.29-15.06c-15.4-5.49-29.97-13.34-29.97-31.58,0-21.11,17.63-31.41,38.42-32.43l2.19-10.71c.43-1.95,2.16-3.33,4.15-3.33h15.61c.29,0,.58,.03,.86,.09,2.29,.47,3.76,2.7,3.29,4.99l-2.43,11.98c7.95,2.6,15.31,6.73,21.68,12.15,.08,.07,.16,.15,.24,.22,1.62,1.63,1.61,4.26-.02,5.88l-8.11,8.14c-1.62,1.6-4.21,1.65-5.9,.12-7.87-6.67-17.85-10.33-28.17-10.35-8.5,0-17,2.82-17,10.64Z"/></svg>