<svg data-name="Layer 1" width="979.085" height="747.647" viewBox="0 0 734.315 560.74" xmlns="http://www.w3.org/2000/svg"><path style="fill:#7b61aa;fill-rule:evenodd;stroke-width:0" transform="translate(-68.202 -122.51)" d="m470.9 400.54 53.51 20.55-19.71 51.32 37.42 14.36 19.7-51.32 52.64 20.21 15.39-40.09-52.64-20.21 20.02-52.15-37.41-14.36L539.8 381l-53.51-20.55zm-47.17 235.11 53.73-19.96 19.14 51.53 37.57-13.95-19.14-51.53 52.85-19.64-14.95-40.25-52.85 19.63-19.45-52.36-37.57 13.95 19.45 52.37-53.73 19.95zM83.14 479.9l53.73-19.96 19.15 51.53 37.57-13.95-19.14-51.53 52.85-19.64-14.95-40.25-52.86 19.63-19.45-52.36-37.57 13.95 19.45 52.37-53.73 19.95zM403 288.01l49.16-29.46 28.26 47.16 34.38-20.6-28.25-47.15 48.36-28.98-22.07-36.84-48.36 28.98-28.71-47.92-34.38 20.6 28.7 47.92-49.16 29.45zm-249.99-26.6 69.39-11.35 10.88 66.56 48.53-7.94-10.88-66.55 68.25-11.16-8.5-51.99-68.25 11.16-11.06-67.63-48.53 7.93 11.06 67.63-69.39 11.35zm169.87 173.4 40.47 9.7-9.3 38.8 28.29 6.78 9.3-38.8 39.8 9.53 7.26-30.31-39.8-9.54 9.45-39.43-28.29-6.78-9.45 39.43-40.46-9.69zm356.55 109.52 45.87-33 31.65 44 32.08-23.08-31.65-44 45.13-32.46-24.73-34.37-45.12 32.46-32.16-44.71-32.08 23.08 32.16 44.71-45.88 33zm-46.36 103.16 41.42-3.97 3.8 39.73 28.96-2.78-3.8-39.72 40.74-3.9-2.97-31.03-40.74 3.9-3.86-40.36-28.97 2.77 3.87 40.36-41.42 3.97z"/></svg>