<svg xmlns="http://www.w3.org/2000/svg" width="1536" height="269" viewBox="0 0 1536 269" version="1.1"><path d="M 50 134.378 L 50 219 64.990 219 L 79.980 219 80.240 171.850 L 80.500 124.701 106.566 150.850 C 120.902 165.233, 133.274 177, 134.059 177 C 134.844 177, 147.302 165.191, 161.743 150.757 L 188 124.514 188 171.757 L 188 219 203 219 L 218 219 218 134.254 L 218 49.509 176.098 91.402 L 134.195 133.296 93.848 92.866 C 71.656 70.630, 52.712 51.833, 51.750 51.096 C 50.087 49.821, 50 53.941, 50 134.378 M 554.094 52.022 C 553.505 53.385, 550.580 60.575, 547.595 68 C 544.609 75.425, 538.473 90.500, 533.961 101.500 C 529.448 112.500, 524.955 123.525, 523.975 126 C 522.996 128.475, 518.589 139.275, 514.182 150 C 509.776 160.725, 502.075 179.625, 497.068 192 C 492.062 204.375, 487.532 215.516, 487.002 216.757 L 486.037 219.014 554.768 218.757 C 599.944 218.588, 623.422 218.157, 623.271 217.500 C 623.145 216.950, 615.441 197.600, 606.150 174.500 C 596.859 151.400, 586.002 124.400, 582.024 114.500 C 578.046 104.600, 574.206 95.150, 573.490 93.500 C 572.269 90.687, 568.047 80.246, 563.986 70 C 559.552 58.812, 557.185 53.154, 556.214 51.419 C 555.229 49.657, 555.100 49.694, 554.094 52.022 M 987.040 52.723 C 986.321 54.250, 984.723 57.975, 983.487 61 C 982.251 64.025, 978.660 72.800, 975.506 80.500 C 972.352 88.200, 968.966 96.525, 967.983 99 C 966.492 102.751, 957.756 124.075, 947.499 149 C 946.254 152.025, 941.758 163.050, 937.507 173.500 C 925.865 202.117, 925.493 203.024, 922.645 209.720 C 921.190 213.141, 920 216.628, 920 217.470 C 920 218.828, 927.627 219, 988 219 C 1043.191 219, 1056 218.755, 1056 217.698 C 1056 216.981, 1050.997 204.044, 1044.882 188.948 C 1038.767 173.851, 1032.917 159.363, 1031.882 156.750 C 1030.847 154.137, 1029.154 149.863, 1028.120 147.250 C 1015.372 115.043, 989.573 51.321, 989.039 50.723 C 988.658 50.295, 987.758 51.195, 987.040 52.723 M 1072 136.950 L 1072 219 1088.500 219 L 1105 219 1105.035 177.750 L 1105.070 136.500 1113.142 145 C 1117.581 149.675, 1125.333 157.775, 1130.369 163 C 1135.405 168.225, 1148.960 182.400, 1160.491 194.500 C 1172.022 206.600, 1185.966 221.148, 1191.478 226.830 C 1196.990 232.511, 1201.860 237.798, 1202.300 238.580 C 1202.740 239.361, 1203.527 240, 1204.050 240 C 1204.642 240, 1205 208.773, 1205 157 L 1205 74 1188.511 74 L 1172.022 74 1171.761 116.058 L 1171.500 158.117 1155.085 140.808 C 1146.056 131.289, 1133.670 118.325, 1127.560 112 C 1121.451 105.675, 1107.027 90.600, 1095.507 78.500 C 1083.988 66.400, 1073.986 56.140, 1073.282 55.700 C 1072.243 55.053, 1072 70.485, 1072 136.950 M 232.460 75.250 C 232.197 75.938, 232.099 108.450, 232.241 147.500 L 232.500 218.500 295.250 218.758 L 358 219.015 358 202.508 L 358 186 312 186 L 266 186 266 171.500 L 266 157 309.025 157 L 352.050 157 351.775 140.750 L 351.500 124.500 308.750 124.239 L 266 123.979 266 115.489 L 266 107 312 107 L 358 107 358 90.500 L 358 74 295.469 74 C 246.365 74, 232.835 74.268, 232.460 75.250 M 372 90.500 L 372 107 395 107 L 418 107 418 163.024 L 418 219.048 434.750 218.774 L 451.500 218.500 451.758 162.750 L 452.017 107 474.508 107 L 497 107 497 90.500 L 497 74 434.500 74 L 372 74 372 90.500 M 638.460 75.250 C 638.197 75.938, 638.099 108.450, 638.241 147.500 L 638.500 218.500 655.250 218.774 L 672 219.048 672 190.524 L 672 162 697.816 162 C 712.150 162, 726.251 161.516, 729.520 160.912 C 743.231 158.377, 755.459 148.689, 760.510 136.359 C 766.597 121.499, 764.578 102.994, 755.631 91.634 C 748.750 82.898, 742.357 78.800, 731.090 75.904 C 724.374 74.178, 719.711 74, 681.309 74 C 648.333 74, 638.831 74.277, 638.460 75.250 M 779 146.500 L 779 219 841.500 219 L 904 219 904 202.500 L 904 186 858 186 L 812 186 812 130 L 812 74 795.500 74 L 779 74 779 146.500 M 1220 146.500 L 1220 219.015 1282.750 218.758 L 1345.500 218.500 1345.500 202.500 L 1345.500 186.500 1299.750 186.240 L 1254 185.980 1254 171.490 L 1254 157 1297.025 157 L 1340.050 157 1339.775 140.750 L 1339.500 124.500 1296.750 124.239 L 1254 123.979 1254 115.499 L 1254 107.020 1299.750 106.760 L 1345.500 106.500 1345.500 90.500 L 1345.500 74.500 1282.750 74.242 L 1220 73.985 1220 146.500 M 1360.441 75.294 C 1360.168 76.006, 1360.069 83.318, 1360.222 91.544 L 1360.500 106.500 1383.242 106.769 L 1405.983 107.038 1406.242 162.769 L 1406.500 218.500 1423.250 218.774 L 1440 219.048 1440 163.024 L 1440 107 1463 107 L 1486 107 1486 90.500 L 1486 74 1423.469 74 C 1373.234 74, 1360.840 74.254, 1360.441 75.294 M 672 117.939 L 672 129 697.750 128.978 C 720.637 128.958, 723.737 128.763, 725.633 127.228 C 729.850 123.812, 731.223 117.778, 728.929 112.743 C 726.660 107.765, 725.297 107.522, 697.750 107.189 L 672 106.877 672 117.939 M 554.728 139.151 C 554.420 139.893, 550.267 150.175, 545.500 162 C 540.733 173.825, 536.597 184.063, 536.309 184.750 C 535.901 185.725, 539.995 186, 554.893 186 C 565.402 186, 574 185.881, 574 185.736 C 574 185.408, 570.673 176.682, 568 170 C 566.900 167.250, 565.100 162.750, 564 160 C 562.900 157.250, 561.053 152.637, 559.895 149.750 C 558.737 146.863, 557.227 142.993, 556.540 141.151 C 555.764 139.072, 555.077 138.314, 554.728 139.151 M 987.530 139.952 C 986.952 140.887, 977.420 164.260, 972.014 178 C 971.040 180.475, 969.915 183.287, 969.514 184.250 C 968.835 185.881, 970.090 186, 988 186 C 1005.886 186, 1007.168 185.879, 1006.547 184.250 C 1004.298 178.348, 988.693 139.444, 988.471 139.183 C 988.322 139.009, 987.899 139.355, 987.530 139.952" stroke="none" fill="#fffcfc" fill-rule="evenodd"/><path d="" stroke="none" fill="#fcfcfc" fill-rule="evenodd"/></svg>