<?xml version="1.0" encoding="UTF-8" standalone="no"?>
<svg
   width="73.044792mm"
   height="27.902231mm"
   viewBox="0 0 73.04479 27.902231"
   version="1.1"
   id="onbtc"
   xmlns="http://www.w3.org/2000/svg"
   xmlns:svg="http://www.w3.org/2000/svg">
  <defs
     id="defs2" />
  <g
     aria-label="BITCOIN OFFICE"
     id="text1855"
     style="fill:#d2d2d2;stroke-width:3.37609;stroke-linecap:square"
     transform="translate(-15.744428,-40.187135)">
    <path
       d="m 17.787525,49.237549 c 0,1.063761 -0.270162,1.384578 -1.65474,1.384578 h -0.388357 v 0.320817 h 6.179946 c 2.718501,0 3.647182,-1.874246 3.647182,-3.208169 0,-1.317038 -0.928681,-2.347029 -2.51588,-2.819812 v -0.03377 c 1.131301,-0.202621 1.924901,-1.097532 1.924901,-2.059982 0,-0.810485 -0.337702,-1.384578 -1.029991,-1.874246 -0.607864,-0.439013 -1.908016,-0.658519 -3.393905,-0.658519 -0.320817,0 -1.604084,0.01689 -2.532765,0.05065 -0.489668,0.01689 -1.65474,0.08443 -2.127522,0.101311 v 0.320817 h 0.590978 c 1.181957,0 1.300153,0.506553 1.300153,1.469003 z m 1.401463,-8.577631 c 0.422127,-0.01688 1.114417,-0.05065 1.485889,-0.05065 2.076867,0 2.786041,1.080646 2.786041,2.262603 0,1.317038 -0.810485,1.958672 -2.431454,1.958672 h -1.840476 z m 0,4.491436 h 1.823591 c 1.975556,0 2.971777,1.333923 2.971777,2.634076 0,1.317038 -0.641634,2.701616 -2.870467,2.701616 -1.418348,0 -1.924901,-0.455898 -1.924901,-1.739165 z" />
    <path
       d="m 31.329346,50.622127 c -1.165072,0 -1.435233,-0.337702 -1.435233,-1.333923 v -7.159282 c 0,-1.131302 0.371472,-1.367693 1.435233,-1.367693 v -0.320817 h -4.103079 v 0.320817 c 0.945565,0.05065 1.266382,0.303931 1.266382,1.215727 v 7.193052 c 0,1.131302 -0.219506,1.401463 -1.266382,1.452119 v 0.320817 h 4.103079 z" />
    <path
       d="m 38.505484,41.048275 h 2.938008 c 0.675404,0 0.979335,0.388358 1.232612,1.874246 h 0.303932 l -0.270162,-2.735386 h -0.320817 c -0.03377,0.202621 -0.287046,0.253277 -0.523438,0.253277 h -8.121733 c -0.118195,0 -0.236391,-0.01689 -0.337702,-0.05066 -0.10131,-0.03377 -0.168851,-0.10131 -0.185736,-0.202621 h -0.320817 l -0.270161,2.735386 h 0.303932 c 0.253276,-1.485888 0.557208,-1.874246 1.232612,-1.874246 h 2.938007 v 8.341239 c 0,0.911796 -0.303932,1.232613 -1.333923,1.232613 H 35.14535 v 0.320817 h 5.318806 v -0.320817 h -0.624749 c -1.029991,0 -1.333923,-0.320817 -1.333923,-1.232613 z" />
    <path
       d="m 54.732034,43.209568 -0.151966,-2.448339 h -0.253277 c -0.03377,0.05065 -0.118196,0.10131 -0.303932,0.10131 -0.523438,0 -1.435233,-0.675404 -3.562756,-0.675404 -3.528985,0 -6.06175,2.363914 -6.06175,5.639623 0,3.123744 2.465224,5.386347 5.892899,5.386347 1.992442,0 2.735387,-0.607863 3.816033,-0.455898 0.405242,-0.658518 0.86114,-1.705395 1.080646,-2.465224 h -0.320817 c -1.148186,2.043097 -2.786041,2.498995 -4.119964,2.498995 -2.566535,0 -4.761598,-2.245719 -4.761598,-5.301922 0,-2.836696 1.75605,-4.879793 4.575862,-4.879793 1.840476,0 3.292594,1.029991 3.849803,2.600305 z" />
    <path
       d="m 68.83106,45.404631 c 0,-3.039318 -2.735386,-5.217496 -5.92667,-5.217496 -3.596526,0 -6.179946,2.380799 -6.179946,5.740934 0,3.157514 2.786041,5.285036 6.095521,5.285036 3.275709,0 6.011095,-2.397684 6.011095,-5.808474 z m -1.587199,0.557208 c 0,2.397684 -1.317038,4.829139 -4.069309,4.829139 -2.718501,0 -4.862909,-2.228833 -4.862909,-5.386347 0,-2.026212 1.181957,-4.795368 4.153735,-4.795368 2.786041,0 4.778483,2.211948 4.778483,5.352576 z" />
    <path
       d="m 74.588877,50.622127 c -1.165072,0 -1.435233,-0.337702 -1.435233,-1.333923 v -7.159282 c 0,-1.131302 0.371472,-1.367693 1.435233,-1.367693 v -0.320817 h -4.103079 v 0.320817 c 0.945565,0.05065 1.266382,0.303931 1.266382,1.215727 v 7.193052 c 0,1.131302 -0.219506,1.401463 -1.266382,1.452119 v 0.320817 h 4.103079 z" />
    <path
       d="m 87.252675,51.061139 v -9.421885 c 0,-0.658519 0.270161,-0.878025 1.536544,-0.878025 v -0.320817 h -3.951114 v 0.320817 c 1.350808,0.03377 1.65474,0.219506 1.65474,1.249497 v 6.72027 l -7.952882,-8.290584 h -2.65096 v 0.320817 c 0.590978,0.01689 1.029991,0.151966 1.418348,0.422127 v 8.307469 c 0,0.776715 -0.337702,1.131302 -1.384578,1.131302 h -0.06754 v 0.320817 h 3.917343 v -0.320817 c -1.435234,0 -1.705395,-0.253277 -1.705395,-1.469004 v -7.243708 l 8.746481,9.151724 z" />
    <path
       d="m 27.851044,62.280894 c 0,-3.039318 -2.735386,-5.217496 -5.92667,-5.217496 -3.596526,0 -6.179946,2.380799 -6.179946,5.740934 0,3.157513 2.786041,5.285036 6.095521,5.285036 3.275709,0 6.011095,-2.397684 6.011095,-5.808474 z m -1.587199,0.557208 c 0,2.397684 -1.317038,4.829138 -4.069309,4.829138 -2.718501,0 -4.862909,-2.228833 -4.862909,-5.386346 0,-2.026212 1.181957,-4.795369 4.153735,-4.795369 2.786041,0 4.778483,2.211948 4.778483,5.352577 z" />
    <path
       d="m 36.749491,60.81189 h -0.287047 c -0.05065,0.726059 -0.354587,1.080646 -0.979336,1.080646 h -3.343249 v -3.967998 h 3.208168 c 1.046877,0 1.384579,0.405242 1.401464,1.384578 h 0.287046 v -1.992442 h -7.564524 v 0.320817 c 1.181957,0.01689 1.266382,0.506553 1.266382,1.5872 v 6.618959 c 0,1.367693 -0.185736,1.587199 -1.232612,1.654739 v 0.320817 h 4.103079 v -0.320817 c -1.266382,0 -1.469003,-0.354587 -1.469003,-1.300152 V 62.5004 h 3.123743 c 0.810485,0 1.165072,0.303932 1.198842,1.283267 h 0.287047 z" />
    <path
       d="m 45.715447,60.81189 h -0.287046 c -0.05066,0.726059 -0.354587,1.080646 -0.979336,1.080646 h -3.34325 v -3.967998 h 3.208169 c 1.046876,0 1.384578,0.405242 1.401463,1.384578 h 0.287047 V 57.316674 H 38.43797 v 0.320817 c 1.181956,0.01689 1.266382,0.506553 1.266382,1.5872 v 6.618959 c 0,1.367693 -0.185736,1.587199 -1.232612,1.654739 v 0.320817 h 4.103079 v -0.320817 c -1.266383,0 -1.469004,-0.354587 -1.469004,-1.300152 V 62.5004 h 3.123744 c 0.810484,0 1.165071,0.303932 1.198842,1.283267 h 0.287046 z" />
    <path
       d="m 51.540777,67.498389 c -1.165072,0 -1.435234,-0.337702 -1.435234,-1.333923 v -7.159282 c 0,-1.131301 0.371472,-1.367693 1.435234,-1.367693 v -0.320817 h -4.10308 v 0.320817 c 0.945566,0.05066 1.266383,0.303932 1.266383,1.215727 v 7.193053 c 0,1.131301 -0.219506,1.401463 -1.266383,1.452118 v 0.320817 h 4.10308 z" />
    <path
       d="m 63.512285,60.085831 -0.151966,-2.44834 h -0.253276 c -0.03377,0.05066 -0.118196,0.101311 -0.303932,0.101311 -0.523438,0 -1.435234,-0.675404 -3.562756,-0.675404 -3.528986,0 -6.061751,2.363914 -6.061751,5.639623 0,3.123744 2.465225,5.386347 5.8929,5.386347 1.992442,0 2.735386,-0.607864 3.816032,-0.455898 0.405243,-0.658519 0.86114,-1.705395 1.080647,-2.465224 h -0.320817 c -1.148187,2.043097 -2.786042,2.498994 -4.119964,2.498994 -2.566535,0 -4.761598,-2.245718 -4.761598,-5.301921 0,-2.836697 1.75605,-4.879794 4.575862,-4.879794 1.840475,0 3.292594,1.029991 3.849802,2.600306 z" />
    <path
       d="m 72.444469,60.81189 h -0.320817 c -0.08443,0.979336 -0.371472,1.266382 -0.979335,1.266382 h -3.022433 v -4.153734 h 3.562756 c 0.607863,0 1.029991,0.303932 1.249497,1.739165 h 0.303932 L 73.102988,57.316674 H 64.99814 v 0.320817 h 0.371473 c 1.131301,0 1.350808,0.405243 1.350808,1.350808 v 7.125512 c 0,1.013106 -0.236392,1.384578 -1.5872,1.384578 h -0.472783 v 0.320817 h 8.965988 l 0.270162,-2.51588 h -0.303932 c -0.422127,1.452119 -0.776715,1.908017 -1.958671,1.908017 h -2.600306 c -0.624748,0 -0.911795,-0.151966 -0.911795,-0.928681 v -3.596526 h 2.853582 c 0.692289,0 1.013106,0.135081 1.148186,1.333923 h 0.320817 z" />
  </g>
</svg>
