<?xml version="1.0" encoding="UTF-8" standalone="no"?>
<svg
   width="412.55847"
   height="162.48053"
   viewBox="0 0 109.15609 42.98964"
   version="1.1"
   id="onbtc"
   xml:space="preserve"
   xmlns="http://www.w3.org/2000/svg"
   xmlns:svg="http://www.w3.org/2000/svg"><defs
     id="defs2" /><g
     aria-label="BITCOIN OFFICE"
     id="text1855"
     style="fill:#d2d2d2;stroke-width:3.37609;stroke-linecap:square"
     transform="matrix(0.80869521,0,0,0.81958688,37.352678,-22.933491)"><path
       d="m 17.787525,49.237549 c 0,1.063761 -0.270162,1.384578 -1.65474,1.384578 h -0.388357 v 0.320817 h 6.179946 c 2.718501,0 3.647182,-1.874246 3.647182,-3.208169 0,-1.317038 -0.928681,-2.347029 -2.51588,-2.819812 v -0.03377 c 1.131301,-0.202621 1.924901,-1.097532 1.924901,-2.059982 0,-0.810485 -0.337702,-1.384578 -1.029991,-1.874246 -0.607864,-0.439013 -1.908016,-0.658519 -3.393905,-0.658519 -0.320817,0 -1.604084,0.01689 -2.532765,0.05065 -0.489668,0.01689 -1.65474,0.08443 -2.127522,0.101311 v 0.320817 h 0.590978 c 1.181957,0 1.300153,0.506553 1.300153,1.469003 z m 1.401463,-8.577631 c 0.422127,-0.01688 1.114417,-0.05065 1.485889,-0.05065 2.076867,0 2.786041,1.080646 2.786041,2.262603 0,1.317038 -0.810485,1.958672 -2.431454,1.958672 h -1.840476 z m 0,4.491436 h 1.823591 c 1.975556,0 2.971777,1.333923 2.971777,2.634076 0,1.317038 -0.641634,2.701616 -2.870467,2.701616 -1.418348,0 -1.924901,-0.455898 -1.924901,-1.739165 z"
       id="path183" /><path
       d="m 31.329346,50.622127 c -1.165072,0 -1.435233,-0.337702 -1.435233,-1.333923 v -7.159282 c 0,-1.131302 0.371472,-1.367693 1.435233,-1.367693 v -0.320817 h -4.103079 v 0.320817 c 0.945565,0.05065 1.266382,0.303931 1.266382,1.215727 v 7.193052 c 0,1.131302 -0.219506,1.401463 -1.266382,1.452119 v 0.320817 h 4.103079 z"
       id="path185" /><path
       d="m 38.505484,41.048275 h 2.938008 c 0.675404,0 0.979335,0.388358 1.232612,1.874246 h 0.303932 l -0.270162,-2.735386 h -0.320817 c -0.03377,0.202621 -0.287046,0.253277 -0.523438,0.253277 h -8.121733 c -0.118195,0 -0.236391,-0.01689 -0.337702,-0.05066 -0.10131,-0.03377 -0.168851,-0.10131 -0.185736,-0.202621 h -0.320817 l -0.270161,2.735386 h 0.303932 c 0.253276,-1.485888 0.557208,-1.874246 1.232612,-1.874246 h 2.938007 v 8.341239 c 0,0.911796 -0.303932,1.232613 -1.333923,1.232613 H 35.14535 v 0.320817 h 5.318806 v -0.320817 h -0.624749 c -1.029991,0 -1.333923,-0.320817 -1.333923,-1.232613 z"
       id="path187" /><path
       d="m 54.732034,43.209568 -0.151966,-2.448339 h -0.253277 c -0.03377,0.05065 -0.118196,0.10131 -0.303932,0.10131 -0.523438,0 -1.435233,-0.675404 -3.562756,-0.675404 -3.528985,0 -6.06175,2.363914 -6.06175,5.639623 0,3.123744 2.465224,5.386347 5.892899,5.386347 1.992442,0 2.735387,-0.607863 3.816033,-0.455898 0.405242,-0.658518 0.86114,-1.705395 1.080646,-2.465224 h -0.320817 c -1.148186,2.043097 -2.786041,2.498995 -4.119964,2.498995 -2.566535,0 -4.761598,-2.245719 -4.761598,-5.301922 0,-2.836696 1.75605,-4.879793 4.575862,-4.879793 1.840476,0 3.292594,1.029991 3.849803,2.600305 z"
       id="path189" /><path
       d="m 68.83106,45.404631 c 0,-3.039318 -2.735386,-5.217496 -5.92667,-5.217496 -3.596526,0 -6.179946,2.380799 -6.179946,5.740934 0,3.157514 2.786041,5.285036 6.095521,5.285036 3.275709,0 6.011095,-2.397684 6.011095,-5.808474 z m -1.587199,0.557208 c 0,2.397684 -1.317038,4.829139 -4.069309,4.829139 -2.718501,0 -4.862909,-2.228833 -4.862909,-5.386347 0,-2.026212 1.181957,-4.795368 4.153735,-4.795368 2.786041,0 4.778483,2.211948 4.778483,5.352576 z"
       id="path191" /><path
       d="m 74.588877,50.622127 c -1.165072,0 -1.435233,-0.337702 -1.435233,-1.333923 v -7.159282 c 0,-1.131302 0.371472,-1.367693 1.435233,-1.367693 v -0.320817 h -4.103079 v 0.320817 c 0.945565,0.05065 1.266382,0.303931 1.266382,1.215727 v 7.193052 c 0,1.131302 -0.219506,1.401463 -1.266382,1.452119 v 0.320817 h 4.103079 z"
       id="path193" /><path
       d="m 87.252675,51.061139 v -9.421885 c 0,-0.658519 0.270161,-0.878025 1.536544,-0.878025 v -0.320817 h -3.951114 v 0.320817 c 1.350808,0.03377 1.65474,0.219506 1.65474,1.249497 v 6.72027 l -7.952882,-8.290584 h -2.65096 v 0.320817 c 0.590978,0.01689 1.029991,0.151966 1.418348,0.422127 v 8.307469 c 0,0.776715 -0.337702,1.131302 -1.384578,1.131302 h -0.06754 v 0.320817 h 3.917343 v -0.320817 c -1.435234,0 -1.705395,-0.253277 -1.705395,-1.469004 v -7.243708 l 8.746481,9.151724 z"
       id="path195" /><path
       d="m 27.851044,62.280894 c 0,-3.039318 -2.735386,-5.217496 -5.92667,-5.217496 -3.596526,0 -6.179946,2.380799 -6.179946,5.740934 0,3.157513 2.786041,5.285036 6.095521,5.285036 3.275709,0 6.011095,-2.397684 6.011095,-5.808474 z m -1.587199,0.557208 c 0,2.397684 -1.317038,4.829138 -4.069309,4.829138 -2.718501,0 -4.862909,-2.228833 -4.862909,-5.386346 0,-2.026212 1.181957,-4.795369 4.153735,-4.795369 2.786041,0 4.778483,2.211948 4.778483,5.352577 z"
       id="path197" /><path
       d="m 36.749491,60.81189 h -0.287047 c -0.05065,0.726059 -0.354587,1.080646 -0.979336,1.080646 h -3.343249 v -3.967998 h 3.208168 c 1.046877,0 1.384579,0.405242 1.401464,1.384578 h 0.287046 v -1.992442 h -7.564524 v 0.320817 c 1.181957,0.01689 1.266382,0.506553 1.266382,1.5872 v 6.618959 c 0,1.367693 -0.185736,1.587199 -1.232612,1.654739 v 0.320817 h 4.103079 v -0.320817 c -1.266382,0 -1.469003,-0.354587 -1.469003,-1.300152 V 62.5004 h 3.123743 c 0.810485,0 1.165072,0.303932 1.198842,1.283267 h 0.287047 z"
       id="path199" /><path
       d="m 45.715447,60.81189 h -0.287046 c -0.05066,0.726059 -0.354587,1.080646 -0.979336,1.080646 h -3.34325 v -3.967998 h 3.208169 c 1.046876,0 1.384578,0.405242 1.401463,1.384578 h 0.287047 V 57.316674 H 38.43797 v 0.320817 c 1.181956,0.01689 1.266382,0.506553 1.266382,1.5872 v 6.618959 c 0,1.367693 -0.185736,1.587199 -1.232612,1.654739 v 0.320817 h 4.103079 v -0.320817 c -1.266383,0 -1.469004,-0.354587 -1.469004,-1.300152 V 62.5004 h 3.123744 c 0.810484,0 1.165071,0.303932 1.198842,1.283267 h 0.287046 z"
       id="path201" /><path
       d="m 51.540777,67.498389 c -1.165072,0 -1.435234,-0.337702 -1.435234,-1.333923 v -7.159282 c 0,-1.131301 0.371472,-1.367693 1.435234,-1.367693 v -0.320817 h -4.10308 v 0.320817 c 0.945566,0.05066 1.266383,0.303932 1.266383,1.215727 v 7.193053 c 0,1.131301 -0.219506,1.401463 -1.266383,1.452118 v 0.320817 h 4.10308 z"
       id="path203" /><path
       d="m 63.512285,60.085831 -0.151966,-2.44834 h -0.253276 c -0.03377,0.05066 -0.118196,0.101311 -0.303932,0.101311 -0.523438,0 -1.435234,-0.675404 -3.562756,-0.675404 -3.528986,0 -6.061751,2.363914 -6.061751,5.639623 0,3.123744 2.465225,5.386347 5.8929,5.386347 1.992442,0 2.735386,-0.607864 3.816032,-0.455898 0.405243,-0.658519 0.86114,-1.705395 1.080647,-2.465224 h -0.320817 c -1.148187,2.043097 -2.786042,2.498994 -4.119964,2.498994 -2.566535,0 -4.761598,-2.245718 -4.761598,-5.301921 0,-2.836697 1.75605,-4.879794 4.575862,-4.879794 1.840475,0 3.292594,1.029991 3.849802,2.600306 z"
       id="path205" /><path
       d="m 72.444469,60.81189 h -0.320817 c -0.08443,0.979336 -0.371472,1.266382 -0.979335,1.266382 h -3.022433 v -4.153734 h 3.562756 c 0.607863,0 1.029991,0.303932 1.249497,1.739165 h 0.303932 L 73.102988,57.316674 H 64.99814 v 0.320817 h 0.371473 c 1.131301,0 1.350808,0.405243 1.350808,1.350808 v 7.125512 c 0,1.013106 -0.236392,1.384578 -1.5872,1.384578 h -0.472783 v 0.320817 h 8.965988 l 0.270162,-2.51588 h -0.303932 c -0.422127,1.452119 -0.776715,1.908017 -1.958671,1.908017 h -2.600306 c -0.624748,0 -0.911795,-0.151966 -0.911795,-0.928681 v -3.596526 h 2.853582 c 0.692289,0 1.013106,0.135081 1.148186,1.333923 h 0.320817 z"
       id="path207" /></g><g
     id="g10388"
     transform="matrix(0.3852944,0,0,-0.3852944,-191.45631,211.35567)"><g
       id="g2126"
       transform="translate(523.73704,534.17142)"><g
         id="g10132"><g
           id="g2074"
           transform="translate(18.386601,4.7781031)"><path
             d="M 0,0 1.27,-2.573 4.111,-2.985 2.056,-4.988 2.541,-7.816 0,-6.481 l -2.541,-1.335 0.485,2.828 -2.055,2.003 2.841,0.412 z"
             style="fill:#d1d2d2;fill-opacity:1;fill-rule:nonzero;stroke:none"
             id="path2076" /></g><g
           id="g2078"
           transform="translate(37.060304,0.01159804)"><path
             d="M 0,0 1.27,-2.573 4.111,-2.985 2.056,-4.988 2.541,-7.816 0,-6.481 l -2.541,-1.335 0.485,2.828 -2.055,2.003 2.841,0.412 z"
             style="fill:#d1d2d2;fill-opacity:1;fill-rule:nonzero;stroke:none"
             id="path2080" /></g><g
           id="g2082"
           transform="translate(51.379499,-11.578002)"><path
             d="M 0,0 1.27,-2.573 4.111,-2.985 2.056,-4.988 2.541,-7.816 0,-6.481 l -2.541,-1.335 0.485,2.828 -2.055,2.003 2.841,0.412 z"
             style="fill:#d1d2d2;fill-opacity:1;fill-rule:nonzero;stroke:none"
             id="path2084" /></g><g
           id="g2086"
           transform="translate(59.558797,-28.170598)"><path
             d="M 0,0 1.27,-2.573 4.111,-2.985 2.056,-4.988 2.541,-7.816 0,-6.481 l -2.541,-1.335 0.485,2.828 -2.055,2.003 2.841,0.412 z"
             style="fill:#d1d2d2;fill-opacity:1;fill-rule:nonzero;stroke:none"
             id="path2088" /></g><g
           id="g2090"
           transform="translate(59.873002,-47.427703)"><path
             d="M 0,0 1.27,-2.573 4.111,-2.985 2.056,-4.988 2.541,-7.816 0,-6.481 l -2.541,-1.335 0.485,2.828 -2.055,2.003 2.841,0.412 z"
             style="fill:#d1d2d2;fill-opacity:1;fill-rule:nonzero;stroke:none"
             id="path2092" /></g><g
           id="g2094"
           transform="translate(51.396097,-64.097803)"><path
             d="M 0,0 1.27,-2.573 4.111,-2.985 2.056,-4.988 2.541,-7.816 0,-6.481 l -2.541,-1.335 0.485,2.828 -2.055,2.003 2.841,0.412 z"
             style="fill:#d1d2d2;fill-opacity:1;fill-rule:nonzero;stroke:none"
             id="path2096" /></g><g
           id="g2098"
           transform="translate(37.150304,-75.696501)"><path
             d="M 0,0 1.27,-2.573 4.111,-2.985 2.056,-4.988 2.541,-7.816 0,-6.481 l -2.541,-1.335 0.485,2.828 -2.055,2.003 2.841,0.412 z"
             style="fill:#d1d2d2;fill-opacity:1;fill-rule:nonzero;stroke:none"
             id="path2100" /></g><g
           id="g2102"
           transform="translate(18.379101,-79.768401)"><path
             d="M 0,0 1.27,-2.573 4.111,-2.985 2.056,-4.988 2.541,-7.816 0,-6.481 l -2.541,-1.335 0.485,2.828 -2.055,2.003 2.841,0.412 z"
             style="fill:#d1d2d2;fill-opacity:1;fill-rule:nonzero;stroke:none"
             id="path2104" /></g><g
           id="g2106"
           transform="translate(0.02390039,-75.707999)"><path
             d="M 0,0 1.27,-2.573 4.111,-2.985 2.055,-4.988 2.541,-7.816 0,-6.481 l -2.541,-1.335 0.485,2.828 -2.055,2.003 2.841,0.412 z"
             style="fill:#d1d2d2;fill-opacity:1;fill-rule:nonzero;stroke:none"
             id="path2108" /></g><g
           id="g2110"
           transform="translate(-14.2294,-64.118503)"><path
             d="M 0,0 1.27,-2.573 4.111,-2.985 2.056,-4.988 2.541,-7.816 0,-6.481 l -2.541,-1.335 0.485,2.828 -2.055,2.003 2.841,0.412 z"
             style="fill:#d1d2d2;fill-opacity:1;fill-rule:nonzero;stroke:none"
             id="path2112" /></g><g
           id="g2114"
           transform="translate(-22.716903,-47.551701)"><path
             d="M 0,0 1.27,-2.573 4.111,-2.985 2.056,-4.988 2.541,-7.816 0,-6.481 l -2.541,-1.335 0.485,2.828 -2.055,2.003 2.841,0.412 z"
             style="fill:#d1d2d2;fill-opacity:1;fill-rule:nonzero;stroke:none"
             id="path2116" /></g><g
           id="g2118"
           transform="translate(-22.716903,-28.170598)"><path
             d="M 0,0 1.27,-2.573 4.111,-2.985 2.056,-4.988 2.541,-7.816 0,-6.481 l -2.541,-1.335 0.485,2.828 -2.055,2.003 2.841,0.412 z"
             style="fill:#d1d2d2;fill-opacity:1;fill-rule:nonzero;stroke:none"
             id="path2120" /></g><g
           id="g2122"
           transform="translate(-14.660297,-11.598702)"><path
             d="M 0,0 1.27,-2.573 4.111,-2.985 2.055,-4.988 2.541,-7.816 0,-6.481 l -2.541,-1.335 0.485,2.828 -2.055,2.003 2.841,0.412 z"
             style="fill:#d1d2d2;fill-opacity:1;fill-rule:nonzero;stroke:none"
             id="path2124" /></g><path
           d="M 0,0 1.27,-2.573 4.111,-2.985 2.056,-4.988 2.541,-7.816 0,-6.481 l -2.541,-1.335 0.485,2.828 -2.055,2.003 2.841,0.412 z"
           style="fill:#d1d2d2;fill-opacity:1;fill-rule:nonzero;stroke:none"
           id="path2128" /></g></g><g
       id="g10077"><g
         id="g2130"
         transform="translate(563.89664,486.08892)"><path
           d="m 0,0 c -0.014,0.002 -0.027,0.008 -0.041,0.008 -0.199,0 -0.353,-0.153 -0.353,-0.352 0,-0.199 0.154,-0.353 0.353,-0.353 0.014,0 0.027,0.007 0.041,0.009 0.015,-0.002 0.027,-0.009 0.043,-0.009 0.184,0 0.352,0.154 0.352,0.353 0,0.199 -0.169,0.352 -0.352,0.352 C 0.027,0.008 0.015,0.002 0,0"
           style="fill:#d1d2d2;fill-opacity:1;fill-rule:nonzero;stroke:none"
           id="path2132" /></g><g
         id="g2134"
         transform="translate(557.77874,477.14262)"><path
           d="m 0,0 c 0.036,0.064 0.06,0.118 0.066,0.157 0.046,0.245 0.276,0.751 0.215,1.012 -0.046,0.26 -0.154,0.904 -0.322,1.272 -0.153,0.383 -0.522,1.272 -0.905,1.44 0,0 -0.307,-1.011 -0.414,-1.379 C -1.467,2.119 -1.575,1.69 -1.743,1.49 -1.792,1.422 -1.881,1.269 -1.979,1.085 -2.003,1.239 -1.996,1.232 -1.959,1.796 -1.898,2.501 -3.017,3.605 -3.017,3.605 -2.91,3.298 -3.339,2.072 -3.554,1.796 -3.769,1.535 -4.091,0.739 -4.137,0.264 -4.183,-0.227 -4.398,-0.534 -4.566,-0.749 -4.884,-1.182 -4.529,-3 -4.487,-3.208 -5.199,-3.65 -5.943,-4.078 -6.635,-4.427 -6.841,-4.53 -7.077,-4.635 -7.331,-4.742 c 0.047,0.045 0.095,0.083 0.141,0.131 0.982,1.043 0.931,1.388 1.059,1.641 0.331,0.057 -0.447,0.142 -0.898,0.101 0.264,0.4 0.629,0.949 0.883,1.418 0.2,0.383 -1.717,-0.123 -1.717,-0.123 -0.208,-0.083 -0.374,-0.147 -0.51,-0.197 0.159,0.575 0.325,1.21 0.309,1.344 -0.015,0.153 -0.812,-0.108 -1.456,-0.383 -0.552,-0.231 -0.874,-0.675 -1.349,-0.966 -0.568,-0.368 -0.645,-1.288 -0.905,-1.717 -0.175,-0.298 -0.275,-0.525 -0.334,-0.716 -0.054,0.43 -0.215,0.63 -0.379,0.714 -10e-4,0 -0.002,10e-4 -0.003,10e-4 -0.008,0.004 -0.016,0.008 -0.023,0.012 -0.008,0.003 -0.018,0.007 -0.029,0.01 -0.037,0.014 -0.073,0.024 -0.107,0.029 -0.122,0.027 -0.321,0.058 -0.635,0.093 -0.429,0.046 -1.119,0 -1.442,-0.598 -0.305,-0.553 -0.582,-1.928 -0.701,-2.251 -0.079,0.032 -0.161,0.054 -0.248,0.054 -0.087,0 -0.17,-0.022 -0.248,-0.053 -0.12,0.323 -0.396,1.697 -0.702,2.25 -0.322,0.598 -1.012,0.644 -1.441,0.598 -0.314,-0.035 -0.513,-0.066 -0.635,-0.093 -0.034,-0.005 -0.07,-0.015 -0.107,-0.029 -0.011,-0.003 -0.021,-0.007 -0.029,-0.01 -0.008,-0.004 -0.015,-0.008 -0.023,-0.012 -0.001,0 -0.002,-10e-4 -0.003,-10e-4 -0.196,-0.101 -0.388,-0.364 -0.396,-0.991 -0.033,0.244 -0.13,0.538 -0.397,0.993 -0.26,0.429 -0.337,1.349 -0.905,1.717 -0.475,0.291 -0.797,0.735 -1.349,0.966 -0.644,0.275 -1.441,0.536 -1.456,0.383 -0.016,-0.134 0.15,-0.769 0.309,-1.344 -0.136,0.05 -0.302,0.114 -0.51,0.197 0,0 -1.916,0.506 -1.717,0.123 0.254,-0.469 0.62,-1.017 0.883,-1.418 -0.451,0.041 -1.229,-0.044 -0.898,-0.101 0.128,-0.253 0.077,-0.598 1.059,-1.641 0.046,-0.048 0.094,-0.086 0.141,-0.131 -0.254,0.107 -0.49,0.212 -0.696,0.315 -0.692,0.349 -1.436,0.777 -2.148,1.219 0.042,0.208 0.397,2.026 0.079,2.459 -0.168,0.215 -0.383,0.522 -0.429,1.013 -0.046,0.475 -0.368,1.271 -0.583,1.532 -0.214,0.276 -0.644,1.502 -0.537,1.809 0,0 -1.119,-1.104 -1.058,-1.809 0.038,-0.564 0.044,-0.557 0.02,-0.711 -0.098,0.184 -0.187,0.337 -0.235,0.405 -0.169,0.2 -0.276,0.629 -0.384,1.012 -0.107,0.368 -0.414,1.379 -0.414,1.379 -0.383,-0.168 -0.752,-1.057 -0.905,-1.44 -0.168,-0.368 -0.276,-1.012 -0.322,-1.272 -0.061,-0.261 0.169,-0.767 0.215,-1.012 0.006,-0.039 0.03,-0.093 0.066,-0.157 -0.792,0.601 -1.455,1.186 -2.099,2.142 0.057,0.259 0.114,0.459 0.225,0.559 0.153,0.169 0.69,0.813 0.797,1.226 0.107,0.43 0,0.752 0,0.966 0,0.215 0.153,0.951 0.153,0.951 0,0 -0.008,0.025 -0.018,0.061 h 0.893 c 1.59,-1.173 7.311,-4.783 14.041,-1.845 -0.037,-0.11 -0.073,-0.196 -0.107,-0.239 0,0 -1.445,-1.961 1.822,-2.626 l -10e-4,-0.001 c 0,0 10e-4,0.001 0.002,0.001 0,0 10e-4,0 10e-4,0 v 0 c 3.267,0.665 1.821,2.626 1.821,2.626 -0.033,0.043 -0.07,0.13 -0.107,0.241 C -7.275,1.12 -1.552,4.731 0.039,5.905 H 0.942 C 0.932,5.869 0.924,5.844 0.924,5.844 c 0,0 0.153,-0.736 0.153,-0.951 0,-0.214 -0.107,-0.536 0,-0.966 C 1.184,3.514 1.721,2.87 1.874,2.701 1.985,2.601 2.042,2.401 2.099,2.142 1.456,1.186 0.792,0.601 0,0 m -16.418,-6.728 c -0.17,0.095 -0.667,0.334 -1.373,0.346 -0.94,1.126 -0.574,2.198 -0.478,2.426 0.658,-0.751 1.645,-2.358 1.87,-2.728 -0.007,-0.015 -0.013,-0.029 -0.019,-0.044 m 2.858,0.346 c -0.706,-0.012 -1.203,-0.251 -1.373,-0.347 -0.005,0.015 -0.012,0.03 -0.018,0.044 0.224,0.37 1.211,1.978 1.87,2.729 0.096,-0.228 0.462,-1.3 -0.479,-2.426 m -24.074,22.09 c 0.034,0.106 0.063,0.213 0.085,0.322 0.042,0.05 0.088,0.084 0.14,0.084 0.215,0 0.475,0.153 0.644,0.26 0.153,0.107 0.215,0.215 0.644,0.383 0.414,0.153 0.414,0.522 0.798,1.211 0.367,0.705 0.214,2.024 0.214,2.024 -0.045,-0.145 -0.398,-0.468 -0.728,-0.716 0.006,0.309 -0.051,0.671 -0.09,0.836 -0.046,0.261 0,0.644 0,0.644 -0.951,-0.491 -1.058,-1.395 -1.488,-1.87 -10e-4,-0.002 -0.002,-0.004 -0.004,-0.006 0.121,1.008 0.297,2.055 0.541,3.045 v -0.004 c 0.046,0.153 0.368,0.322 0.751,0.429 0.161,0.047 0.363,0.236 0.56,0.449 10e-4,-0.002 0,-0.004 0,-0.006 0.008,-0.105 0.058,-0.195 0.138,-0.251 0.055,-0.038 0.118,-0.058 0.186,-0.058 0.032,0 0.065,0.005 0.097,0.013 0.051,0.014 0.099,0.039 0.142,0.071 l -0.089,-0.548 c 0,0 -0.078,-0.233 0.373,-0.328 -0.105,-1.147 -0.758,-9.525 2.045,-14.416 l -0.194,-0.324 c -0.234,0.203 -0.717,0.881 -0.819,1.083 0,0 0.061,-0.429 -0.107,-0.643 -0.134,-0.187 -0.197,-0.618 -0.212,-0.929 -0.058,0.268 -0.135,0.503 -0.095,0.715 0.046,0.321 0.153,0.536 0.092,1.118 -0.046,0.582 -0.199,1.272 -0.199,1.272 -0.062,-0.582 -0.491,-0.582 -0.706,-1.164 -0.153,-0.461 -0.199,-0.43 -0.475,-0.859 -0.165,-0.261 -0.238,-0.51 -0.256,-0.737 -0.242,0.695 -0.468,1.395 -0.672,2.08 0.059,0.098 0.098,0.438 0.129,0.835 0.241,0.222 0.474,0.241 0.574,0.383 0.107,0.169 0.061,0.368 0.168,0.583 0.108,0.215 0.338,0.567 0.368,0.751 0.108,0.583 0.429,1.226 0.154,1.854 0,0 -0.137,-0.046 -0.295,-0.107 0.022,0.135 0.045,0.253 0.078,0.32 0.092,0.214 0.046,1.655 -0.107,2.023 0,0 -0.43,-0.322 -0.644,-0.583 -0.215,-0.26 -0.584,-0.368 -0.691,-0.69 -0.107,-0.322 -0.321,-0.322 -0.475,-0.644 -0.117,-0.225 -0.222,-0.547 -0.242,-0.866 -0.199,0.966 -0.316,1.738 -0.33,2.17 -0.006,0.24 -0.007,0.506 -0.003,0.791 m 3.461,8.295 c -0.002,-0.003 -0.209,-0.327 -0.494,-0.372 -0.013,0.061 -0.007,0.121 0.001,0.179 0.128,0.169 0.256,0.342 0.456,0.456 0.014,0.008 0.026,0.021 0.04,0.031 0.028,-0.027 0.048,-0.064 0.052,-0.109 0.005,-0.061 -0.014,-0.125 -0.055,-0.185 m 4.088,8.795 c -0.033,0.002 -0.08,0.012 -0.116,0.051 -0.036,0.039 -0.041,0.087 -0.04,0.12 0.003,0.066 0.037,0.133 0.099,0.19 0.002,0.003 0.237,0.256 0.52,0.256 0.012,0 0.026,-10e-4 0.039,-0.002 -0.009,-0.288 -0.304,-0.535 -0.31,-0.54 -0.056,-0.051 -0.126,-0.082 -0.192,-0.075 m -0.264,1.698 h 0.001 -0.001 l 0.569,-0.193 0.024,-0.458 -0.001,10e-4 v -10e-4 l -0.453,0.066 z m 1.318,-0.326 c 0.056,0.05 0.125,0.08 0.192,0.074 0.033,-10e-4 0.08,-0.011 0.116,-0.051 0.036,-0.039 0.041,-0.086 0.04,-0.12 -0.003,-0.066 -0.037,-0.133 -0.096,-0.187 -0.003,-0.002 -0.257,-0.256 -0.535,-0.256 -0.009,0 -0.019,10e-4 -0.029,0.002 0.003,0.301 0.303,0.53 0.312,0.538 m 13.184,2.993 c 0,0 0.407,0.646 0.592,1.428 0.272,-1.734 -0.07,-3.027 -0.196,-3.42 l -0.271,0.454 -0.89,-1.488 c -0.053,0.561 -0.037,1.747 0.765,3.026 m -0.626,3.504 v 0 c -0.075,0 -0.145,0.027 -0.192,0.073 -0.023,0.024 -0.052,0.063 -0.052,0.116 0,0.053 0.028,0.092 0.051,0.115 0.047,0.047 0.117,0.074 0.201,0.075 0.005,-10e-4 0.379,0.034 0.585,-0.188 -0.2,-0.207 -0.584,-0.191 -0.593,-0.191 m 0.754,1.508 v -10e-4 10e-4 l 0.292,-0.525 -0.291,-0.355 v 10e-4 -10e-4 l -0.291,0.354 z m 0.697,-1.126 c 0.042,0 0.059,-0.002 0.06,-0.002 0.134,0 0.243,-0.084 0.244,-0.188 0,-0.105 -0.11,-0.19 -0.248,-0.19 -0.004,0 -0.39,-0.017 -0.589,0.19 0.157,0.17 0.417,0.19 0.533,0.19 m 12.305,-6.856 c 0.031,0.035 0.075,0.051 0.124,0.051 0.062,0 0.131,-0.026 0.19,-0.08 0.003,-0.002 0.266,-0.21 0.296,-0.49 -0.038,0.002 -0.07,-0.008 -0.096,-0.028 -0.245,0.04 -0.456,0.238 -0.461,0.243 -0.1,0.091 -0.123,0.227 -0.053,0.304 m 1.056,0.11 0.57,0.193 h -0.001 0.001 L -1.23,33.911 -1.683,33.845 v 10e-4 l -10e-4,-10e-4 z m 0.422,-1.454 c -0.071,-0.077 -0.209,-0.066 -0.311,0.027 -0.004,0.002 -0.269,0.231 -0.299,0.504 0.007,0.009 0.013,0.019 0.016,0.03 0.291,0.012 0.533,-0.249 0.541,-0.257 0.099,-0.09 0.123,-0.227 0.053,-0.304 m 3.97,-8.842 c -0.044,0.062 -0.062,0.135 -0.05,0.2 0.004,0.029 0.021,0.065 0.053,0.095 C 2.75,24.29 2.764,24.275 2.78,24.266 2.975,24.155 3.102,23.988 3.226,23.823 3.236,23.761 3.241,23.697 3.227,23.631 2.942,23.676 2.735,24 2.731,24.007 M -10.126,5.905 h 5.053 c -3.156,-2.289 -6.849,-1.315 -7.418,-1.144 0.717,0.191 1.546,0.536 2.365,1.144 m -6.152,-2.996 c 0,0 0.352,1.836 0.555,2.996 h 0.001 c 0.204,-1.16 0.555,-2.996 0.555,-2.996 0.216,-0.896 -0.547,-1.704 -0.555,-1.713 -0.009,0.009 -0.771,0.817 -0.556,1.713 m -5.036,2.996 c 0.819,-0.608 1.648,-0.953 2.365,-1.144 -0.569,-0.171 -4.262,-1.145 -7.418,1.144 z m 3.31,9.083 c 0.145,-0.142 0.281,-0.292 0.416,-0.443 0.151,-0.168 0.304,-0.335 0.457,-0.501 0.274,-0.296 0.553,-0.588 0.834,-0.877 0.504,-0.516 1.019,-1.022 1.553,-1.508 0.205,-0.186 0.413,-0.369 0.626,-0.547 0.01,-0.009 0.02,-0.018 0.036,-0.031 -0.013,-0.003 -0.018,-0.004 -0.023,-0.004 -4.885,0 -9.771,0 -14.655,0 -0.006,0.014 0.004,0.019 0.01,0.025 0.068,0.068 0.136,0.136 0.204,0.203 0.22,0.215 0.442,0.428 0.67,0.635 0.275,0.25 0.556,0.494 0.851,0.72 0.179,0.137 0.363,0.266 0.557,0.38 0.055,0.032 0.108,0.07 0.16,0.107 0.466,0.324 0.907,0.678 1.32,1.069 0.236,0.223 0.459,0.458 0.664,0.711 0.013,0.016 0.026,0.033 0.037,0.05 0.171,0.277 0.363,0.539 0.568,0.791 0.164,0.202 0.337,0.396 0.523,0.579 0.193,0.19 0.397,0.368 0.622,0.52 0.147,0.099 0.3,0.185 0.465,0.249 0.112,0.043 0.227,0.075 0.346,0.089 0.209,0.025 0.406,-0.013 0.59,-0.114 0.08,-0.044 0.155,-0.095 0.224,-0.154 0.163,-0.139 0.336,-0.265 0.514,-0.386 0.207,-0.14 0.42,-0.268 0.644,-0.38 0.117,-0.059 0.237,-0.113 0.36,-0.159 0.082,-0.031 0.159,-0.071 0.235,-0.112 0.206,-0.112 0.4,-0.242 0.586,-0.384 0.214,-0.163 0.415,-0.34 0.606,-0.528 m 6.553,-1.223 c 0.233,-0.264 0.473,-0.522 0.715,-0.778 0.219,-0.232 0.442,-0.461 0.667,-0.687 0.383,-0.385 0.775,-0.761 1.182,-1.119 0.031,-0.027 0.062,-0.054 0.092,-0.081 0.006,-0.005 0.011,-0.01 0.017,-0.018 -0.006,-0.002 -0.01,-0.004 -0.013,-0.005 -0.012,0 -0.024,0 -0.035,0 -0.477,0 -0.955,0 -1.432,0 -0.002,0 -0.005,0 -0.008,0 -0.024,-0.003 -0.045,0.005 -0.064,0.021 -0.108,0.088 -0.218,0.174 -0.325,0.263 -0.352,0.293 -0.689,0.602 -1.018,0.92 -0.178,0.171 -0.355,0.344 -0.529,0.519 -0.468,0.469 -0.924,0.949 -1.369,1.44 -0.102,0.113 -0.203,0.227 -0.308,0.338 -0.264,0.276 -0.551,0.527 -0.865,0.745 -0.148,0.103 -0.301,0.197 -0.462,0.278 -0.008,0.004 -0.016,0.009 -0.026,0.014 0.004,0.005 0.006,0.01 0.01,0.012 0.136,0.084 0.279,0.152 0.435,0.188 0.079,0.018 0.159,0.025 0.239,0.019 0.097,-0.008 0.188,-0.038 0.273,-0.085 0.065,-0.035 0.124,-0.079 0.181,-0.126 0.321,-0.264 0.665,-0.491 1.042,-0.668 0.053,-0.025 0.106,-0.047 0.16,-0.068 0.094,-0.036 0.183,-0.081 0.269,-0.13 0.198,-0.114 0.382,-0.247 0.557,-0.392 0.221,-0.184 0.425,-0.385 0.615,-0.6 m 2.545,-0.019 c 0.16,-0.138 0.308,-0.287 0.448,-0.444 0.303,-0.341 0.615,-0.673 0.932,-1.001 0.285,-0.293 0.575,-0.581 0.873,-0.861 0.119,-0.111 0.241,-0.22 0.361,-0.33 0.008,-0.008 0.017,-0.016 0.03,-0.028 -0.009,-0.003 -0.013,-0.005 -0.016,-0.005 -0.012,0 -0.024,0 -0.036,0 -0.533,0 -1.067,0 -1.601,0 -0.006,0 -0.013,10e-4 -0.019,0 -0.022,-0.003 -0.038,0.006 -0.054,0.019 -0.109,0.089 -0.219,0.176 -0.326,0.267 -0.309,0.26 -0.606,0.533 -0.896,0.814 -0.169,0.163 -0.337,0.328 -0.503,0.494 -0.435,0.437 -0.86,0.884 -1.274,1.341 -0.09,0.1 -0.18,0.202 -0.273,0.3 -0.151,0.159 -0.312,0.309 -0.481,0.449 -0.008,0.007 -0.016,0.014 -0.023,0.021 -0.002,0.002 -0.003,0.005 -0.006,0.009 0.004,0.003 0.008,0.006 0.012,0.009 0.11,0.08 0.225,0.152 0.351,0.202 0.082,0.032 0.165,0.054 0.252,0.059 0.095,0.005 0.183,-0.016 0.266,-0.059 0.055,-0.029 0.106,-0.065 0.153,-0.104 0.255,-0.212 0.528,-0.395 0.824,-0.545 0.081,-0.042 0.165,-0.08 0.251,-0.112 0.082,-0.031 0.158,-0.072 0.233,-0.115 0.187,-0.11 0.359,-0.239 0.522,-0.38 m 1.584,0.154 c 0.032,-0.015 0.065,-0.029 0.098,-0.041 0.082,-0.03 0.158,-0.071 0.233,-0.115 0.198,-0.119 0.378,-0.261 0.548,-0.417 0.108,-0.1 0.21,-0.206 0.308,-0.316 0.197,-0.223 0.398,-0.441 0.604,-0.655 0.185,-0.193 0.371,-0.384 0.559,-0.573 0.227,-0.228 0.46,-0.45 0.699,-0.667 0.011,-0.01 0.024,-0.018 0.032,-0.034 -0.006,-0.002 -0.009,-0.004 -0.013,-0.005 -0.011,0 -0.023,0 -0.035,0 -0.376,0 -0.752,0 -1.128,0 0,0 -0.002,0 -0.004,0 -0.029,-0.004 -0.052,0.007 -0.075,0.025 -0.22,0.18 -0.433,0.367 -0.642,0.559 -0.204,0.188 -0.404,0.38 -0.601,0.576 -0.434,0.43 -0.856,0.872 -1.266,1.325 -0.087,0.095 -0.172,0.192 -0.262,0.284 -0.202,0.209 -0.421,0.399 -0.66,0.567 -0.009,0.006 -0.019,0.014 -0.03,0.022 0.004,0.005 0.006,0.01 0.01,0.012 0.1,0.062 0.205,0.113 0.321,0.137 0.116,0.025 0.224,0.007 0.326,-0.054 0.04,-0.025 0.077,-0.054 0.114,-0.084 0.266,-0.217 0.55,-0.404 0.864,-0.546 m -8.461,1.394 c 0.062,-0.028 0.125,-0.056 0.189,-0.08 0.072,-0.029 0.142,-0.061 0.21,-0.098 0.192,-0.102 0.371,-0.224 0.543,-0.357 0.284,-0.221 0.542,-0.47 0.781,-0.738 0.364,-0.41 0.739,-0.81 1.12,-1.204 0.157,-0.161 0.314,-0.321 0.473,-0.48 0.404,-0.401 0.816,-0.794 1.246,-1.167 0.027,-0.023 0.054,-0.046 0.08,-0.069 0.006,-0.005 0.011,-0.011 0.017,-0.016 l -0.003,-0.008 c -0.013,0 -0.026,0 -0.039,0 h -2.05 c -0.003,0 -0.005,0 -0.008,0 -0.024,-0.004 -0.043,0.006 -0.061,0.021 -0.046,0.036 -0.094,0.072 -0.141,0.108 -0.292,0.228 -0.573,0.469 -0.849,0.717 -0.317,0.284 -0.626,0.577 -0.93,0.875 -0.664,0.65 -1.307,1.322 -1.932,2.009 -0.108,0.12 -0.215,0.242 -0.325,0.359 -0.241,0.257 -0.499,0.494 -0.776,0.711 -0.01,0.008 -0.019,0.016 -0.031,0.026 0.007,0.006 0.011,0.011 0.016,0.015 0.135,0.095 0.276,0.178 0.43,0.238 0.086,0.033 0.174,0.058 0.266,0.07 0.163,0.022 0.319,-0.004 0.465,-0.081 0.071,-0.037 0.136,-0.081 0.196,-0.132 0.159,-0.135 0.327,-0.256 0.5,-0.371 0.196,-0.13 0.399,-0.249 0.613,-0.348 m -11.543,-1.005 h 1.641 c -0.317,-0.274 -0.644,-0.536 -0.991,-0.774 -0.031,-0.022 -0.064,-0.042 -0.096,-0.061 -0.186,-0.111 -0.362,-0.235 -0.533,-0.366 -0.28,-0.212 -0.547,-0.439 -0.808,-0.674 -0.261,-0.233 -0.514,-0.474 -0.764,-0.719 z m -4.437,-7.42 2.211,3.697 h 26.85 c -0.011,0.007 -0.022,0.014 -0.033,0.02 -0.046,0.026 -0.093,0.05 -0.138,0.077 -0.16,0.096 -0.311,0.206 -0.458,0.321 -0.263,0.208 -0.514,0.43 -0.759,0.659 -0.354,0.331 -0.696,0.675 -1.031,1.026 -0.22,0.23 -0.437,0.462 -0.648,0.7 -0.092,0.105 -0.19,0.204 -0.291,0.3 -0.182,0.172 -0.375,0.329 -0.587,0.464 -0.092,0.059 -0.189,0.11 -0.289,0.156 h 2.828 l 4.44,-7.42 z m 30.411,4.745 -2.356,3.937 c 0.425,1.266 0.418,2.665 0.402,3.135 l 2.837,1.995 c 0.495,-5.457 -0.49,-8.215 -0.883,-9.067 M 3.413,23.365 C 3.712,23.325 3.902,22.998 3.908,22.988 3.947,22.932 3.965,22.868 3.96,22.807 3.956,22.752 3.932,22.707 3.892,22.679 3.854,22.652 3.803,22.644 3.749,22.659 3.691,22.675 3.637,22.715 3.595,22.774 3.592,22.777 3.359,23.083 3.413,23.365 m -9.467,-3.895 -2.054,3.433 c 0.588,1.345 0.494,3.483 0.445,4.168 l 2.257,2.487 C -4.552,23.409 -5.564,20.469 -6.054,19.47 m -12.471,9.537 c 1.77,0.777 3.813,0.787 5.59,0.029 l 8.672,-14.489 h -3.179 c -0.145,0.089 -0.286,0.186 -0.419,0.294 -0.048,0.039 -0.096,0.078 -0.148,0.111 -0.219,0.139 -0.455,0.184 -0.71,0.134 -0.131,-0.025 -0.254,-0.073 -0.373,-0.134 -0.118,-0.06 -0.229,-0.134 -0.334,-0.215 -0.012,-0.008 -0.022,-0.019 -0.038,-0.024 -0.053,0.019 -0.106,0.042 -0.158,0.067 -0.282,0.136 -0.541,0.308 -0.782,0.507 -0.078,0.065 -0.16,0.124 -0.251,0.17 -0.148,0.077 -0.306,0.116 -0.474,0.116 -0.115,0 -0.227,-0.019 -0.337,-0.052 -0.158,-0.046 -0.303,-0.118 -0.442,-0.205 -0.093,-0.057 -0.181,-0.121 -0.266,-0.189 -0.01,-0.008 -0.019,-0.02 -0.035,-0.021 -0.006,0.004 -0.013,0.007 -0.019,0.012 -0.162,0.101 -0.33,0.189 -0.509,0.258 -0.161,0.062 -0.312,0.145 -0.459,0.235 -0.208,0.126 -0.407,0.266 -0.593,0.423 -0.066,0.056 -0.137,0.106 -0.213,0.149 -0.157,0.091 -0.325,0.146 -0.506,0.161 -0.123,0.009 -0.244,0 -0.365,-0.025 -0.163,-0.035 -0.317,-0.095 -0.464,-0.172 -0.08,-0.042 -0.152,-0.096 -0.227,-0.146 v 5.023 c 0.531,0.033 0.939,0.216 0.939,0.44 0,0.217 -0.383,1.733 -0.891,2.099 -0.025,0.021 -0.466,0.361 -1.052,0.027 0,0 -0.66,-0.381 -0.322,-0.919 0,0 0.071,-0.162 0.359,-0.046 0.055,0.022 0.191,0.091 0.234,0.289 l -0.007,-0.13 c -0.003,-0.185 -0.257,-0.288 -0.269,-0.293 -0.166,-0.464 -0.268,-0.916 -0.268,-1.027 0,-0.225 0.412,-0.409 0.948,-0.441 v -5.092 c -0.017,0.009 -0.033,0.018 -0.049,0.028 -0.22,0.134 -0.431,0.282 -0.628,0.448 -0.072,0.061 -0.15,0.116 -0.232,0.163 -0.158,0.091 -0.327,0.149 -0.509,0.168 -0.143,0.015 -0.286,0.005 -0.427,-0.025 -0.171,-0.036 -0.332,-0.1 -0.486,-0.18 -0.162,-0.084 -0.312,-0.184 -0.457,-0.295 -0.011,-0.009 -0.02,-0.02 -0.037,-0.023 -0.011,0.007 -0.024,0.014 -0.036,0.022 -0.066,0.038 -0.132,0.077 -0.198,0.113 -0.094,0.052 -0.189,0.099 -0.289,0.136 -0.13,0.05 -0.257,0.107 -0.381,0.172 -0.354,0.187 -0.684,0.41 -0.993,0.666 -0.029,0.025 -0.059,0.049 -0.089,0.072 -0.242,0.183 -0.512,0.298 -0.817,0.323 -0.01,10e-4 -0.02,0.005 -0.03,0.008 h -0.165 c -0.013,-0.003 -0.026,-0.007 -0.039,-0.008 -0.195,-0.016 -0.383,-0.065 -0.564,-0.139 -0.208,-0.084 -0.401,-0.195 -0.585,-0.323 -0.209,-0.145 -0.402,-0.309 -0.585,-0.485 -0.237,-0.227 -0.455,-0.47 -0.66,-0.726 -0.199,-0.248 -0.386,-0.505 -0.557,-0.774 -0.008,-0.013 -0.018,-0.026 -0.028,-0.038 -0.125,-0.154 -0.258,-0.301 -0.398,-0.442 -0.085,-0.087 -0.18,-0.162 -0.269,-0.245 h -1.771 z m 0.686,1.146 c 1.373,0.386 2.85,0.39 4.226,0.016 l 0.347,-0.579 c -0.778,0.27 -1.591,0.408 -2.431,0.408 -0.861,0 -1.696,-0.144 -2.492,-0.429 z m 0.862,1.443 1.255,2.097 1.25,-2.088 c -0.83,0.11 -1.677,0.106 -2.505,-0.009 m -0.257,-0.43 c 0.993,0.175 2.025,0.177 3.02,0.008 l 0.322,-0.538 c -1.204,0.266 -2.465,0.26 -3.668,-0.015 z m -8.8,-1.608 2.256,-2.487 c -0.048,-0.685 -0.143,-2.825 0.447,-4.17 l -2.054,-3.433 c -0.489,0.996 -1.504,3.936 -0.649,10.09 m -9.309,-6.563 c 0.002,0.003 0.19,0.33 0.49,0.37 0.054,-0.282 -0.18,-0.588 -0.185,-0.595 -0.039,-0.055 -0.093,-0.095 -0.152,-0.111 -0.055,-0.014 -0.103,-0.007 -0.143,0.021 -0.039,0.027 -0.063,0.072 -0.067,0.127 -0.005,0.061 0.013,0.125 0.057,0.188 m 4.372,-2.314 2.837,-1.995 c -0.017,-0.471 -0.023,-1.872 0.404,-3.14 l -2.355,-3.938 c -0.392,0.845 -1.382,3.604 -0.886,9.073 M 6.201,14.917 C 6.187,14.485 6.07,13.713 5.871,12.747 5.851,13.066 5.747,13.388 5.629,13.613 5.476,13.935 5.261,13.935 5.154,14.257 5.047,14.579 4.678,14.687 4.464,14.947 4.249,15.208 3.819,15.53 3.819,15.53 3.666,15.162 3.62,13.721 3.712,13.507 3.745,13.44 3.768,13.322 3.79,13.187 3.632,13.248 3.495,13.294 3.495,13.294 3.22,12.666 3.542,12.023 3.649,11.44 3.68,11.256 3.909,10.904 4.017,10.689 4.124,10.474 4.078,10.275 4.185,10.106 4.285,9.964 4.518,9.945 4.759,9.723 4.79,9.326 4.829,8.986 4.888,8.888 4.684,8.203 4.458,7.503 4.216,6.808 4.198,7.035 4.125,7.284 3.96,7.545 3.684,7.974 3.638,7.943 3.485,8.404 3.27,8.986 2.841,8.986 2.779,9.568 2.779,9.568 2.626,8.878 2.58,8.296 2.519,7.714 2.626,7.499 2.672,7.178 2.712,6.966 2.635,6.731 2.577,6.463 2.562,6.774 2.499,7.205 2.365,7.392 2.197,7.606 2.258,8.035 2.258,8.035 2.156,7.833 1.672,7.153 1.438,6.951 L 1.239,7.284 c 2.798,4.891 2.146,13.261 2.04,14.408 0.452,0.095 0.373,0.328 0.373,0.328 l -0.088,0.548 c 0.043,-0.032 0.091,-0.057 0.141,-0.071 0.034,-0.008 0.066,-0.013 0.098,-0.013 0.067,0 0.131,0.02 0.186,0.058 0.08,0.056 0.13,0.146 0.138,0.251 0.001,0.006 -0.002,0.012 -10e-4,0.018 0.201,-0.218 0.407,-0.413 0.571,-0.461 0.383,-0.107 0.705,-0.276 0.751,-0.429 v 0.004 c 0.244,-0.99 0.421,-2.037 0.541,-3.045 -0.002,0.002 -0.003,0.004 -0.004,0.006 -0.43,0.475 -0.537,1.379 -1.488,1.87 0,0 0.046,-0.383 0,-0.644 -0.039,-0.165 -0.096,-0.527 -0.089,-0.836 -0.331,0.248 -0.684,0.571 -0.729,0.716 0,0 -0.153,-1.319 0.214,-2.024 0.384,-0.689 0.384,-1.058 0.798,-1.211 0.429,-0.168 0.491,-0.276 0.644,-0.383 0.169,-0.107 0.429,-0.26 0.644,-0.26 0.052,0 0.098,-0.034 0.14,-0.084 0.022,-0.109 0.051,-0.216 0.085,-0.322 0.004,-0.285 0.003,-0.551 -0.003,-0.791 m 3.832,-1.025 c 0,0 -0.598,-0.107 -0.858,-0.322 -0.128,-0.105 -0.312,-0.158 -0.497,-0.206 0.088,0.18 0.147,0.403 0.127,0.679 -0.061,0.644 -0.061,1.702 -0.061,1.702 0,0 -0.215,-0.644 -0.522,-0.797 C 7.901,14.794 7.318,14.58 7.21,14.364 7.103,14.15 6.673,14.15 6.505,13.506 6.352,12.878 6.352,12.924 6.245,12.709 6.212,12.643 6.163,12.57 6.11,12.492 c 0.201,0.969 0.351,1.968 0.351,2.823 0,0.15 -0.004,0.292 -0.006,0.439 0.159,0.126 0.37,0.355 0.37,0.355 0.136,0.224 1.78,0.787 2.01,1.231 0.23,0.429 0.352,0.735 0.46,0.92 0.091,0.199 0.306,0.888 0.26,1.195 -0.031,0.306 -0.076,1.456 -0.184,1.64 0,0 -0.506,-0.261 -0.675,-0.521 -0.046,-0.07 -0.11,-0.131 -0.182,-0.186 0.001,0.153 -0.02,0.309 -0.077,0.46 -0.23,0.567 -0.583,1.318 -0.583,1.318 0,0 -0.307,-0.475 -0.476,-0.767 C 7.102,20.847 6.826,20.802 6.78,20.587 6.749,20.357 6.412,20.219 6.29,19.775 6.245,19.618 6.22,19.506 6.206,19.42 c -0.122,0.948 -0.279,1.811 -0.458,2.588 0.079,0.249 0.168,0.792 0.39,0.971 0.321,0.276 0.367,0.643 0.367,1.073 0,0.429 -0.092,0.736 -0.153,1.011 -0.046,0.261 -0.859,1.38 -0.797,1.701 0,0 -0.4,-0.905 -0.552,-1.26 -0.397,0.395 -1.01,0.861 -1.349,1.03 -0.201,0.35 -0.408,0.702 -0.619,1.053 0.01,0.104 0.033,0.324 0.066,0.558 0.061,0.322 0.169,0.859 0.061,1.119 -0.107,0.26 -0.322,0.476 -0.429,0.797 -0.108,0.322 -0.154,0.537 -0.43,0.797 -0.26,0.276 -0.644,0.644 -0.644,0.644 0,0 -0.104,-0.474 -0.203,-0.858 -0.098,0.051 -0.198,0.087 -0.272,0.107 -0.063,0.025 -0.198,0.094 -0.347,0.174 -0.185,0.251 -0.364,0.489 -0.533,0.7 0.095,0.062 0.16,0.163 0.16,0.289 0,0.2 -0.154,0.353 -0.353,0.353 -0.199,0 -0.353,-0.153 -0.353,-0.353 0,-0.199 0.154,-0.352 0.353,-0.352 0.073,0 0.135,0.025 0.19,0.061 0.049,-0.075 0.189,-0.294 0.396,-0.622 -0.172,0.095 -0.339,0.19 -0.417,0.24 -0.138,0.092 -0.215,-0.96 0.105,-1.543 -0.051,0.013 -0.103,0.028 -0.151,0.04 -0.644,0.168 -1.226,0.107 -1.226,0.107 0.153,0 0.537,-0.414 0.582,-0.629 0.062,-0.214 0.43,-0.705 0.645,-0.797 0.214,-0.107 0.583,-0.383 0.797,-0.597 0.211,-0.211 0.877,-0.26 1.351,-0.261 0.188,-0.092 0.362,-0.147 0.47,-0.117 0.198,-0.341 0.395,-0.687 0.588,-1.032 -0.06,-0.263 -0.157,-0.733 -0.125,-0.918 0,0 0,-0.001 0,-0.001 v -10e-4 c -0.26,0.047 -1.165,0.261 -1.165,0.261 0.088,-0.525 0.238,-1.056 0.465,-1.336 -0.05,-0.048 -0.088,-0.108 -0.101,-0.18 -0.019,-0.109 0.009,-0.228 0.076,-0.323 0.01,-0.015 0.205,-0.316 0.505,-0.419 l -4.384,-3.084 c 0.348,5.215 -0.279,10.211 -0.429,11.302 0.532,0.201 0.388,0.44 0.388,0.44 l -0.207,0.519 c 0.056,-0.025 0.114,-0.041 0.171,-0.041 0.095,0 0.186,0.035 0.25,0.105 0.132,0.146 0.103,0.389 -0.059,0.535 -0.008,0.01 -0.14,0.153 -0.338,0.242 l 0.625,0.091 0.359,1.51 H -0.53 l 0.001,0.001 -1.47,-0.499 -0.032,-0.631 c -0.106,0.187 -0.258,0.304 -0.265,0.309 -0.169,0.152 -0.413,0.158 -0.545,0.012 -0.132,-0.145 -0.104,-0.388 0.061,-0.538 0.012,-0.012 0.247,-0.232 0.541,-0.284 0.005,-0.014 0.012,-0.027 0.02,-0.04 l -7.35,-8.101 -4.882,8.157 c 0.301,1.977 -0.76,4.979 -0.802,5.098 0.062,0.263 0.098,0.539 0.085,0.812 0.336,0.112 0.438,0.373 0.463,0.461 0.004,0.005 0.009,0.012 0.012,0.017 -0.001,0.001 -0.004,0.004 -0.005,0.006 0,0.003 0.002,0.009 0.002,0.009 0,0 -0.347,0.431 -0.564,0.63 0.113,-0.024 0.216,-0.033 0.265,-0.033 0.019,0 0.031,10e-4 0.033,10e-4 0.227,0 0.411,0.161 0.411,0.358 0,0.196 -0.184,0.356 -0.402,0.356 h -0.001 c -0.013,10e-4 -0.207,0.017 -0.413,-0.05 l 0.401,0.489 -0.754,1.357 v -0.001 0.001 l -0.75,-1.359 0.402,-0.489 c -0.205,0.067 -0.397,0.051 -0.405,0.05 -0.12,0 -0.234,-0.045 -0.312,-0.123 -0.064,-0.065 -0.099,-0.148 -0.099,-0.234 0,-0.086 0.035,-0.17 0.1,-0.234 0.078,-0.078 0.191,-0.123 0.306,-0.123 0,10e-4 0.013,0 0.035,0 0.042,0 0.124,0.007 0.215,0.023 -0.126,-0.117 -0.285,-0.296 -0.395,-0.425 -0.046,-0.042 -0.084,-0.083 -0.106,-0.125 -0.015,-0.018 -0.025,-0.031 -0.025,-0.031 0,0 0.005,-0.022 0.016,-0.053 0.002,-0.011 -0.004,-0.022 0.003,-0.033 0.069,-0.132 0.145,-0.215 0.224,-0.27 -0.56,-1.038 -1.937,-4.049 -1.14,-7.186 l -4.22,-7.056 -7.379,8.132 c 0.317,0.033 0.577,0.28 0.587,0.29 0.088,0.081 0.142,0.19 0.147,0.301 0.004,0.091 -0.025,0.177 -0.083,0.24 -0.058,0.064 -0.14,0.102 -0.232,0.106 -0.106,0.002 -0.225,-0.038 -0.307,-0.113 -0.01,-0.008 -0.165,-0.126 -0.271,-0.314 l -0.032,0.631 -1.47,0.499 0.001,-0.001 h -0.002 l 0.359,-1.51 0.625,-0.091 c -0.196,-0.089 -0.327,-0.23 -0.333,-0.236 -0.088,-0.08 -0.142,-0.19 -0.147,-0.3 -0.004,-0.092 0.025,-0.177 0.083,-0.241 0.058,-0.064 0.14,-0.101 0.232,-0.106 0.006,0 0.012,0 0.018,0 0.058,0 0.116,0.016 0.171,0.04 l -0.207,-0.517 c 0,0 -0.144,-0.24 0.388,-0.44 -0.15,-1.091 -0.778,-6.087 -0.43,-11.302 l -4.383,3.084 c 0.3,0.103 0.495,0.403 0.503,0.416 0.061,0.087 0.09,0.191 0.082,0.291 -0.007,0.084 -0.046,0.153 -0.1,0.208 0.229,0.278 0.382,0.814 0.47,1.343 0,0 -0.905,-0.214 -1.165,-0.261 h -10e-4 c 0,0 10e-4,0.002 10e-4,0.002 0.032,0.185 -0.064,0.655 -0.125,0.918 0.193,0.345 0.39,0.691 0.588,1.032 0.108,-0.03 0.282,0.025 0.47,0.117 0.474,0.001 1.14,0.05 1.351,0.261 0.214,0.214 0.583,0.49 0.797,0.597 0.215,0.092 0.583,0.583 0.645,0.797 0.045,0.215 0.429,0.629 0.582,0.629 0,0 -0.582,0.061 -1.226,-0.107 -0.048,-0.012 -0.1,-0.027 -0.151,-0.04 0.32,0.583 0.243,1.635 0.106,1.543 -0.078,-0.05 -0.246,-0.145 -0.418,-0.24 0.207,0.328 0.347,0.547 0.396,0.622 0.055,-0.036 0.118,-0.061 0.19,-0.061 0.199,0 0.353,0.153 0.353,0.352 0,0.2 -0.154,0.353 -0.353,0.353 -0.199,0 -0.353,-0.153 -0.353,-0.353 0,-0.125 0.065,-0.227 0.16,-0.289 -0.169,-0.211 -0.348,-0.449 -0.533,-0.7 -0.149,-0.08 -0.284,-0.149 -0.347,-0.174 -0.074,-0.02 -0.174,-0.056 -0.272,-0.107 -0.098,0.384 -0.203,0.858 -0.203,0.858 0,0 -0.384,-0.368 -0.644,-0.644 -0.276,-0.26 -0.322,-0.475 -0.43,-0.797 -0.107,-0.321 -0.322,-0.537 -0.429,-0.797 -0.107,-0.26 0,-0.797 0.061,-1.119 0.034,-0.234 0.056,-0.454 0.067,-0.558 -0.212,-0.351 -0.419,-0.703 -0.62,-1.053 -0.339,-0.169 -0.952,-0.635 -1.349,-1.03 -0.152,0.355 -0.552,1.26 -0.552,1.26 0.062,-0.321 -0.751,-1.44 -0.797,-1.701 -0.061,-0.275 -0.153,-0.582 -0.153,-1.011 0,-0.43 0.046,-0.797 0.367,-1.073 0.222,-0.179 0.311,-0.722 0.39,-0.971 -0.179,-0.777 -0.336,-1.64 -0.457,-2.588 -0.015,0.086 -0.04,0.198 -0.085,0.355 -0.122,0.444 -0.459,0.582 -0.49,0.812 -0.046,0.215 -0.322,0.26 -0.598,0.812 -0.169,0.292 -0.476,0.767 -0.476,0.767 0,0 -0.353,-0.751 -0.583,-1.318 -0.057,-0.151 -0.077,-0.307 -0.077,-0.461 -0.072,0.056 -0.136,0.117 -0.182,0.187 -0.169,0.26 -0.675,0.521 -0.675,0.521 -0.107,-0.184 -0.153,-1.334 -0.184,-1.64 -0.046,-0.307 0.169,-0.996 0.26,-1.195 0.108,-0.185 0.23,-0.491 0.46,-0.92 0.23,-0.444 1.874,-1.007 2.011,-1.231 0,0 0.21,-0.229 0.369,-0.355 -0.002,-0.147 -0.006,-0.289 -0.006,-0.439 0,-0.855 0.15,-1.854 0.352,-2.823 -0.053,0.078 -0.103,0.151 -0.136,0.217 -0.107,0.215 -0.107,0.169 -0.26,0.797 -0.168,0.644 -0.598,0.644 -0.705,0.858 -0.108,0.216 -0.69,0.43 -1.012,0.584 -0.307,0.153 -0.522,0.797 -0.522,0.797 0,0 0,-1.058 -0.061,-1.702 -0.02,-0.276 0.039,-0.499 0.127,-0.679 -0.185,0.048 -0.368,0.101 -0.497,0.206 -0.26,0.215 -0.858,0.322 -0.858,0.322 -0.046,-0.214 0.276,-1.394 0.322,-1.701 0.061,-0.322 0.475,-0.966 0.644,-1.119 0.153,-0.168 0.368,-0.429 0.736,-0.797 0.383,-0.383 1.345,-0.46 2.408,-0.812 0.406,-0.135 0.632,-0.387 0.748,-0.565 0.039,-0.136 0.073,-0.256 0.094,-0.343 0.119,-0.465 0.276,-1.031 0.46,-1.642 -0.297,0.399 -0.812,0.493 -1.408,0.585 -0.369,0.062 -1.81,0.43 -1.81,0.43 0.344,-0.253 0.555,-0.959 0.768,-1.596 -0.829,0.17 -1.673,0.002 -1.673,0.002 0.153,-0.107 1.273,-1.073 1.426,-1.61 0.168,-0.52 0.751,-1.486 0.905,-1.593 0.169,-0.108 0.644,-0.69 0.966,-1.012 0.322,-0.322 1.595,-0.154 2.024,-0.154 0.27,0 0.702,-0.217 0.975,-0.31 0.272,-0.371 0.739,-0.857 1.353,-1.411 -0.35,0.124 -0.965,0.518 -1.176,0.771 -0.208,0.282 0.03,-0.944 0.269,-1.341 -0.347,0.032 -0.719,0.105 -0.93,0.267 -0.352,0.277 -0.046,-0.965 0.338,-1.318 0.825,-0.735 0.749,-0.851 0.881,-0.901 -0.695,-0.14 -1.662,-0.376 -1.956,-0.202 -0.384,0.215 0.429,-0.536 0.92,-0.72 0.705,-0.261 0.614,-0.721 1.38,-0.966 0.813,-0.261 1.672,-0.582 2.147,-0.491 0.368,0.077 0.644,0.246 1.165,0.292 0.465,0.057 1.254,0.675 2.152,0.788 0.863,-0.528 1.743,-1.02 2.602,-1.433 0.037,-0.018 0.086,-0.04 0.137,-0.063 -0.093,-0.008 -0.191,-0.02 -0.303,-0.043 -0.322,-0.077 -1.641,-0.368 -1.964,-0.214 -0.291,0.152 0.333,-0.707 0.727,-1.031 -0.627,-0.119 -1.5,-0.21 -1.8,-0.135 -0.429,0.092 0.859,-1.149 1.365,-1.287 0.021,-0.006 0.038,-0.011 0.059,-0.017 -0.414,-0.135 -0.79,-0.234 -0.978,-0.223 -0.444,0.031 1.411,-1.18 1.917,-1.103 1.626,0.23 3.159,-0.322 3.911,-0.015 0.674,0.26 1.073,0.444 1.41,0.552 0.338,0.122 0.522,0.429 0.736,0.582 0.162,0.127 0.281,0.392 0.838,0.659 0.018,-0.033 0.029,-0.049 0.029,-0.049 0,0 1.023,-0.06 1.713,0.001 -0.193,-0.076 -0.431,-0.204 -0.7,-0.42 -0.838,-0.262 -1.514,-0.49 -1.727,-0.597 -0.645,-0.321 -2.286,-1.762 -2.715,-2.237 0,0 1.38,0.107 1.595,0.107 0.215,0 0.69,0.951 0.905,1.119 0.062,0.044 0.412,0.224 0.928,0.464 -0.945,-1.518 0.431,-2.758 0.431,-2.758 -0.368,0.429 0.046,1.18 0.046,1.18 l 0.751,-0.475 c -0.943,1.614 0.516,2.692 1,2.992 0.051,0.02 0.101,0.039 0.152,0.058 0.152,-0.198 0.36,-0.324 0.595,-0.324 0.224,0 0.425,0.118 0.575,0.302 0.097,-0.037 0.192,-0.074 0.288,-0.111 0.562,-0.38 1.76,-1.417 0.884,-2.917 l 0.751,0.475 c 0,0 0.414,-0.751 0.046,-1.18 0,0 1.345,1.212 0.464,2.705 0.453,-0.213 0.758,-0.37 0.815,-0.411 0.215,-0.168 0.69,-1.119 0.905,-1.119 0.215,0 1.595,-0.107 1.595,-0.107 -0.429,0.475 -2.07,1.916 -2.715,2.237 -0.202,0.102 -0.82,0.312 -1.601,0.558 -0.287,0.238 -0.542,0.379 -0.746,0.459 0.69,-0.061 1.713,-0.001 1.713,-0.001 0,0 0.004,0.007 0.01,0.017 0.501,-0.256 0.622,-0.505 0.777,-0.627 0.214,-0.153 0.398,-0.46 0.736,-0.582 0.337,-0.108 0.736,-0.292 1.41,-0.552 0.752,-0.307 2.285,0.245 3.911,0.015 0.506,-0.077 2.362,1.134 1.917,1.103 -0.188,-0.011 -0.564,0.088 -0.978,0.223 0.021,0.006 0.038,0.011 0.059,0.017 0.506,0.138 1.795,1.379 1.365,1.287 -0.3,-0.075 -1.173,0.016 -1.8,0.135 0.394,0.324 1.018,1.183 0.727,1.031 -0.323,-0.154 -1.642,0.137 -1.963,0.214 -0.112,0.023 -0.211,0.035 -0.304,0.043 0.051,0.023 0.1,0.045 0.137,0.063 0.859,0.413 1.74,0.905 2.602,1.433 0.898,-0.113 1.687,-0.731 2.152,-0.788 0.521,-0.046 0.797,-0.215 1.165,-0.292 0.475,-0.091 1.334,0.23 2.147,0.491 0.767,0.245 0.675,0.705 1.38,0.966 0.491,0.184 1.304,0.935 0.92,0.72 -0.294,-0.174 -1.261,0.062 -1.956,0.202 0.132,0.05 0.056,0.166 0.881,0.901 0.384,0.353 0.69,1.595 0.338,1.318 C 2.721,-0.221 2.349,-0.294 2.002,-0.326 2.241,0.071 2.479,1.297 2.271,1.015 2.06,0.762 1.445,0.368 1.095,0.244 c 0.614,0.554 1.081,1.04 1.353,1.411 0.273,0.093 0.705,0.31 0.975,0.31 0.43,0 1.702,-0.168 2.024,0.154 0.322,0.322 0.797,0.904 0.966,1.012 0.154,0.107 0.737,1.073 0.905,1.593 0.154,0.537 1.273,1.503 1.426,1.61 0,0 -0.843,0.168 -1.673,-0.002 0.213,0.637 0.424,1.343 0.768,1.596 0,0 -1.441,-0.368 -1.809,-0.43 C 5.433,7.406 4.918,7.312 4.621,6.913 c 0.184,0.611 0.341,1.177 0.46,1.642 0.021,0.087 0.055,0.207 0.094,0.343 0.117,0.178 0.342,0.43 0.748,0.565 1.063,0.352 2.025,0.429 2.408,0.812 0.368,0.368 0.583,0.629 0.736,0.797 0.169,0.153 0.583,0.797 0.644,1.119 0.046,0.307 0.368,1.487 0.322,1.701"
           style="fill:#d1d2d2;fill-opacity:1;fill-rule:nonzero;stroke:none"
           id="path2136" /></g><g
         id="g2138"
         transform="translate(552.56684,475.30632)"><path
           d="m 0,0 c -0.184,0 -0.322,-0.138 -0.322,-0.306 0,-0.185 0.138,-0.323 0.322,-0.323 0.169,0 0.322,0.138 0.322,0.323 C 0.322,-0.138 0.169,0 0,0"
           style="fill:#d1d2d2;fill-opacity:1;fill-rule:nonzero;stroke:none"
           id="path2140" /></g><g
         id="g2142"
         transform="translate(554.37634,473.08562)"><path
           d="m 0,0 c -0.184,0 -0.322,-0.154 -0.322,-0.322 0,-0.184 0.138,-0.322 0.322,-0.322 0.169,0 0.322,0.138 0.322,0.322 C 0.322,-0.154 0.169,0 0,0"
           style="fill:#d1d2d2;fill-opacity:1;fill-rule:nonzero;stroke:none"
           id="path2144" /></g><g
         id="g2146"
         transform="translate(558.57904,480.10502)"><path
           d="m 0,0 c -0.169,0 -0.322,-0.138 -0.322,-0.322 0,-0.169 0.153,-0.322 0.322,-0.322 0.184,0 0.322,0.153 0.322,0.322 C 0.322,-0.138 0.184,0 0,0"
           style="fill:#d1d2d2;fill-opacity:1;fill-rule:nonzero;stroke:none"
           id="path2148" /></g><g
         id="g2150"
         transform="translate(560.83454,478.51042)"><path
           d="m 0,0 c 0,-0.199 0.169,-0.353 0.353,-0.353 0.199,0 0.352,0.154 0.352,0.353 0,0.184 -0.153,0.352 -0.352,0.352 C 0.169,0.352 0,0.184 0,0"
           style="fill:#d1d2d2;fill-opacity:1;fill-rule:nonzero;stroke:none"
           id="path2152" /></g><g
         id="g2154"
         transform="translate(561.66084,486.03542)"><path
           d="M 0,0 C 0.2,0 0.353,0.152 0.353,0.352 0.353,0.536 0.199,0.705 0,0.705 -0.184,0.705 -0.352,0.536 -0.352,0.352 -0.352,0.153 -0.184,0 0,0"
           style="fill:#d1d2d2;fill-opacity:1;fill-rule:nonzero;stroke:none"
           id="path2156" /></g><g
         id="g2158"
         transform="translate(562.73544,493.11692)"><path
           d="m 0,0 c -0.2,0 -0.353,-0.153 -0.353,-0.353 0,-0.183 0.153,-0.352 0.353,-0.352 0.199,0 0.353,0.168 0.353,0.352 C 0.353,-0.153 0.199,0 0,0"
           style="fill:#d1d2d2;fill-opacity:1;fill-rule:nonzero;stroke:none"
           id="path2160" /></g><g
         id="g2162"
         transform="translate(564.69684,498.86592)"><path
           d="M 0,0 C 0.2,0 0.353,0.153 0.353,0.337 0.353,0.536 0.2,0.689 0,0.689 -0.184,0.689 -0.353,0.536 -0.353,0.337 -0.353,0.153 -0.184,0 0,0"
           style="fill:#d1d2d2;fill-opacity:1;fill-rule:nonzero;stroke:none"
           id="path2164" /></g><g
         id="g2166"
         transform="translate(562.19804,498.22312)"><path
           d="M 0,0 C 0.2,0 0.353,0.153 0.353,0.352 0.353,0.536 0.2,0.705 0,0.705 -0.199,0.705 -0.353,0.536 -0.353,0.352 -0.353,0.153 -0.199,0 0,0"
           style="fill:#d1d2d2;fill-opacity:1;fill-rule:nonzero;stroke:none"
           id="path2168" /></g><g
         id="g2170"
         transform="translate(560.09794,503.95202)"><path
           d="m 0,0 c 0,0.184 -0.153,0.337 -0.353,0.337 -0.184,0 -0.352,-0.153 -0.352,-0.337 0,-0.199 0.168,-0.352 0.352,-0.352 C -0.153,-0.352 0,-0.199 0,0"
           style="fill:#d1d2d2;fill-opacity:1;fill-rule:nonzero;stroke:none"
           id="path2172" /></g><g
         id="g2174"
         transform="translate(561.61494,505.08682)"><path
           d="M 0,0 C 0.2,0 0.353,0.154 0.353,0.353 0.353,0.536 0.199,0.705 0,0.705 -0.2,0.705 -0.353,0.536 -0.353,0.353 -0.353,0.154 -0.2,0 0,0"
           style="fill:#d1d2d2;fill-opacity:1;fill-rule:nonzero;stroke:none"
           id="path2176" /></g><g
         id="g2178"
         transform="translate(565.14284,492.70272)"><path
           d="M 0,0 C 0,-0.183 0.154,-0.337 0.353,-0.337 0.537,-0.337 0.69,-0.183 0.69,0 0.69,0.184 0.537,0.338 0.353,0.338 0.153,0.338 0,0.184 0,0"
           style="fill:#d1d2d2;fill-opacity:1;fill-rule:nonzero;stroke:none"
           id="path2180" /></g><g
         id="g2182"
         transform="translate(531.56064,475.30632)"><path
           d="m 0,0 c -0.169,0 -0.322,-0.138 -0.322,-0.306 0,-0.185 0.153,-0.323 0.322,-0.323 0.184,0 0.322,0.138 0.322,0.323 C 0.322,-0.138 0.184,0 0,0"
           style="fill:#d1d2d2;fill-opacity:1;fill-rule:nonzero;stroke:none"
           id="path2184" /></g><g
         id="g2186"
         transform="translate(530.07274,472.76352)"><path
           d="m 0,0 c 0,0.169 -0.138,0.322 -0.322,0.322 -0.169,0 -0.322,-0.153 -0.322,-0.322 0,-0.184 0.154,-0.322 0.322,-0.322 C -0.138,-0.322 0,-0.184 0,0"
           style="fill:#d1d2d2;fill-opacity:1;fill-rule:nonzero;stroke:none"
           id="path2188" /></g><g
         id="g2190"
         transform="translate(525.54854,480.10502)"><path
           d="m 0,0 c -0.184,0 -0.322,-0.138 -0.322,-0.322 0,-0.169 0.138,-0.322 0.322,-0.322 0.169,0 0.322,0.153 0.322,0.322 C 0.322,-0.138 0.169,0 0,0"
           style="fill:#d1d2d2;fill-opacity:1;fill-rule:nonzero;stroke:none"
           id="path2192" /></g><g
         id="g2194"
         transform="translate(522.94024,478.15742)"><path
           d="M 0,0 C 0.184,0 0.353,0.154 0.353,0.353 0.353,0.536 0.184,0.705 0,0.705 -0.2,0.705 -0.353,0.536 -0.353,0.353 -0.353,0.154 -0.2,0 0,0"
           style="fill:#d1d2d2;fill-opacity:1;fill-rule:nonzero;stroke:none"
           id="path2196" /></g><g
         id="g2198"
         transform="translate(522.46674,486.74002)"><path
           d="m 0,0 c -0.199,0 -0.353,-0.168 -0.353,-0.352 0,-0.2 0.153,-0.353 0.353,-0.353 0.184,0 0.352,0.153 0.352,0.353 C 0.352,-0.168 0.184,0 0,0"
           style="fill:#d1d2d2;fill-opacity:1;fill-rule:nonzero;stroke:none"
           id="path2200" /></g><g
         id="g2202"
         transform="translate(520.62454,485.74492)"><path
           d="m 0,0 c 0,0.199 -0.153,0.352 -0.353,0.352 -0.183,0 -0.352,-0.153 -0.352,-0.352 0,-0.199 0.168,-0.353 0.352,-0.353 C -0.153,-0.353 0,-0.199 0,0"
           style="fill:#d1d2d2;fill-opacity:1;fill-rule:nonzero;stroke:none"
           id="path2204" /></g><g
         id="g2206"
         transform="translate(521.39214,492.41162)"><path
           d="M 0,0 C 0.2,0 0.353,0.169 0.353,0.353 0.353,0.552 0.2,0.705 0,0.705 -0.199,0.705 -0.353,0.552 -0.353,0.353 -0.353,0.169 -0.199,0 0,0"
           style="fill:#d1d2d2;fill-opacity:1;fill-rule:nonzero;stroke:none"
           id="path2208" /></g><g
         id="g2210"
         transform="translate(519.43064,498.86592)"><path
           d="M 0,0 C 0.184,0 0.353,0.153 0.353,0.337 0.353,0.536 0.184,0.689 0,0.689 -0.2,0.689 -0.353,0.536 -0.353,0.337 -0.353,0.153 -0.2,0 0,0"
           style="fill:#d1d2d2;fill-opacity:1;fill-rule:nonzero;stroke:none"
           id="path2212" /></g><g
         id="g2214"
         transform="translate(521.92954,498.92772)"><path
           d="m 0,0 c -0.2,0 -0.353,-0.168 -0.353,-0.352 0,-0.199 0.153,-0.353 0.353,-0.353 0.199,0 0.353,0.153 0.353,0.353 C 0.353,-0.168 0.199,0 0,0"
           style="fill:#d1d2d2;fill-opacity:1;fill-rule:nonzero;stroke:none"
           id="path2216" /></g><g
         id="g2218"
         transform="translate(524.02974,503.95202)"><path
           d="m 0,0 c 0,-0.199 0.153,-0.352 0.352,-0.352 0.185,0 0.353,0.153 0.353,0.352 0,0.184 -0.168,0.337 -0.353,0.337 C 0.153,0.337 0,0.184 0,0"
           style="fill:#d1d2d2;fill-opacity:1;fill-rule:nonzero;stroke:none"
           id="path2220" /></g><g
         id="g2222"
         transform="translate(522.51254,505.08682)"><path
           d="M 0,0 C 0.2,0 0.353,0.154 0.353,0.353 0.353,0.536 0.2,0.705 0,0.705 -0.199,0.705 -0.353,0.536 -0.353,0.353 -0.353,0.154 -0.2,0 0,0"
           style="fill:#d1d2d2;fill-opacity:1;fill-rule:nonzero;stroke:none"
           id="path2224" /></g><g
         id="g2226"
         transform="translate(518.98474,492.70272)"><path
           d="M 0,0 C 0,0.184 -0.153,0.338 -0.353,0.338 -0.537,0.338 -0.69,0.184 -0.69,0 c 0,-0.183 0.153,-0.337 0.337,-0.337 C -0.154,-0.337 0,-0.183 0,0"
           style="fill:#d1d2d2;fill-opacity:1;fill-rule:nonzero;stroke:none"
           id="path2228" /></g><g
         id="g2230"
         transform="translate(537.91624,497.63832)"><path
           d="M 0,0 C 0.153,0.031 0.2,-0.015 0.261,-0.153 L 0.353,-0.122 0.261,0.092 0.874,0.352 0.812,0.475 -0.046,0.092 Z"
           style="fill:#d1d2d2;fill-opacity:1;fill-rule:nonzero;stroke:none"
           id="path2232" /></g><g
         id="g2234"
         transform="translate(537.71574,498.74252)"><path
           d="m 0,0 -0.122,-0.015 0.107,-0.475 0.521,0.046 -0.015,0.092 c -0.077,0.03 -0.123,0.091 -0.138,0.153 -0.016,0.107 0.03,0.214 0.153,0.245 0.123,0.03 0.23,-0.015 0.26,-0.138 0.031,-0.107 0,-0.2 -0.107,-0.23 l 0.03,-0.122 c 0.2,0.076 0.216,0.229 0.185,0.352 C 0.797,0.199 0.567,0.199 0.475,0.169 0.275,0.122 0.214,-0.046 0.245,-0.199 0.26,-0.276 0.306,-0.337 0.352,-0.368 l -0.26,-0.015 z"
           style="fill:#d1d2d2;fill-opacity:1;fill-rule:nonzero;stroke:none"
           id="path2236" /></g><g
         id="g2238"
         transform="translate(537.76264,499.50912)"><path
           d="M 0,0 C 0.169,-0.015 0.214,0.122 0.245,0.184 L 0.307,0.383 C 0.352,0.536 0.383,0.582 0.49,0.567 0.629,0.551 0.644,0.398 0.629,0.306 0.613,0.184 0.552,0.046 0.383,0.061 L 0.368,-0.061 c 0.092,-0.016 0.168,0 0.261,0.076 C 0.659,0.046 0.72,0.122 0.736,0.291 0.751,0.46 0.705,0.674 0.475,0.69 0.337,0.705 0.245,0.628 0.214,0.506 L 0.123,0.23 C 0.107,0.184 0.077,0.123 -0.015,0.123 c -0.138,0.015 -0.154,0.153 -0.138,0.245 0,0.107 0.061,0.215 0.214,0.215 V 0.705 C -0.046,0.705 -0.245,0.69 -0.276,0.352 -0.291,0.122 -0.153,0.015 0,0"
           style="fill:#d1d2d2;fill-opacity:1;fill-rule:nonzero;stroke:none"
           id="path2240" /></g><g
         id="g2242"
         transform="translate(538.75934,500.98062)"><path
           d="m 0,0 -0.107,0.031 -0.184,-0.552 -0.307,0.107 0.169,0.491 -0.108,0.046 -0.168,-0.506 -0.276,0.091 0.184,0.537 -0.123,0.046 -0.215,-0.674 0.92,-0.292 z"
           style="fill:#d1d2d2;fill-opacity:1;fill-rule:nonzero;stroke:none"
           id="path2244" /></g><g
         id="g2246"
         transform="translate(538.17634,501.65272)"><path
           d="M 0,0 0.143,0.221 C 0.178,0.278 0.225,0.318 0.287,0.309 0.308,0.306 0.33,0.292 0.354,0.276 0.446,0.215 0.448,0.136 0.386,0.044 L 0.265,-0.155 Z M 0.718,-0.464 0.364,-0.243 0.519,0.011 C 0.626,0.195 0.553,0.343 0.431,0.42 0.37,0.458 0.301,0.47 0.232,0.453 0.163,0.435 0.09,0.386 0.044,0.309 l -0.21,-0.364 0.807,-0.508 z"
           style="fill:#d1d2d2;fill-opacity:1;fill-rule:nonzero;stroke:none"
           id="path2248" /></g><g
         id="g2250"
         transform="translate(538.83614,502.54392)"><path
           d="M 0,0 0.614,-0.582 0.69,-0.491 0.092,0.092 0.322,0.337 0.23,0.414 -0.307,-0.154 -0.23,-0.23 Z"
           style="fill:#d1d2d2;fill-opacity:1;fill-rule:nonzero;stroke:none"
           id="path2252" /></g><g
         id="g2254"
         transform="translate(539.95554,502.40602)"><path
           d="M 0,0 -0.583,0.767 -0.675,0.69 -0.107,-0.077 Z"
           style="fill:#d1d2d2;fill-opacity:1;fill-rule:nonzero;stroke:none"
           id="path2256" /></g><g
         id="g2258"
         transform="translate(540.73774,502.86572)"><path
           d="m 0,0 -0.046,0.092 -0.522,-0.261 -0.137,0.276 0.459,0.246 -0.046,0.107 -0.475,-0.245 -0.138,0.26 0.506,0.261 -0.046,0.107 -0.629,-0.322 0.445,-0.858 z"
           style="fill:#d1d2d2;fill-opacity:1;fill-rule:nonzero;stroke:none"
           id="path2260" /></g><g
         id="g2262"
         transform="translate(540.96854,502.92692)"><path
           d="m 0,0 -0.122,0.567 c -0.016,0.016 -0.046,0.138 -0.062,0.23 L 0.261,0.061 0.384,0.092 0.476,0.935 C 0.506,0.843 0.521,0.736 0.521,0.705 L 0.644,0.154 V 0.153 L 0.767,0.168 0.568,1.119 0.384,1.073 0.292,0.214 -0.153,0.95 -0.337,0.92 -0.122,-0.015 Z"
           style="fill:#d1d2d2;fill-opacity:1;fill-rule:nonzero;stroke:none"
           id="path2264" /></g><g
         id="g2266"
         transform="translate(542.28544,503.50682)"><path
           d="M 0,0 C 0.092,0 0.199,-0.032 0.199,-0.155 0.199,-0.247 0.123,-0.309 0,-0.309 l -0.243,0.022 0.011,0.309 z M -0.21,0.42 0,0.398 C 0.138,0.398 0.188,0.357 0.188,0.265 0.172,0.158 0.112,0.128 -0.011,0.143 H -0.232 Z M 0.011,-0.42 C 0.225,-0.435 0.354,-0.319 0.354,-0.165 0.369,0.003 0.249,0.047 0.188,0.077 0.295,0.123 0.32,0.215 0.32,0.276 0.336,0.414 0.25,0.526 0.066,0.541 l -0.42,0.01 -0.044,-0.959 z"
           style="fill:#d1d2d2;fill-opacity:1;fill-rule:nonzero;stroke:none"
           id="path2268" /></g><g
         id="g2270"
         transform="translate(541.92754,504.05832)"><path
           d="M 0,0 H 0.004 V 0.001 Z"
           style="fill:#d1d2d2;fill-opacity:1;fill-rule:nonzero;stroke:none"
           id="path2272" /></g><g
         id="g2274"
         transform="translate(543.12544,503.80482)"><path
           d="M 0,0 0.276,-0.099 C 0.338,-0.115 0.432,-0.138 0.387,-0.276 0.356,-0.399 0.269,-0.39 0.177,-0.375 l -0.265,0.077 z M -0.155,-0.408 0.154,-0.497 C 0.308,-0.542 0.291,-0.63 0.276,-0.706 0.261,-0.737 0.217,-0.877 0.232,-0.938 l 0.155,-0.044 v 0.011 c -0.031,0.03 -0.027,0.049 -0.011,0.11 l 0.021,0.166 c 0.047,0.122 0.002,0.168 -0.044,0.198 0.062,0.032 0.157,0.05 0.188,0.188 0.062,0.199 -0.078,0.285 -0.232,0.331 l -0.431,0.144 -0.254,-0.939 0.122,-0.033 z"
           style="fill:#d1d2d2;fill-opacity:1;fill-rule:nonzero;stroke:none"
           id="path2276" /></g><g
         id="g2278"
         transform="translate(544.21874,502.40562)"><path
           d="M 0,0 0.046,0.092 -0.445,0.384 -0.292,0.659 0.169,0.399 0.23,0.491 -0.23,0.767 -0.077,1.012 0.414,0.721 0.476,0.828 -0.138,1.181 -0.614,0.353 Z"
           style="fill:#d1d2d2;fill-opacity:1;fill-rule:nonzero;stroke:none"
           id="path2280" /></g><g
         id="g2282"
         transform="translate(545.43294,502.32652)"><path
           d="m 0,0 c 0.107,-0.123 0.091,-0.256 -0.077,-0.408 -0.169,-0.138 -0.324,-0.134 -0.431,-0.011 l -0.144,0.165 0.508,0.431 z m -0.619,-0.53 c 0.215,-0.23 0.472,-0.126 0.641,0.011 0.215,0.169 0.268,0.419 0.099,0.618 l -0.254,0.287 -0.729,-0.607 z"
           style="fill:#d1d2d2;fill-opacity:1;fill-rule:nonzero;stroke:none"
           id="path2284" /></g><g
         id="g2286"
         transform="translate(545.46084,500.75062)"><path
           d="M 0,0 0.107,0.046 -0.153,0.567 0.138,0.705 0.367,0.23 0.475,0.292 0.23,0.751 0.506,0.889 0.751,0.383 0.859,0.429 0.536,1.058 -0.322,0.629 Z"
           style="fill:#d1d2d2;fill-opacity:1;fill-rule:nonzero;stroke:none"
           id="path2288" /></g><g
         id="g2290"
         transform="translate(546.27224,500.13662)"><path
           d="m 0,0 -0.66,-0.092 0.016,-0.122 0.935,0.138 -0.015,0.091 C 0.123,0.031 0.107,0.076 0.061,0.23 L -0.031,0.214 Z"
           style="fill:#d1d2d2;fill-opacity:1;fill-rule:nonzero;stroke:none"
           id="path2292" /></g><g
         id="g2294"
         transform="translate(546.34914,499.12452)"><path
           d="m 0,0 c -0.077,0.016 -0.143,0.085 -0.143,0.177 0,0.076 0.066,0.132 0.143,0.132 0.061,0 0.137,-0.031 0.122,-0.154 C 0.122,0.032 0.046,0 0,0 m -0.442,0 c -0.138,0 -0.154,0.111 -0.154,0.188 0,0.137 0.1,0.165 0.176,0.165 0.077,0 0.159,-0.065 0.144,-0.187 C -0.276,0.074 -0.319,0 -0.442,0 M 0,0.453 C -0.092,0.453 -0.157,0.412 -0.188,0.32 -0.219,0.427 -0.297,0.493 -0.42,0.508 -0.465,0.508 -0.549,0.512 -0.64,0.42 -0.702,0.343 -0.718,0.249 -0.718,0.188 -0.733,-0.027 -0.58,-0.133 -0.442,-0.133 -0.365,-0.147 -0.26,-0.122 -0.199,0 -0.184,-0.046 -0.134,-0.122 -0.011,-0.121 0.111,-0.137 0.243,-0.06 0.243,0.155 0.258,0.369 0.107,0.453 0,0.453"
           style="fill:#d1d2d2;fill-opacity:1;fill-rule:nonzero;stroke:none"
           id="path2296" /></g><g
         id="g2298"
         transform="translate(546.21104,498.78812)"><path
           d="M 0,0 -0.015,-0.123 C 0.046,-0.138 0.2,-0.184 0.154,-0.353 0.123,-0.49 0.015,-0.521 -0.046,-0.49 -0.169,-0.475 -0.2,-0.383 -0.23,-0.276 l -0.031,0.138 C -0.307,0 -0.384,0.107 -0.583,0.168 l -0.153,-0.628 0.107,-0.031 0.123,0.506 C -0.46,0 -0.399,-0.046 -0.368,-0.184 l 0.031,-0.107 c 0.046,-0.169 0.092,-0.292 0.245,-0.322 0.169,-0.046 0.307,0.062 0.352,0.214 C 0.276,-0.306 0.307,-0.076 0,0"
           style="fill:#d1d2d2;fill-opacity:1;fill-rule:nonzero;stroke:none"
           id="path2300" /></g><g
         id="g2302"
         transform="translate(546.02954,497.90022)"><path
           d="M 0,0 -0.092,-0.199 -0.69,0.092 -0.752,-0.031 0.107,-0.429 0.138,-0.337 C 0.015,-0.245 0.031,-0.184 0.092,-0.031 Z"
           style="fill:#d1d2d2;fill-opacity:1;fill-rule:nonzero;stroke:none"
           id="path2304" /></g><g
         id="g2306"
         transform="translate(540.89284,494.51322)"><path
           d="M 0,0 0.102,-0.022 0.807,2.885 C 0.772,2.89 0.736,2.888 0.702,2.895 L 0.006,0.025 Z"
           style="fill:#d1d2d2;fill-opacity:1;fill-rule:nonzero;stroke:none"
           id="path2308" /></g><g
         id="g2310"
         transform="translate(540.79144,495.75792)"><path
           d="M 0,0 0.099,-0.035 0.688,1.686 C 0.654,1.695 0.621,1.706 0.588,1.717 L 0.009,0.024 Z"
           style="fill:#d1d2d2;fill-opacity:1;fill-rule:nonzero;stroke:none"
           id="path2312" /></g><g
         id="g2314"
         transform="translate(539.78804,494.69782)"><path
           d="M 0,0 0.094,-0.045 1.456,2.819 C 1.423,2.832 1.391,2.845 1.36,2.86 L 0.011,0.023 Z"
           style="fill:#d1d2d2;fill-opacity:1;fill-rule:nonzero;stroke:none"
           id="path2316" /></g><g
         id="g2318"
         transform="translate(539.57324,495.17552)"><path
           d="M 0,0 1.477,2.435 C 1.446,2.451 1.415,2.467 1.385,2.485 L -0.09,0.054 Z"
           style="fill:#d1d2d2;fill-opacity:1;fill-rule:nonzero;stroke:none"
           id="path2320" /></g><g
         id="g2322"
         transform="translate(538.66314,495.13492)"><path
           d="M 0,0 -0.017,-0.021 0.066,-0.085 2.167,2.596 C 2.138,2.616 2.115,2.641 2.087,2.662 Z"
           style="fill:#d1d2d2;fill-opacity:1;fill-rule:nonzero;stroke:none"
           id="path2324" /></g><g
         id="g2326"
         transform="translate(538.80134,495.79652)"><path
           d="M 0,0 1.858,2.065 1.863,2.071 C 1.836,2.094 1.808,2.114 1.782,2.138 l -1.86,-2.069 z"
           style="fill:#d1d2d2;fill-opacity:1;fill-rule:nonzero;stroke:none"
           id="path2328" /></g><g
         id="g2330"
         transform="translate(540.49884,498.01252)"><path
           d="m 0,0 c -0.024,0.025 -0.044,0.055 -0.067,0.081 l -2.751,-2.425 0.069,-0.078 2.74,2.414 z"
           style="fill:#d1d2d2;fill-opacity:1;fill-rule:nonzero;stroke:none"
           id="path2332" /></g><g
         id="g2334"
         transform="translate(540.34674,498.19662)"><path
           d="m 0,0 v 0 c -0.022,0.028 -0.047,0.053 -0.067,0.082 l -1.454,-1.025 -0.021,-0.016 0.061,-0.085 z"
           style="fill:#d1d2d2;fill-opacity:1;fill-rule:nonzero;stroke:none"
           id="path2336" /></g><g
         id="g2338"
         transform="translate(540.21774,498.38012)"><path
           d="m 0,0 c -0.018,0.03 -0.033,0.061 -0.05,0.092 l -1.017,-0.567 0.05,-0.091 z"
           style="fill:#d1d2d2;fill-opacity:1;fill-rule:nonzero;stroke:none"
           id="path2340" /></g><g
         id="g2342"
         transform="translate(539.00244,498.19132)"><path
           d="M 0,0 0.042,-0.096 1.116,0.372 C 1.1,0.404 1.079,0.432 1.066,0.465 Z"
           style="fill:#d1d2d2;fill-opacity:1;fill-rule:nonzero;stroke:none"
           id="path2344" /></g><g
         id="g2346"
         transform="translate(538.87994,498.51432)"><path
           d="M 0,0 0.033,-0.099 1.122,0.252 1.147,0.26 1.114,0.359 Z"
           style="fill:#d1d2d2;fill-opacity:1;fill-rule:nonzero;stroke:none"
           id="path2348" /></g><g
         id="g2350"
         transform="translate(539.96404,498.98652)"><path
           d="m 0,0 c -0.008,0.034 -0.019,0.066 -0.026,0.101 l -1.143,-0.25 0.022,-0.103 z"
           style="fill:#d1d2d2;fill-opacity:1;fill-rule:nonzero;stroke:none"
           id="path2352" /></g><g
         id="g2354"
         transform="translate(538.73624,499.18312)"><path
           d="M 0,0 0.012,-0.104 1.19,0.021 C 1.186,0.056 1.183,0.091 1.18,0.126 Z"
           style="fill:#d1d2d2;fill-opacity:1;fill-rule:nonzero;stroke:none"
           id="path2356" /></g><g
         id="g2358"
         transform="translate(538.71754,499.42522)"><path
           d="M 0,0 1.186,0.012 C 1.185,0.029 1.18,0.045 1.18,0.063 c 0,0.018 0.005,0.035 0.006,0.053 L -0.001,0.104 Z"
           style="fill:#d1d2d2;fill-opacity:1;fill-rule:nonzero;stroke:none"
           id="path2360" /></g><g
         id="g2362"
         transform="translate(538.73724,499.74612)"><path
           d="m 0,0 1.156,-0.1 0.02,-0.002 c 0.003,0.035 0.007,0.07 0.011,0.104 L 0.035,0.102 0.01,0.104 Z"
           style="fill:#d1d2d2;fill-opacity:1;fill-rule:nonzero;stroke:none"
           id="path2364" /></g><g
         id="g2366"
         transform="translate(538.77054,500.11802)"><path
           d="m 0,0 1.165,-0.253 c 0.007,0.034 0.013,0.068 0.021,0.102 L 0.021,0.102 Z"
           style="fill:#d1d2d2;fill-opacity:1;fill-rule:nonzero;stroke:none"
           id="path2368" /></g><g
         id="g2370"
         transform="translate(538.86634,500.42832)"><path
           d="m 0,0 1.104,-0.363 0.015,-0.005 c 0.01,0.033 0.02,0.067 0.031,0.1 L 0.033,0.099 Z"
           style="fill:#d1d2d2;fill-opacity:1;fill-rule:nonzero;stroke:none"
           id="path2372" /></g><g
         id="g2374"
         transform="translate(539.00654,500.84632)"><path
           d="M 0,0 -0.042,-0.095 1.049,-0.56 c 0.014,0.032 0.03,0.063 0.045,0.094 L 0.023,-0.01 Z"
           style="fill:#d1d2d2;fill-opacity:1;fill-rule:nonzero;stroke:none"
           id="path2376" /></g><g
         id="g2378"
         transform="translate(539.11294,501.06142)"><path
           d="m 0,0 1.038,-0.563 0.01,-0.006 c 0.017,0.031 0.032,0.062 0.05,0.092 L 0.05,0.092 Z"
           style="fill:#d1d2d2;fill-opacity:1;fill-rule:nonzero;stroke:none"
           id="path2380" /></g><g
         id="g2382"
         transform="translate(539.31204,501.34852)"><path
           d="m 0,0 0.947,-0.675 c 0.02,0.029 0.046,0.053 0.067,0.081 l -0.952,0.68 z"
           style="fill:#d1d2d2;fill-opacity:1;fill-rule:nonzero;stroke:none"
           id="path2384" /></g><g
         id="g2386"
         transform="translate(539.60704,501.70332)"><path
           d="m 0,0 -0.068,-0.08 0.87,-0.752 0.008,-0.007 c 0.022,0.027 0.042,0.055 0.066,0.081 L 0.02,-0.017 Z"
           style="fill:#d1d2d2;fill-opacity:1;fill-rule:nonzero;stroke:none"
           id="path2388" /></g><g
         id="g2390"
         transform="translate(539.85264,501.93932)"><path
           d="M 0,0 -0.076,-0.072 0.72,-0.907 c 0.025,0.024 0.053,0.044 0.08,0.067 l -0.782,0.822 z"
           style="fill:#d1d2d2;fill-opacity:1;fill-rule:nonzero;stroke:none"
           id="path2392" /></g><g
         id="g2394"
         transform="translate(540.11834,502.15262)"><path
           d="m 0,0 -0.082,-0.066 0.72,-0.902 c 0.028,0.021 0.052,0.047 0.081,0.066 L 0.016,-0.02 Z"
           style="fill:#d1d2d2;fill-opacity:1;fill-rule:nonzero;stroke:none"
           id="path2396" /></g><g
         id="g2398"
         transform="translate(540.44964,502.34312)"><path
           d="m 0,0 -0.09,-0.052 0.569,-0.981 0.004,-0.008 c 0.03,0.018 0.061,0.033 0.092,0.05 l -0.562,0.969 z"
           style="fill:#d1d2d2;fill-opacity:1;fill-rule:nonzero;stroke:none"
           id="path2400" /></g><g
         id="g2402"
         transform="translate(540.74564,502.47582)"><path
           d="M 0,0 -0.095,-0.044 0.38,-1.069 c 0.032,0.015 0.062,0.032 0.095,0.046 l -0.464,1 z"
           style="fill:#d1d2d2;fill-opacity:1;fill-rule:nonzero;stroke:none"
           id="path2404" /></g><g
         id="g2406"
         transform="translate(541.07984,502.59382)"><path
           d="M 0,0 -0.098,-0.034 0.275,-1.1 c 0.033,0.011 0.066,0.022 0.099,0.031 l -0.366,1.045 z"
           style="fill:#d1d2d2;fill-opacity:1;fill-rule:nonzero;stroke:none"
           id="path2408" /></g><g
         id="g2410"
         transform="translate(541.42734,502.69942)"><path
           d="m 0,0 -0.102,-0.021 0.232,-1.12 v -10e-4 c 0.034,0.007 0.068,0.011 0.103,0.017 l -0.228,1.1 z"
           style="fill:#d1d2d2;fill-opacity:1;fill-rule:nonzero;stroke:none"
           id="path2412" /></g><g
         id="g2414"
         transform="translate(541.79644,501.58852)"><path
           d="M 0,0 C 0.035,0.004 0.069,0.008 0.104,0.01 L -0.01,1.153 -0.113,1.145 Z"
           style="fill:#d1d2d2;fill-opacity:1;fill-rule:nonzero;stroke:none"
           id="path2416" /></g><g
         id="g2418"
         transform="translate(542.09694,502.75232)"><path
           d="m 0,0 -0.105,-0.001 0.012,-1.142 c 0.006,0 0.011,0.002 0.017,0.002 0.03,0 0.058,-0.008 0.088,-0.009 L 0,-0.025 Z"
           style="fill:#d1d2d2;fill-opacity:1;fill-rule:nonzero;stroke:none"
           id="path2420" /></g><g
         id="g2422"
         transform="translate(542.21494,501.60602)"><path
           d="M 0,0 -0.001,-0.014 C 0.033,-0.017 0.068,-0.02 0.102,-0.025 l 0.111,1.154 -0.104,0.01 z"
           style="fill:#d1d2d2;fill-opacity:1;fill-rule:nonzero;stroke:none"
           id="path2424" /></g><g
         id="g2426"
         transform="translate(542.52204,501.54532)"><path
           d="M 0,0 0.022,-0.004 0.25,1.135 0.147,1.155 -0.078,0.023 C -0.051,0.018 -0.027,0.006 0,0"
           style="fill:#d1d2d2;fill-opacity:1;fill-rule:nonzero;stroke:none"
           id="path2428" /></g><g
         id="g2430"
         transform="translate(543.10284,502.56272)"><path
           d="m 0,0 -0.099,0.034 -0.36,-1.065 -0.008,-0.022 c 0.033,-0.01 0.067,-0.019 0.1,-0.031 l 0.358,1.06 z"
           style="fill:#d1d2d2;fill-opacity:1;fill-rule:nonzero;stroke:none"
           id="path2432" /></g><g
         id="g2434"
         transform="translate(543.42104,502.43672)"><path
           d="m 0,0 -0.096,0.043 -0.46,-1.028 -0.006,-0.014 c 0.033,-0.014 0.061,-0.035 0.093,-0.05 l 0.458,1.025 z"
           style="fill:#d1d2d2;fill-opacity:1;fill-rule:nonzero;stroke:none"
           id="path2436" /></g><g
         id="g2438"
         transform="translate(543.60964,502.34742)"><path
           d="M 0,0 -0.548,-0.977 -0.56,-1 l 0.091,-0.051 0.56,1 z"
           style="fill:#d1d2d2;fill-opacity:1;fill-rule:nonzero;stroke:none"
           id="path2440" /></g><g
         id="g2442"
         transform="translate(543.22744,501.24752)"><path
           d="m 0,0 -0.007,-0.009 c 0.029,-0.02 0.053,-0.046 0.081,-0.067 l 0.695,0.901 0.016,0.02 -0.084,0.064 z"
           style="fill:#d1d2d2;fill-opacity:1;fill-rule:nonzero;stroke:none"
           id="path2444" /></g><g
         id="g2446"
         transform="translate(543.40394,501.09642)"><path
           d="m 0,0 0.077,-0.071 0.764,0.83 0.017,0.02 -0.077,0.07 z"
           style="fill:#d1d2d2;fill-opacity:1;fill-rule:nonzero;stroke:none"
           id="path2448" /></g><g
         id="g2450"
         transform="translate(543.56424,500.94312)"><path
           d="M 0,0 0.07,-0.078 0.925,0.688 0.856,0.765 Z"
           style="fill:#d1d2d2;fill-opacity:1;fill-rule:nonzero;stroke:none"
           id="path2452" /></g><g
         id="g2454"
         transform="translate(543.73364,500.76772)"><path
           d="M 0,0 -0.018,-0.013 C 0.003,-0.041 0.029,-0.065 0.048,-0.094 L 0.952,0.575 0.973,0.59 0.912,0.675 Z"
           style="fill:#d1d2d2;fill-opacity:1;fill-rule:nonzero;stroke:none"
           id="path2456" /></g><g
         id="g2458"
         transform="translate(543.84864,500.60082)"><path
           d="m 0,0 -0.021,-0.012 c 0.018,-0.029 0.034,-0.061 0.05,-0.092 L 1.027,0.458 1.05,0.47 0.998,0.562 Z"
           style="fill:#d1d2d2;fill-opacity:1;fill-rule:nonzero;stroke:none"
           id="path2460" /></g><g
         id="g2462"
         transform="translate(543.95054,500.39532)"><path
           d="M 0,0 -0.014,-0.006 C 0.001,-0.038 0.019,-0.067 0.032,-0.1 l 1.035,0.456 0.024,0.01 -0.043,0.095 z"
           style="fill:#d1d2d2;fill-opacity:1;fill-rule:nonzero;stroke:none"
           id="path2464" /></g><g
         id="g2466"
         transform="translate(544.02114,500.17212)"><path
           d="M 0,0 C 0.011,-0.033 0.021,-0.067 0.031,-0.1 L 1.091,0.261 1.115,0.269 1.08,0.368 Z"
           style="fill:#d1d2d2;fill-opacity:1;fill-rule:nonzero;stroke:none"
           id="path2468" /></g><g
         id="g2470"
         transform="translate(544.08044,499.98102)"><path
           d="M 0,0 C 0.008,-0.034 0.017,-0.067 0.024,-0.101 L 1.149,0.152 1.125,0.253 Z"
           style="fill:#d1d2d2;fill-opacity:1;fill-rule:nonzero;stroke:none"
           id="path2472" /></g><g
         id="g2474"
         transform="translate(544.11594,499.76362)"><path
           d="m 0,0 c 0.004,-0.034 0.008,-0.069 0.01,-0.104 l 1.108,0.1 0.027,0.002 -0.011,0.104 z"
           style="fill:#d1d2d2;fill-opacity:1;fill-rule:nonzero;stroke:none"
           id="path2476" /></g><g
         id="g2478"
         transform="translate(544.14374,499.48832)"><path
           d="M 0,0 C 0,-0.012 -0.003,-0.023 -0.003,-0.034 L 1.134,-0.046 1.136,0.058 -0.007,0.07 C -0.006,0.046 0,0.024 0,0"
           style="fill:#d1d2d2;fill-opacity:1;fill-rule:nonzero;stroke:none"
           id="path2480" /></g><g
         id="g2482"
         transform="translate(544.10524,499.10662)"><path
           d="m 0,0 c -0.006,-0.035 -0.014,-0.069 -0.022,-0.103 l 1.097,-0.25 0.024,0.103 z"
           style="fill:#d1d2d2;fill-opacity:1;fill-rule:nonzero;stroke:none"
           id="path2484" /></g><g
         id="g2486"
         transform="translate(545.24934,499.09842)"><path
           d="M 0,0 0.011,0.103 -1.122,0.227 C -1.123,0.22 -1.124,0.212 -1.124,0.204 -1.127,0.177 -1.129,0.15 -1.133,0.124 l 1.106,-0.121 z"
           style="fill:#d1d2d2;fill-opacity:1;fill-rule:nonzero;stroke:none"
           id="path2488" /></g><g
         id="g2490"
         transform="translate(545.09004,498.43642)"><path
           d="M 0,0 0.034,0.099 -1.017,0.449 -1.041,0.457 -1.044,0.448 C -1.053,0.418 -1.062,0.387 -1.072,0.357 l 1.047,-0.349 z"
           style="fill:#d1d2d2;fill-opacity:1;fill-rule:nonzero;stroke:none"
           id="path2492" /></g><g
         id="g2494"
         transform="translate(543.98094,498.67532)"><path
           d="m 0,0 c -0.013,-0.033 -0.033,-0.062 -0.048,-0.093 l 1.005,-0.453 0.024,-0.011 0.044,0.095 z"
           style="fill:#d1d2d2;fill-opacity:1;fill-rule:nonzero;stroke:none"
           id="path2496" /></g><g
         id="g2498"
         transform="translate(543.83504,498.40072)"><path
           d="M 0,0 0.952,-0.55 0.975,-0.563 1.027,-0.472 0.05,0.092 C 0.033,0.061 0.018,0.03 0,0"
           style="fill:#d1d2d2;fill-opacity:1;fill-rule:nonzero;stroke:none"
           id="path2500" /></g><g
         id="g2502"
         transform="translate(543.71234,498.21802)"><path
           d="M 0,0 1.421,-1.038 1.482,-0.953 0.066,0.08 C 0.047,0.052 0.021,0.028 0,0"
           style="fill:#d1d2d2;fill-opacity:1;fill-rule:nonzero;stroke:none"
           id="path2504" /></g><g
         id="g2506"
         transform="translate(543.62834,498.11612)"><path
           d="m 0,0 c -0.023,-0.026 -0.042,-0.055 -0.066,-0.08 l 2.624,-2.395 0.019,-0.017 0.071,0.078 -2.636,2.403 z"
           style="fill:#d1d2d2;fill-opacity:1;fill-rule:nonzero;stroke:none"
           id="path2508" /></g><g
         id="g2510"
         transform="translate(543.40464,497.89042)"><path
           d="M 0,0 1.789,-2.059 1.868,-1.993 0.082,0.065 0.081,0.067 C 0.062,0.049 0.042,0.034 0.022,0.018 0.015,0.012 0.007,0.006 0,0"
           style="fill:#d1d2d2;fill-opacity:1;fill-rule:nonzero;stroke:none"
           id="path2512" /></g><g
         id="g2514"
         transform="translate(543.24194,497.75622)"><path
           d="M 0,0 2.022,-2.67 2.105,-2.607 0.082,0.067 C 0.054,0.046 0.029,0.02 0,0"
           style="fill:#d1d2d2;fill-opacity:1;fill-rule:nonzero;stroke:none"
           id="path2516" /></g><g
         id="g2518"
         transform="translate(543.03414,497.63372)"><path
           d="M 0,0 1.405,-2.399 1.419,-2.422 1.509,-2.369 0.091,0.05 C 0.062,0.032 0.03,0.017 0,0"
           style="fill:#d1d2d2;fill-opacity:1;fill-rule:nonzero;stroke:none"
           id="path2520" /></g><g
         id="g2522"
         transform="translate(542.84944,497.53352)"><path
           d="M 0,0 1.295,-2.819 1.305,-2.842 1.401,-2.799 0.092,0.05 C 0.061,0.035 0.032,0.014 0,0"
           style="fill:#d1d2d2;fill-opacity:1;fill-rule:nonzero;stroke:none"
           id="path2524" /></g><g
         id="g2526"
         transform="translate(542.62204,497.46232)"><path
           d="M 0,0 0.556,-1.681 0.565,-1.705 0.664,-1.672 0.1,0.031 C 0.067,0.02 0.034,0.01 0,0"
           style="fill:#d1d2d2;fill-opacity:1;fill-rule:nonzero;stroke:none"
           id="path2528" /></g><g
         id="g2530"
         transform="translate(542.41194,497.40482)"><path
           d="M 0,0 0.674,-2.877 0.776,-2.853 0.102,0.024 C 0.068,0.016 0.035,0.007 0,0"
           style="fill:#d1d2d2;fill-opacity:1;fill-rule:nonzero;stroke:none"
           id="path2532" /></g><g
         id="g2534"
         transform="translate(532.29594,478.29212)"><path
           d="m 0,0 c 0,0 -0.327,-0.377 -0.145,-0.697 0,0 0.326,-0.414 0.815,0 0,0 -0.788,-0.012 -0.67,0.697"
           style="fill:#d1d2d2;fill-opacity:1;fill-rule:nonzero;stroke:none"
           id="path2536" /></g><g
         id="g2538"
         transform="translate(551.15104,477.59542)"><path
           d="M 0,0 C 0.489,-0.414 0.816,0 0.816,0 0.998,0.32 0.67,0.697 0.67,0.697 0.789,-0.012 0,0 0,0"
           style="fill:#d1d2d2;fill-opacity:1;fill-rule:nonzero;stroke:none"
           id="path2540" /></g><g
         id="g2542"
         transform="translate(535.25444,478.69352)"><path
           d="m 0,0 -0.17,0.101 -0.421,-0.711 0.17,-0.101 c 0.212,-0.125 0.425,-0.082 0.562,0.15 C 0.277,-0.331 0.21,-0.125 0,0"
           style="fill:#d1d2d2;fill-opacity:1;fill-rule:nonzero;stroke:none"
           id="path2544" /></g><g
         id="g2546"
         transform="translate(536.63454,477.97222)"><path
           d="M 0,0 C -0.202,0.095 -0.443,0.01 -0.545,-0.206 -0.65,-0.429 -0.565,-0.674 -0.363,-0.77 -0.161,-0.865 0.081,-0.773 0.186,-0.551 0.288,-0.335 0.202,-0.095 0,0"
           style="fill:#d1d2d2;fill-opacity:1;fill-rule:nonzero;stroke:none"
           id="path2548" /></g><g
         id="g2550"
         transform="translate(541.41814,476.73512)"><path
           d="m 0,0 c -0.222,0.011 -0.412,-0.159 -0.425,-0.396 -0.012,-0.246 0.159,-0.441 0.382,-0.452 0.222,-0.011 0.411,0.165 0.423,0.411 C 0.392,-0.2 0.222,-0.011 0,0"
           style="fill:#d1d2d2;fill-opacity:1;fill-rule:nonzero;stroke:none"
           id="path2552" /></g><g
         id="g2554"
         transform="translate(545.30874,476.67882)"><path
           d="m 0,0 -0.237,-0.062 0.095,-0.361 0.238,0.063 C 0.21,-0.331 0.258,-0.241 0.23,-0.133 0.202,-0.025 0.11,0.029 0,0"
           style="fill:#d1d2d2;fill-opacity:1;fill-rule:nonzero;stroke:none"
           id="path2556" /></g><g
         id="g2558"
         transform="translate(545.37484,476.99882)"><path
           d="m 0,0 c -0.025,0.093 -0.098,0.141 -0.2,0.114 l -0.218,-0.058 0.083,-0.315 0.222,0.058 C -0.018,-0.176 0.024,-0.093 0,0"
           style="fill:#d1d2d2;fill-opacity:1;fill-rule:nonzero;stroke:none"
           id="path2560" /></g><g
         id="g2562"
         transform="translate(546.88194,477.65832)"><path
           d="m 0,0 c -0.033,0.004 -0.07,-0.001 -0.148,-0.033 l -0.164,-0.065 0.146,-0.363 0.203,0.082 c 0.111,0.044 0.151,0.142 0.106,0.255 C 0.113,-0.049 0.063,-0.008 0,0"
           style="fill:#d1d2d2;fill-opacity:1;fill-rule:nonzero;stroke:none"
           id="path2564" /></g><g
         id="g2566"
         transform="translate(548.29934,478.17492)"><path
           d="M 0,0 0.058,-0.364 0.35,-0.205 0.078,0.042 C 0.035,0.082 -0.033,0.159 -0.033,0.159 L -0.036,0.157 c 0,0 0.025,-0.099 0.036,-0.157"
           style="fill:#d1d2d2;fill-opacity:1;fill-rule:nonzero;stroke:none"
           id="path2568" /></g><g
         id="g2570"
         transform="translate(549.54934,477.98462)"><path
           d="m 0,0 -0.308,-0.192 -0.578,0.929 0.308,0.192 C -0.294,1.106 -0.001,1.052 0.181,0.759 0.365,0.464 0.284,0.177 0,0 m -0.557,-0.332 -0.247,0.225 -0.363,-0.198 0.055,-0.328 -0.138,-0.075 -0.177,1.15 0.141,0.077 0.87,-0.774 z m -1.097,-0.567 -0.411,0.869 -0.339,-0.16 -0.057,0.121 0.818,0.386 0.057,-0.121 -0.34,-0.16 0.41,-0.87 z m -0.538,-0.242 -0.376,0.317 -0.216,-0.087 0.162,-0.403 -0.143,-0.057 -0.406,1.013 0.31,0.124 c 0.106,0.043 0.154,0.052 0.199,0.053 0.118,0.003 0.227,-0.072 0.28,-0.206 0.052,-0.128 0.024,-0.266 -0.072,-0.346 l 0.001,-0.003 c 0,0 0.017,-0.009 0.048,-0.034 l 0.373,-0.307 z m -1.377,-0.503 -0.345,1.04 0.604,0.2 0.042,-0.126 -0.458,-0.152 0.108,-0.326 0.372,0.124 0.043,-0.127 -0.373,-0.124 0.11,-0.334 0.484,0.16 0.042,-0.127 z m -0.549,-0.153 -0.379,-0.099 -0.278,1.056 0.37,0.098 c 0.178,0.047 0.333,-0.018 0.378,-0.189 C -4,-1.034 -4.029,-1.13 -4.099,-1.193 l 0.001,-0.003 c 0.119,-0.004 0.209,-0.092 0.241,-0.211 0.052,-0.198 -0.075,-0.341 -0.261,-0.39 m -0.787,-0.184 -0.223,1.073 0.151,0.031 0.223,-1.073 z m -0.764,-0.134 -0.172,1.079 0.151,0.024 0.151,-0.947 0.483,0.077 0.021,-0.132 z m -1.017,-0.102 -0.515,0.688 c -0.043,0.058 -0.098,0.155 -0.098,0.155 h -0.003 c 0,0 0.015,-0.097 0.017,-0.159 l 0.029,-0.707 -0.153,-0.006 -0.044,1.09 0.151,0.006 0.514,-0.689 c 0.042,-0.057 0.097,-0.154 0.097,-0.154 h 0.003 c 0,0 -0.014,0.097 -0.017,0.157 l -0.028,0.709 0.152,0.007 0.045,-1.091 z m -1.496,-0.021 c -0.315,0.016 -0.548,0.279 -0.531,0.6 0.016,0.314 0.274,0.544 0.589,0.527 0.315,-0.015 0.546,-0.27 0.53,-0.584 -0.016,-0.321 -0.272,-0.559 -0.588,-0.543 m -0.758,0.08 -0.152,0.018 0.128,1.084 0.152,-0.018 z M -9.352,-2.114 -9.5,-2.087 -9.856,-1.3 c -0.028,0.066 -0.061,0.173 -0.061,0.173 l -0.003,0.001 c 0,0 -0.007,-0.098 -0.018,-0.16 l -0.126,-0.699 -0.152,0.027 0.195,1.079 0.15,-0.027 0.353,-0.788 c 0.029,-0.066 0.062,-0.172 0.062,-0.172 l 0.003,-10e-4 c 0,0 0.007,0.098 0.018,0.158 l 0.126,0.701 0.152,-0.027 z m -1.556,0.31 c -0.247,0.067 -0.374,0.269 -0.311,0.504 l 0.183,0.683 0.149,-0.04 -0.184,-0.683 c -0.043,-0.161 0.036,-0.284 0.198,-0.327 0.163,-0.044 0.295,0.022 0.339,0.187 l 0.183,0.679 0.148,-0.04 -0.184,-0.682 c -0.063,-0.235 -0.274,-0.347 -0.521,-0.281 m -0.907,1.222 c 0,0 -0.059,0.124 -0.189,0.174 -0.108,0.042 -0.211,0.004 -0.242,-0.077 -0.082,-0.21 0.433,-0.345 0.305,-0.675 -0.061,-0.157 -0.233,-0.24 -0.434,-0.162 -0.217,0.084 -0.286,0.265 -0.286,0.265 l 0.123,0.077 c 0,0 0.065,-0.152 0.217,-0.21 0.095,-0.037 0.197,-0.015 0.234,0.081 0.086,0.221 -0.426,0.365 -0.304,0.678 0.061,0.158 0.247,0.231 0.438,0.156 0.189,-0.073 0.249,-0.214 0.249,-0.214 z m -1.523,-0.328 c -0.286,0.135 -0.402,0.468 -0.265,0.759 0.135,0.285 0.462,0.4 0.748,0.265 0.286,-0.135 0.404,-0.46 0.269,-0.745 -0.137,-0.291 -0.466,-0.414 -0.752,-0.279 m -0.661,0.351 -0.136,0.072 0.518,0.962 0.135,-0.072 z m -0.775,0.437 -0.312,0.184 0.557,0.94 0.311,-0.184 c 0.288,-0.17 0.375,-0.454 0.199,-0.751 -0.176,-0.298 -0.468,-0.359 -0.755,-0.189 M 1.861,0.11 1.516,0.241 C 1.839,0.336 2.112,0.374 2.272,0.307 L 1.849,0.689 c -1.478,1.335 -3.141,0.4 -3.141,0.4 -1.639,-0.942 -3.782,-1.768 -6.199,-1.768 -2.416,0 -4.559,0.826 -6.198,1.768 0,0 -1.664,0.935 -3.142,-0.4 l -0.422,-0.382 c 0.16,0.067 0.433,0.029 0.756,-0.066 L -16.843,0.11 c 0.441,-0.175 0.26,-0.499 0.26,-0.499 l 0.536,0.475 c 1.062,-0.412 2.358,-1.179 2.358,-1.179 1.592,-0.961 3.781,-1.569 6.198,-1.569 v 0 0 c 2.417,0 4.607,0.608 6.199,1.569 0,0 1.296,0.767 2.358,1.179 l 0.536,-0.475 c 0,0 -0.182,0.324 0.259,0.499"
           style="fill:#d1d2d2;fill-opacity:1;fill-rule:nonzero;stroke:none"
           id="path2572" /></g><g
         id="g2574"
         transform="translate(549.03204,478.79432)"><path
           d="m 0,0 -0.168,-0.105 0.437,-0.702 0.169,0.105 c 0.209,0.13 0.269,0.339 0.126,0.568 C 0.423,0.093 0.208,0.13 0,0"
           style="fill:#d1d2d2;fill-opacity:1;fill-rule:nonzero;stroke:none"
           id="path2576" /></g></g></g><path
     style="fill:#d2d2d2;stroke:#d2d2d2;stroke-width:0.529167;stroke-linecap:butt;stroke-dasharray:none;stroke-opacity:1"
     d="M 42.952952,0.00137152 42.730118,42.988267"
     id="path3292" /></svg>
