<svg width="160" height="40" viewBox="0 0 160 40" fill="none" xmlns="http://www.w3.org/2000/svg">
<path d="M75.8865 31.2087H70.2185L66.2029 23.3666H59.531V31.2087H54.5116V8.52042H66.8515C69.4627 8.52042 71.4874 9.22873 72.9256 10.6425C74.3609 12.0591 75.08 13.8144 75.08 15.9082C75.08 17.3135 74.7388 18.5975 74.0592 19.7658C73.3796 20.9341 72.4011 21.8286 71.1293 22.4551L75.8893 31.2059L75.8865 31.2087ZM59.531 18.3407H67.1109C68.0612 18.3407 68.7888 18.1291 69.2964 17.7086C69.8039 17.2881 70.0577 16.7096 70.0577 15.9759C70.0577 15.2422 69.8039 14.6525 69.2964 14.2094C68.7888 13.7664 68.0612 13.5463 67.1109 13.5463H59.531V18.3435V18.3407ZM84.2954 31.2087H79.276V8.52042H84.2954V31.2087ZM99.709 31.0083L106.192 8.52042H111.699L105.135 31.2087H94.0862L87.7949 8.52042H93.3022L99.7119 31.0083H99.709ZM134.718 26.1857V31.2087H114.638V8.52042H134.557V13.5434H119.66V17.3671H134.397V22.3591H119.66V26.1828H134.721L134.718 26.1857ZM159.914 31.2087H154.246L150.23 23.3666H143.559V31.2087H138.539V8.52042H150.879C153.49 8.52042 155.515 9.22873 156.953 10.6425C158.388 12.0591 159.108 13.8144 159.108 15.9082C159.108 17.3135 158.766 18.5975 158.087 19.7658C157.407 20.9341 156.429 21.8286 155.157 22.4551L159.917 31.2059L159.914 31.2087ZM143.559 18.3407H151.138C152.089 18.3407 152.816 18.1291 153.324 17.7086C153.831 17.2881 154.085 16.7096 154.085 15.9759C154.085 15.2422 153.831 14.6525 153.324 14.2094C152.816 13.7664 152.089 13.5463 151.138 13.5463H143.559V18.3435V18.3407Z" fill="#F9F9F9"/>
<path d="M6.50834 35.4049L19.1838 7.60612C19.2346 7.49324 19.4038 7.56097 19.3643 7.67949L10.2673 34.0024C11.6265 33.5734 13.0195 33.2207 14.4407 32.9442L20.481 8.00683C20.5092 7.88549 20.6896 7.92218 20.6727 8.04352L17.1591 32.5124C18.3181 32.3713 19.4968 32.281 20.684 32.2415L21.8289 8.15357C21.8345 8.02941 22.0178 8.02941 22.0235 8.15357L23.1683 32.2415C24.3583 32.2782 25.5342 32.3685 26.6932 32.5124L23.1796 8.04352C23.1627 7.92218 23.3404 7.88549 23.3714 8.00683L29.4116 32.9442C30.8328 33.2207 32.2259 33.5763 33.5851 34.0024L24.4881 7.67949C24.4486 7.56379 24.6178 7.49324 24.6685 7.60612L37.344 35.4049C39.6338 36.3982 41.8107 37.6031 43.8495 39L21.9248 1L0 39C2.03597 37.6031 4.21294 36.3982 6.50552 35.4049" fill="#C5A063"/>
</svg>
