<svg width="129" height="128" viewBox="0 0 129 128" fill="none" xmlns="http://www.w3.org/2000/svg">
<path d="M24.2506 47.5621C26.1519 47.7567 27.9897 47.5343 29.6727 46.9666L29.7124 47.0023L29.7759 47.0658C22.6193 55.2051 17.5703 65.7384 15.4865 77.3954C14.0099 85.6458 18.4356 93.5785 25.7629 97.0685C37.7065 102.754 51.0671 105.934 65.1541 105.934C79.2411 105.934 92.3279 102.818 104.176 97.2432C111.531 93.781 115.989 85.8522 114.536 77.5899C112.476 65.8694 107.32 55.352 100.231 47.0897C91.28 36.6516 100.259 47.046 100.259 47.046C100.259 47.046 103.335 47.713 104.986 47.5979C111.357 47.1572 116.493 41.952 116.85 35.5717C117.275 27.9287 110.987 21.6437 103.347 22.0725C97.0553 22.4258 91.8833 27.4404 91.3475 33.7215C91.1807 35.6789 91.4586 37.5608 92.0897 39.272L91.9865 39.3753L91.927 39.4348C84.2027 33.7374 74.99 30.3785 64.9993 30.3785C55.0086 30.3785 45.7324 33.7612 37.9883 39.4984L37.9288 39.4388L37.8335 39.3435L37.647 39.1569C38.2543 37.4576 38.5163 35.5915 38.3376 33.654C37.77 27.4047 32.61 22.4298 26.3464 22.0764C18.6897 21.6476 12.4023 27.9367 12.831 35.5876C13.1803 41.7972 18.0625 46.9269 24.2467 47.5661L24.2506 47.5621Z" fill="white" stroke="white" stroke-width="4.97092"/>
<path fill-rule="evenodd" clip-rule="evenodd" d="M28.1564 92.0382C22.9765 89.5726 19.9638 84.034 20.972 78.3841C23.0797 66.5843 28.4422 56.2216 35.8806 48.6939C37.0158 47.5425 38.2027 46.4625 39.4292 45.4461C46.689 39.4628 55.4929 35.9609 64.9834 35.9609C74.474 35.9609 83.2144 39.439 90.4583 45.3826C91.6888 46.3911 92.8756 47.475 94.0148 48.6224C101.529 56.1939 106.935 66.6518 109.027 78.5628C110.023 84.2206 106.982 89.7592 101.787 92.2049C90.6647 97.4379 78.2448 100.364 65.1422 100.364C52.0396 100.364 39.3577 97.3783 28.1485 92.0382H28.1564Z" fill="#FFDF6F"/>
<path d="M25.6917 31.7041L22.2939 35.1027L30.3754 43.1864C31.7845 42.3764 32.9713 41.2171 33.8128 39.8274L25.6917 31.7041Z" fill="black"/>
<path fill-rule="evenodd" clip-rule="evenodd" d="M104.244 25.2362C99.044 25.1489 94.519 29.548 94.4674 34.7492C94.4475 36.651 94.9834 38.4297 95.9202 39.9305L104.141 31.7079L107.538 35.1065L99.3972 43.2457C101.009 44.143 102.906 44.5956 104.915 44.4249C109.543 44.0319 113.282 40.2759 113.655 35.6465C114.107 30.0324 109.733 25.3275 104.244 25.2362ZM95.9202 39.9305L92.1731 43.6745C93.4036 44.6909 94.5865 45.7788 95.7217 46.9223L99.3972 43.2457C97.9762 42.4517 96.7775 41.3082 95.9202 39.9305ZM111.4 78.1491C109.237 65.8331 103.613 54.8868 95.7217 46.9223L94.0228 48.6216C92.8837 47.4742 91.6968 46.3942 90.4664 45.3857L92.1731 43.6745C84.5204 37.322 75.1687 33.562 64.9875 33.562C54.8063 33.562 45.3951 37.3458 37.7264 43.742L39.4332 45.4493C38.2028 46.4617 37.0199 47.5456 35.8847 48.697L34.1858 46.9977C26.3703 54.9146 20.7895 65.7616 18.6064 77.9665C17.3997 84.7319 21.0197 91.3029 27.1245 94.2092C38.6473 99.6962 51.5435 102.769 65.1503 102.769C78.757 102.769 91.3833 99.7597 102.819 94.3799C108.943 91.4934 112.595 84.9265 111.4 78.1491ZM100.771 90.0284C89.9662 95.1184 77.8917 97.9611 65.1503 97.9611C52.4088 97.9611 40.0842 95.0588 29.1885 89.8696C24.9374 87.8447 22.5281 83.3383 23.3378 78.8121C25.374 67.4172 30.5182 57.535 37.5836 50.3924L41.144 47.1605C47.9871 41.5901 56.2194 38.3662 64.9875 38.3662C73.7557 38.3662 81.9245 41.5623 88.7556 47.093L92.324 50.3209C99.4608 57.5033 104.649 67.4768 106.669 78.9789C107.467 83.517 105.038 88.0234 100.771 90.0284ZM33.8167 39.8312C32.9752 41.2208 31.7884 42.3762 30.3793 43.1901L34.1858 46.9977C35.3211 45.8463 36.4999 44.7624 37.7264 43.742L33.8167 39.8312ZM33.8167 39.8312C34.7296 38.3265 35.2417 36.5517 35.206 34.6618C35.1028 29.4011 30.6611 25.133 25.4018 25.2362C19.9202 25.3474 15.5659 30.0443 16.0184 35.6465C16.3955 40.2997 20.1703 44.0636 24.8223 44.4289C26.8546 44.5877 28.7638 44.1113 30.3793 43.1901L22.2978 35.1065L25.6955 31.7079L33.8167 39.8312Z" fill="black"/>
<path fill-rule="evenodd" clip-rule="evenodd" d="M107.538 35.1066L99.3973 43.2459C97.9763 42.4518 96.7775 41.3083 95.9202 39.9306L104.141 31.708L107.538 35.1066Z" fill="black"/>
<path fill-rule="evenodd" clip-rule="evenodd" d="M95.7216 46.9226L94.0228 48.6219C92.8836 47.4744 91.6968 46.3945 90.4663 45.386L92.1731 43.6748C93.4036 44.6912 94.5864 45.7791 95.7216 46.9226Z" fill="black"/>
<path fill-rule="evenodd" clip-rule="evenodd" d="M39.4332 45.4494C38.2027 46.4619 37.0199 47.5458 35.8846 48.6972L34.1858 46.9979C35.321 45.8465 36.4999 44.7626 37.7264 43.7422L39.4332 45.4494Z" fill="black"/>
<path fill-rule="evenodd" clip-rule="evenodd" d="M33.8167 39.8313C32.9752 41.221 31.7884 42.3763 30.3793 43.1903L22.2979 35.1066L25.6956 31.708L33.8167 39.8313Z" fill="black"/>
<path fill-rule="evenodd" clip-rule="evenodd" d="M107.538 35.1027L99.3973 43.2419C97.9763 42.4479 96.7775 41.3044 95.9202 39.9267L104.141 31.7041L107.538 35.1027Z" fill="black"/>
<path d="M92.1732 43.6709L90.4624 45.3821C91.6929 46.3906 92.8797 47.4745 94.0189 48.6219L95.7177 46.9226C94.5825 45.7752 93.3997 44.6913 92.1732 43.6749V43.6709Z" fill="black"/>
<path d="M37.7222 43.7383C36.4957 44.7587 35.3169 45.8465 34.1816 46.994L35.8805 48.6933C37.0157 47.5419 38.2025 46.4619 39.429 45.4455L37.7222 43.7383Z" fill="black"/>
<path fill-rule="evenodd" clip-rule="evenodd" d="M37.5637 86.1775C33.396 84.4782 30.9231 80.0433 32.3679 75.7791C36.8215 62.6293 49.8169 53.1084 65.1542 53.1084C80.4915 53.1084 93.487 62.6253 97.9445 75.7791C99.3893 80.0433 96.9165 84.4821 92.7487 86.1775C84.2346 89.6476 74.9187 91.5573 65.1582 91.5573C55.3977 91.5573 46.0818 89.6476 37.5677 86.1775H37.5637Z" fill="black"/>
<path d="M76.2085 80.0233C80.6323 80.0233 84.2185 77.1543 84.2185 73.6152C84.2185 70.0761 80.6323 67.207 76.2085 67.207C71.7847 67.207 68.1985 70.0761 68.1985 73.6152C68.1985 77.1543 71.7847 80.0233 76.2085 80.0233Z" fill="white"/>
<path d="M53.282 80.0272C57.7058 80.0272 61.292 77.1582 61.292 73.6191C61.292 70.08 57.7058 67.2109 53.282 67.2109C48.8582 67.2109 45.272 70.08 45.272 73.6191C45.272 77.1582 48.8582 80.0272 53.282 80.0272Z" fill="white"/>
</svg>
