<svg width="98" height="80" viewBox="0 0 98 80" fill="none" xmlns="http://www.w3.org/2000/svg">
    <path fill-rule="evenodd" clip-rule="evenodd" d="M0.189925 54.7132L48.9989 0L97.8143 54.7132L68.0325 79.16H30.0035L0.183594 54.7132H0.189925ZM49.0116 69.463H49.5398C59.3271 69.1927 67.7971 61.8335 67.778 52.4193C67.778 49.277 66.2634 44.903 64.7298 42.3641C63.8856 40.7804 58.7862 31.9338 49.4316 15.8245C49.2916 15.4348 48.7062 15.4348 48.5726 15.8245C48.5726 15.8245 34.8781 39.3601 33.2744 42.3829C31.7408 44.9219 30.2262 49.2959 30.2262 52.4382C30.2262 61.8336 38.6962 69.199 48.4962 69.4693H49.0053L49.0116 69.463Z" fill="#00C7F9"/>
</svg>