<svg width="30" height="31" viewBox="0 0 30 31" fill="none" xmlns="http://www.w3.org/2000/svg">
<circle cx="15" cy="15.5" r="15" fill="#2D6759"/>
<path d="M14.4387 22.8782C14.6626 22.5616 14.8573 22.2783 15.0543 21.9927C15.855 20.8342 16.6561 19.676 17.4576 18.5183C17.5695 18.3646 17.6814 18.2258 17.5236 18.0136H18.2243C18.0967 18.1088 18.0004 18.1719 17.9086 18.251C17.7778 18.3582 17.6585 18.4793 17.5527 18.6123C17.152 19.1778 16.7692 19.7594 16.3684 20.3214C16.3367 20.3561 16.3191 20.4018 16.3191 20.4493C16.3191 20.4968 16.3367 20.5426 16.3684 20.5772C17.04 21.5385 17.6971 22.5077 18.3754 23.462C18.4952 23.6318 18.6877 23.7465 18.8478 23.8853C18.8858 23.9186 18.9284 23.9461 19 24H17.5314C17.7463 23.8257 17.5941 23.7041 17.5079 23.579C16.9766 22.8036 16.4427 22.0294 15.9062 21.2563C15.8827 21.2219 15.8547 21.1886 15.8166 21.1416C15.7797 21.1897 15.7472 21.2276 15.7192 21.2689C15.317 21.8485 14.9159 22.427 14.5159 23.0044C14.4545 23.1158 14.4223 23.2417 14.4223 23.3697C14.4223 23.4977 14.4545 23.6235 14.5159 23.735C14.5708 23.8142 14.6223 23.8968 14.6872 23.9966H13.419C13.4313 23.9679 13.4347 23.9335 13.4537 23.914C13.6451 23.7121 13.6708 23.4689 13.6708 23.1994C13.6641 20.4526 13.6641 17.705 13.6708 14.9567C13.6708 14.7136 13.644 14.4979 13.4705 14.319C13.4515 14.3046 13.4361 14.2858 13.4254 14.2642C13.4148 14.2426 13.4093 14.2187 13.4093 14.1945C13.4093 14.1703 13.4148 14.1464 13.4254 14.1248C13.4361 14.1032 13.4515 14.0845 13.4705 14.0701C13.5288 13.9979 13.5815 13.9212 13.6283 13.8406C13.6887 13.75 13.672 13.695 13.5712 13.6376C12.8739 13.2385 12.1765 12.8347 11.4904 12.424C11.3345 12.335 11.2061 12.2031 11.1197 12.0431C11.0332 11.8832 10.9922 11.7016 11.0012 11.519C11.0091 10.7333 11.0113 9.94759 11.0012 9.16187C10.9931 8.99528 11.03 8.82962 11.1078 8.68311C11.1856 8.53661 11.3013 8.41492 11.4422 8.33141C12.1243 7.90701 12.8168 7.50057 13.5197 7.11211C13.8869 6.90908 14.2607 7.00543 14.6088 7.21305L15.8715 7.96205C16.064 8.07676 16.2587 8.19146 16.4468 8.30617C16.6022 8.39678 16.7319 8.52741 16.823 8.68513C16.9141 8.84285 16.9635 9.02221 16.9662 9.20546C16.9841 9.99003 16.9874 10.7769 16.974 11.5615C16.9662 11.9928 16.7277 12.3002 16.3696 12.5112L14.5372 13.5837C14.4096 13.6583 14.3715 13.7466 14.4723 13.8521C14.6962 14.0896 14.6962 14.3029 14.4723 14.5323C14.44 14.5811 14.4254 14.64 14.4309 14.6986C14.4309 17.3751 14.4309 20.0515 14.4309 22.7279C14.4275 22.7692 14.4331 22.8048 14.4387 22.8782ZM16.383 10.388H16.3763C16.3763 10.0439 16.3763 9.69983 16.3763 9.34769C16.3849 9.23026 16.359 9.11287 16.302 9.01065C16.2449 8.90843 16.1593 8.82607 16.0561 8.77417C15.4427 8.42088 14.8338 8.06071 14.2249 7.70054C14.1458 7.65 14.0545 7.62319 13.9613 7.62319C13.8681 7.62319 13.7768 7.65 13.6977 7.70054C13.0813 8.05918 12.4657 8.41934 11.8508 8.78104C11.7607 8.82784 11.6859 8.90048 11.6354 8.99009C11.5849 9.0797 11.561 9.18242 11.5665 9.28574C11.5717 9.99615 11.5717 10.7058 11.5665 11.4147C11.5607 11.5263 11.5868 11.6372 11.6417 11.7338C11.6966 11.8304 11.7778 11.9084 11.8754 11.9584C12.1215 12.0842 12.3593 12.2263 12.5873 12.3839C12.8358 12.5809 13.1205 12.7247 13.4243 12.8066C13.7281 12.8886 14.0449 12.9071 14.3559 12.8611C14.3816 12.8611 14.4096 12.8611 14.4353 12.8611C14.5172 12.8499 14.5974 12.8279 14.6738 12.7957C15.145 12.525 15.6095 12.2451 16.0797 11.9744C16.1751 11.9264 16.2545 11.8504 16.3078 11.756C16.361 11.6617 16.3856 11.5532 16.3785 11.4445C16.3796 11.0935 16.383 10.7402 16.383 10.388Z" fill="url(#paint0_linear_5424_4639)"/>
<defs>
<linearGradient id="paint0_linear_5424_4639" x1="15.0336" y1="5.93644" x2="21.1584" y2="35.1901" gradientUnits="userSpaceOnUse">
<stop stop-color="#C3B075"/>
<stop offset="0.22" stop-color="#EEE0A5"/>
<stop offset="0.485" stop-color="#D9D092"/>
<stop offset="0.765" stop-color="#C6B780"/>
<stop offset="1" stop-color="#AA9D65"/>
</linearGradient>
</defs>
</svg>
