<svg xmlns="http://www.w3.org/2000/svg" width="50" height="50" fill="none"><rect width="50" height="50" fill="#2f4f4f" rx="6" style="stroke:none"/><path fill="#f6f2ed" fill-rule="evenodd" d="M39.001 24.5c0 10.5-14 17.5-14 17.5s-14-7-14-17.5V12.25l14-5.25 14 5.25zM24.72 23.47l-5.886-4.155a.27.27 0 0 1-.116-.224v-2.064c0-.224.255-.353.436-.221l5.718 4.174c.096.07.226.07.323 0l5.731-4.166a.274.274 0 0 1 .435.222v2.008a.27.27 0 0 1-.115.223l-5.899 4.203-.168.105a.27.27 0 0 1-.29 0zm-5.728 4.75a.274.274 0 0 0-.273.274v1.644c0 .151.122.274.274.274h12.082a.274.274 0 0 0 .274-.274v-1.654a.274.274 0 0 0-.274-.274H26.33a.274.274 0 0 1-.164-.494l5.082-3.787a.27.27 0 0 0 .11-.22v-2.011a.274.274 0 0 0-.435-.222l-5.731 4.166a.27.27 0 0 1-.323 0l-5.718-4.175a.274.274 0 0 0-.436.222v2.067c0 .087.041.17.111.22l5.067 3.74a.274.274 0 0 1-.163.495z" clip-rule="evenodd"/></svg>