<?xml version="1.0" encoding="UTF-8" standalone="no"?>
<svg
   width="75.845146"
   height="68.671829"
   viewBox="0 0 75.845148 68.671834"
   version="1.1"
   id="svg382"
   sodipodi:docname="bitcoin-s.svg"
   inkscape:version="1.2.2 (b0a8486541, 2022-12-01)"
   xmlns:inkscape="http://www.inkscape.org/namespaces/inkscape"
   xmlns:sodipodi="http://sodipodi.sourceforge.net/DTD/sodipodi-0.dtd"
   xmlns="http://www.w3.org/2000/svg"
   xmlns:svg="http://www.w3.org/2000/svg">
  <sodipodi:namedview
     id="namedview384"
     pagecolor="#ffffff"
     bordercolor="#000000"
     borderopacity="0.25"
     inkscape:showpageshadow="2"
     inkscape:pageopacity="0.0"
     inkscape:pagecheckerboard="0"
     inkscape:deskcolor="#d1d1d1"
     showgrid="false"
     inkscape:zoom="2.9911866"
     inkscape:cx="224.49285"
     inkscape:cy="34.935968"
     inkscape:window-width="2676"
     inkscape:window-height="1439"
     inkscape:window-x="1156"
     inkscape:window-y="676"
     inkscape:window-maximized="0"
     inkscape:current-layer="g380" />
  <defs
     id="defs372">
    <clipPath
       clipPathUnits="userSpaceOnUse"
       id="a">
      <path
         d="M 0,96.978 H 360.81 V 0 H 0 Z"
         id="path369" />
    </clipPath>
  </defs>
  <g
     clip-path="url(#a)"
     transform="matrix(1.33333,0,0,-1.33333,-42.513227,99.207752)"
     id="g380">
    <path
       d="m 60.327,74.406 c -15.708,0 -28.442,-12.734 -28.442,-28.442 0,-9.185 4.357,-17.347 11.112,-22.546 3.014,1.79 8.559,4.834 10.472,4.2 2.675,-0.886 5.147,-1.348 7.414,-1.385 2.139,-0.034 3.845,0.313 5.121,1.035 1.276,0.726 1.926,1.866 1.951,3.419 0.027,1.62 -0.746,2.88 -2.32,3.78 -1.573,0.902 -4.068,1.867 -7.487,2.894 -3.611,1.162 -6.574,2.295 -8.889,3.402 -2.316,1.107 -4.314,2.728 -5.998,4.86 -1.682,2.135 -2.496,4.92 -2.44,8.352 0.082,5.055 2.089,8.91 6.022,11.57 3.931,2.659 8.847,3.938 14.742,3.842 A 37.212,37.212 0 0 0 73.314,67.3 c 3.804,-1.325 5.115,-14.326 5.115,-14.326 -2.3,2.047 -5.06,3.664 -8.283,4.85 -3.22,1.188 -6.289,1.805 -9.205,1.852 -2.333,0.038 -4.201,-0.336 -5.608,-1.124 -1.406,-0.788 -2.123,-1.992 -2.149,-3.611 -0.03,-1.813 0.759,-3.187 2.363,-4.122 1.606,-0.933 4.214,-1.978 7.824,-3.141 3.482,-1.092 6.317,-2.16 8.503,-3.202 2.187,-1.04 4.075,-2.592 5.66,-4.661 1.587,-2.067 2.354,-4.753 2.3,-8.057 -0.058,-3.56 -1.028,-6.5 -2.867,-8.856 7.147,5.166 11.802,13.567 11.802,23.06 0,15.709 -12.734,28.443 -28.442,28.443"
       id="path675"
       style="fill:#ed5039;fill-opacity:1" />
  </g>
</svg>
