<svg width="212" height="450" viewBox="0 0 212 450" fill="none" xmlns="http://www.w3.org/2000/svg">
<path fill-rule="evenodd" clip-rule="evenodd" d="M114.005 2.14659C109.052 -0.71553 102.948 -0.715531 97.9948 2.14659L7.99481 54.1531C3.04732 57.012 0 62.2924 0 68.0065V172.043C0 177.758 3.04733 183.038 7.99482 185.897L69.0247 221.163C73.9722 224.022 77.0195 229.302 77.0195 235.016V433.998V437.998C77.0195 444.625 82.3921 449.998 89.0195 449.998H93.0195H118.981H123.031C129.658 449.998 135.031 444.625 135.031 437.998V233.751C135.444 228.531 138.395 223.809 142.975 221.163L204.005 185.897C208.953 183.038 212 177.758 212 172.043V68.0065C212 62.2924 208.953 57.012 204.005 54.1531L114.005 2.14659ZM112.07 68.1162C108.334 65.938 103.716 65.938 99.9803 68.1162L63.9718 89.1129C60.2841 91.2631 58.0164 95.2105 58.0164 99.4793V141.68C58.0164 145.948 60.2841 149.896 63.9718 152.046L99.9803 173.043C103.716 175.221 108.334 175.221 112.07 173.043L148.078 152.046C151.766 149.896 154.034 145.948 154.034 141.68V99.4793C154.034 95.2105 151.766 91.2631 148.078 89.1129L112.07 68.1162ZM172.046 338.527C164.047 333.861 154 339.631 154 348.892L154 356L154 412V419.108C154 428.369 164.047 434.14 172.046 429.473L196.046 415.473C199.733 413.322 202 409.376 202 405.108V362.892C202 358.624 199.733 354.678 196.046 352.527L172.046 338.527Z" fill="white"/>
</svg>
