<svg xmlns="http://www.w3.org/2000/svg" xmlns:xlink="http://www.w3.org/1999/xlink" version="1.0" id="Layer_1" x="0px" y="0px" viewBox="200 200 600 600" style="enable-background:new 0 0 1000 1000;background-color: #111316 !important" xml:space="preserve">
<style type="text/css">
	.st0{fill:#111316;}
	.st1{fill:#00C3FF;}
	.st2{fill:#7EE0FF;}
</style>
<path class="st1" d="M659.7,392.3c10.2,14.3,18.4,29.9,24.5,46.4l21.8-7.1c-6.9-18.9-16.4-36.8-28.1-53.1L659.7,392.3z"/>
<path class="st1" d="M510.6,289.2c-5.8-0.2-11.7-0.2-17.5,0l1.6,22.8c8.8-0.3,17.6-0.1,26.3,0.7c8.7,0.8,17.4,2.2,26,4.2l5.8-22.1  c-9.8-2.3-19.7-3.9-29.7-4.8C519,289.6,514.7,289.3,510.6,289.2z"/>
<path class="st1" d="M297.1,605.5c-9.1-18.6-15.7-38.3-19.5-58.6l-23.9,3.8c4.2,23,11.6,45.3,22,66.2L297.1,605.5z"/>
<path class="st1" d="M284.8,375.6l21.2,11.8c10.6-17.8,23.5-34,38.5-48.3l-16.2-18C311.3,337.2,296.7,355.5,284.8,375.6z"/>
<path class="st1" d="M254.8,453.5l23.8,4.2c4.2-20.3,11.2-39.9,20.7-58.3l-21.2-11.7C267.3,408.5,259.5,430.6,254.8,453.5z"/>
<path class="st1" d="M409.9,268.8l9.5,22.2c19.3-7.6,39.5-12.5,60.1-14.5l-1.7-24.1C454.5,254.6,431.7,260.1,409.9,268.8z"/>
<path class="st1" d="M338.5,311.8l16.2,18c15.8-13.4,33.3-24.6,52.1-33.4l-9.5-22.2C376,283.9,356.2,296.6,338.5,311.8z"/>
<path class="st1" d="M697.1,667.6l-18.9-15.1c-13.4,15.8-28.9,29.7-46,41.4l13,20.5C664.6,701.3,682.1,685.6,697.1,667.6z"/>
<path class="st1" d="M402.5,710.7c-18.6-9.1-35.9-20.7-51.4-34.5l-16.5,17.7c17.4,15.6,37,28.6,58,38.8L402.5,710.7z"/>
<path class="st1" d="M755.4,528.2c3.1-32.6-0.2-65.5-9.7-96.8l-23,7.6c13.2,44.4,12.7,91.7-1.3,135.8l22.8,8.1  C749.9,565.2,753.7,546.8,755.4,528.2z"/>
<path class="st1" d="M614.2,689.2L602,670c-15.1,9-31.3,16-48.3,20.7l5.4,22.2C578.5,707.5,597,699.6,614.2,689.2z"/>
<path class="st1" d="M314.5,528.8c-1.7-14.2-1.9-28.6-0.5-42.9c0.3-3.5,0.7-6.5,1.2-9.6l-22.5-4c-0.5,3.8-1,7.6-1.4,11.5  c-1.5,16.1-1.3,32.4,0.7,48.5L314.5,528.8z"/>
<path class="st1" d="M568.2,284.7c19.9,5.8,38.9,14.4,56.4,25.4l13.5-20.2c-19.8-12.5-41.2-22.1-63.7-28.7L568.2,284.7z"/>
<path class="st1" d="M469.8,755.8l2.3-24.1c-19.5-2.6-38.6-7.8-56.8-15.3l-10.1,22.2C425.8,747.1,447.6,752.9,469.8,755.8z"/>
<path class="st1" d="M351.3,657.7l15.7-16.6c-12.4-12.5-23.1-26.5-31.8-41.8l-20.3,10.7C324.8,627.4,337.1,643.5,351.3,657.7z"/>
<path class="st1" d="M649.5,297.7l-13.6,20.2c16.9,12,32,26.3,45.1,42.4l19.4-14.8C685.7,327.2,668.6,311.2,649.5,297.7z"/>
<path class="st1" d="M672.7,633.2c12-16.1,21.8-33.7,29.1-52.5l-21.5-7.7c-6.4,16.4-15,31.9-25.5,46L672.7,633.2z"/>
<path class="st2" d="M690.6,449.6l-21.6,7.2c6,20.7,8,42.4,6,63.8c-1.1,11.9-3.4,23.7-6.9,35.2l21.5,7.6c4.1-13.2,6.9-26.9,8.2-40.7  C700.1,498.1,697.6,473.3,690.6,449.6z"/>
<path class="st2" d="M475.2,698l2.1-22.7c-13.3-2-26.4-5.5-38.9-10.5l-9.4,20.7C443.8,691.5,459.3,695.7,475.2,698z"/>
<path class="st2" d="M631.8,456.2l20.4-6.9c-4.9-12.9-11.4-25.2-19.4-36.6l-17.1,13C622.3,435.2,627.7,445.4,631.8,456.2z"/>
<path class="st2" d="M508.4,345.7h-11.2l1.5,21.4c11.5-0.3,22.9,0.7,34.2,3.2l5.5-20.7c-6.8-1.5-13.6-2.6-20.5-3.2  C514.8,346.1,511.6,345.9,508.4,345.7z"/>
<path class="st2" d="M335.5,403.8l20,11.1c7.5-12.4,16.5-23.7,26.9-33.8L367,364.1C354.8,375.9,344.2,389.2,335.5,403.8z"/>
<path class="st2" d="M553.8,339.5c13.8,4.2,27.1,10.2,39.4,17.7l12.7-19c-14.4-8.9-30-15.8-46.2-20.7L553.8,339.5z"/>
<path class="st2" d="M635.9,394.5l18.1-13.8c-10.7-13.2-23.2-24.9-36.9-34.8l-12.7,19C616.2,373.4,626.7,383.3,635.9,394.5z"/>
<path class="st2" d="M611.5,584.6l16.8,13.4c8.2-11.2,14.9-23.3,20.1-36.2l-20.2-7.2C623.8,565.2,618.2,575.3,611.5,584.6z"/>
<path class="st2" d="M389.9,635.1l-15.6,16.6c12.8,11.2,26.9,20.7,42.2,28.2l9.4-20.7C412.9,652.8,400.8,644.6,389.9,635.1z"/>
<path class="st2" d="M369.2,520.2c-1-9.7-1.1-19.5-0.2-29.2c0.2-1.7,0.4-3.5,0.6-5.1l-21.1-3.8c-0.3,2.3-0.6,4.6-0.8,6.9  c-1.1,11.5-0.9,23,0.3,34.5L369.2,520.2z"/>
<path class="st2" d="M333.6,538l-22.6,3.5c3.2,16.7,8.6,33,16,48.3l20.2-10.7C340.9,566,336.4,552.2,333.6,538z"/>
<path class="st2" d="M601.7,646.3l12.3,19.2c14-9.6,26.7-21,37.7-33.8l-17.9-14.2C624.4,628.4,613.6,638.1,601.7,646.3z"/>
<path class="st2" d="M348.8,426.9l-19.9-11c-7.8,15.1-13.5,31.2-17,47.8l22.5,4C337.4,453.5,342.2,439.8,348.8,426.9z"/>
<path class="st2" d="M540.6,636.9l5,20.7c13.3-3.8,26.1-9.2,38.1-16.2l-11.6-18.1C562.2,629,551.6,633.6,540.6,636.9z"/>
<path class="st2" d="M384,573.5l-19,9.9c6.9,12,15.4,23,25.1,32.9l14.8-15.7C396.9,592.4,389.9,583.3,384,573.5z"/>
<path class="st2" d="M496.7,677.1c-1.9,0-3.8-0.2-5.7-0.4l-2.1,22.7c17.9,1.3,35.9,0.1,53.4-3.5l-5.3-22.2  C523.8,676.5,510.2,677.6,496.7,677.1z"/>
<path class="st2" d="M377.3,354.9l15.3,16.9c11.1-9.3,23.3-17.1,36.4-23.3l-9-21C404.6,334.7,390.3,343.9,377.3,354.9z"/>
<path class="st2" d="M432.7,322.1l9,21c13.5-5.2,27.6-8.7,42-10.3L482,310C465.1,311.9,448.5,315.9,432.7,322.1z"/>
<path class="st1" d="M490.3,757.5c21.5,0.7,43-1.1,64.2-5.2l-5-23.3c-18.3,3.8-37,5.3-55.8,4.6c-3,0-5.2-0.4-8.2-0.6l-2.1,24.4  c2.3,0.1,4.6,0.1,6.9,0L490.3,757.5z"/>
</svg>
