<?xml version="1.0" encoding="UTF-8" standalone="no"?>
<svg
   fill="none"
   height="22.85717"
   viewBox="0 0 21.942188 22.85717"
   width="21.942188"
   version="1.1"
   id="svg9"
   xmlns:xlink="http://www.w3.org/1999/xlink"
   xmlns="http://www.w3.org/2000/svg"
   xmlns:svg="http://www.w3.org/2000/svg">
  <defs
     id="defs9" />
  <linearGradient
     id="a">
    <stop
       offset="0"
       stop-color="#00b5f6"
       id="stop1" />
    <stop
       offset="1"
       stop-color="#0067ff"
       id="stop2" />
  </linearGradient>
  <linearGradient
     id="b"
     gradientUnits="userSpaceOnUse"
     x1="-101.197"
     x2="-99.512001"
     xlink:href="#a"
     y1="2.61712"
     y2="52.384201"
     gradientTransform="translate(-0.932823,-0.57143)" />
  <linearGradient
     id="c"
     gradientUnits="userSpaceOnUse"
     x1="19.800699"
     x2="59.717499"
     xlink:href="#a"
     y1="-3.6681399"
     y2="32.5811" />
  <linearGradient
     id="d"
     gradientUnits="userSpaceOnUse"
     x1="0.77848399"
     x2="43.302502"
     xlink:href="#a"
     y1="15.7742"
     y2="38.424" />
  <linearGradient
     id="e"
     gradientUnits="userSpaceOnUse"
     x1="-13.7995"
     x2="26.4804"
     xlink:href="#a"
     y1="16.1936"
     y2="52.152599"
     gradientTransform="translate(-0.932823,-0.57143)" />
  <linearGradient
     id="f"
     gradientUnits="userSpaceOnUse"
     x1="-80.445503"
     x2="-77.666801"
     xlink:href="#a"
     y1="4.0672498"
     y2="54.3461"
     gradientTransform="translate(-0.932823,-0.57143)" />
  <linearGradient
     id="g"
     gradientUnits="userSpaceOnUse"
     x1="-75.404503"
     x2="-72.625801"
     xlink:href="#a"
     y1="1.0698"
     y2="51.348701"
     gradientTransform="translate(-0.932823,-0.57143)" />
  <linearGradient
     id="h"
     gradientUnits="userSpaceOnUse"
     x1="3.0012901"
     x2="42.545502"
     xlink:href="#a"
     y1="5.42379"
     y2="42.938599" />
  <linearGradient
     id="i"
     gradientUnits="userSpaceOnUse"
     x1="11.4997"
     x2="51.0439"
     xlink:href="#a"
     y1="0.51684099"
     y2="38.031601" />
  <path
     d="m 13.192277,15.17007 c 0,-0.7114 -0.5721,-1.2925 -1.2826,-1.2925 h -8.0694 c -0.70589,0 -1.2826,0.5765 -1.2826,1.2925 0,0.7113 0.5721,1.2925 1.2826,1.2925 h 8.0694 c 0.7059,-0.0046 1.2826,-0.5812 1.2826,-1.2925 z"
     fill="url(#b)"
     id="path2"
     style="fill:url(#b)" />
  <path
     d="m 18.498177,9.86927 c 0.5941,-0.83382 0.9469,-1.85608 0.9469,-2.96784 0,-2.80768 -2.2418,-5.08303 -5.0081,-5.08303 h -0.687 V 1.26722 C 13.749977,0.5653 13.188377,0 12.501477,0 c -0.6916,0 -1.2486,0.57002 -1.2486,1.26722 V 1.8184 h -1.2717 v 0.00471 h -0.803 c -0.66838,0 -1.20679,0.55117 -1.20679,1.22482 0,0.67837 0.54305,1.22483 1.20679,1.22483 h 0.803 v 0.00471 h 4.4372 c 1.3878,0 2.511,1.14003 2.511,2.54858 v 0.00471 c 0,1.37087 -1.0675,2.51561 -2.4089,2.54387 -0.246,0.00471 -0.9886,0 -0.9886,0 -0.0047,0 -0.014,0 -0.0186,0 h -0.0093 c -0.738,0.01885 -1.3274,0.66424 -1.2485,1.43684 0.0696,0.6736 0.6637,1.1683 1.3321,1.1683 h 2.5342 c 0.2599,0 0.5245,0.0188 0.7751,0.0848 1.36,0.3627 2.3672,1.6158 2.3672,3.1139 0,1.776 -1.4203,3.2175 -3.1701,3.2175 h -7.64916 -1.43885 c -0.67765,0 -1.28104,0.504 -1.34602,1.1871 -0.07427,0.782 0.53376,1.4415 1.29032,1.4415 h 4.30261 v 0.5653 c 0,0.702 0.5616,1.2673 1.2486,1.2673 0.6915,0 1.2485,-0.57 1.2485,-1.2673 v -0.5653 h 1.0861 0.0047 1.3646 c 3.1701,0 5.7368,-2.6098 5.7368,-5.8226 0.0046,-2.3837 -1.4157,-4.4376 -3.444,-5.3327 z"
     fill="url(#e)"
     id="path5"
     style="fill:url(#e)" />
  <path
     d="m 8.346117,10.68027 c 0,-0.7113 -0.57528,-1.29251 -1.28973,-1.29251 H 1.289727 C 0.579917,9.38776 0,9.96427 0,10.68027 c 0,0.7114 0.575277,1.2925 1.289727,1.2925 h 5.76666 c 0.71445,0 1.28973,-0.5811 1.28973,-1.2925 z"
     fill="url(#f)"
     id="path6"
     style="fill:url(#f)" />
  <path
     d="m 5.866637,8.16325 h 5.76664 c 0.7098,0 1.2897,-0.57651 1.2897,-1.29251 0,-0.71135 -0.5752,-1.29252 -1.2897,-1.29252 h -5.76664 c -0.70982,0 -1.28973,0.57652 -1.28973,1.29252 0,0.71135 0.57527,1.29251 1.28973,1.29251 z"
     fill="url(#g)"
     id="path7"
     style="fill:url(#g)" />
</svg>
