<svg xmlns="http://www.w3.org/2000/svg" width="42" height="42" fill="none" viewBox="0 0 303.402 308.7"> <g clip-path="url(#cake-a)" transform="translate(41.726 7.234)"> <path d="M198.245 130.355C195.149 133.442 192.571 136.617 190.829 141.27C189.087 145.922 188.225 150.989 186.984 159.001C185.207 170.408 181.741 174.894 178.996 177.726C173.391 183.504 165.429 183.179 155.725 181.261C149.628 180.056 148.044 181.507 140.795 187.77L102.576 225.606L102.559 283.047C102.559 284.076 103.808 284.595 104.539 283.865L217.416 171.209C218.939 169.687 219.801 167.629 219.801 165.474L219.941 108.543L198.245 130.346V130.355Z" fill="#FF630F"/> <path d="M198.245 130.355C195.149 133.442 192.571 136.617 190.829 141.27C189.087 145.922 188.225 150.989 186.984 159.001C185.207 170.408 181.741 174.894 178.996 177.726C173.391 183.504 165.429 183.179 155.725 181.261C149.628 180.056 148.044 181.507 140.795 187.77L102.576 225.606L102.559 283.047C102.559 284.076 103.808 284.595 104.539 283.865L217.416 171.209C218.939 169.687 219.801 167.629 219.801 165.474L219.941 108.543L198.245 130.346V130.355Z" fill="url(#paint0_linear_4261_17539)"/> <path d="M152.707 166.292C160.062 166.503 165.191 171.824 171.244 168.007C177.297 164.19 177.13 159.942 178.3 152.923C179.479 145.896 181.81 137.725 183.887 132.8C185.972 127.866 190.626 121.56 195.359 116.96L219.756 91.5861L219.915 66.0186C219.915 64.4533 218.032 63.6617 216.923 64.7698L105.972 175.685C103.79 177.866 102.567 180.821 102.567 183.9V209.071L140.047 171.463C140.047 171.463 145.343 166.09 152.698 166.301L152.707 166.292Z" fill="#61C5FF"/> <path d="M152.707 166.292C160.062 166.503 165.191 171.824 171.244 168.007C177.297 164.19 177.13 159.942 178.3 152.923C179.479 145.896 181.81 137.725 183.887 132.8C185.972 127.866 190.626 121.56 195.359 116.96L219.756 91.5861L219.915 66.0186C219.915 64.4533 218.032 63.6617 216.923 64.7698L105.972 175.685C103.79 177.866 102.567 180.821 102.567 183.9V209.071L140.047 171.463C140.047 171.463 145.343 166.09 152.698 166.301L152.707 166.292Z" fill="url(#paint1_linear_4261_17539)"/> <path d="M219.95 45.0534L102.567 162.706V137.587C102.567 134.509 103.79 131.553 105.972 129.372L216.95 18.4305C218.049 17.3311 219.941 18.105 219.941 19.6706V45.0534H219.95Z" fill="#FFC414"/> <path d="M219.95 45.0534L102.567 162.706V137.587C102.567 134.509 103.79 131.553 105.972 129.372L216.95 18.4305C218.049 17.3311 219.941 18.105 219.941 19.6706V45.0534H219.95Z" fill="url(#paint2_linear_4261_17539)"/> <path d="M210.914 0.346174L12.194 43.6268C5.07642 45.1748 0 51.4722 0 58.7546V203.813C0 205.967 0.853404 208.034 2.38425 209.565L86.0001 293.154C87.7069 294.86 90.6279 293.655 90.6279 291.236V135.773C90.6367 130.646 92.6778 125.721 96.3026 122.097L213.412 4.91084C215.322 3.0023 213.562 -0.225509 210.923 0.346174H210.914Z" fill="var(--color-darkFondant)" class="dark:fill-cakeSecondary"/> <path d="M210.914 0.346174L12.194 43.6268C5.07642 45.1748 0 51.4722 0 58.7546V203.813C0 205.967 0.853404 208.034 2.38425 209.565L86.0001 293.154C87.7069 294.86 90.6279 293.655 90.6279 291.236V135.773C90.6367 130.646 92.6778 125.721 96.3026 122.097L213.412 4.91084C215.322 3.0023 213.562 -0.225509 210.923 0.346174H210.914Z" fill="url(#paint4_linear_4261_17539)" class="dark:fill-cakeSecondary"/> </g> <defs> <linearGradient id="paint0_linear_4261_17539" x1="216.871" y1="141.437" x2="102.975" y2="258.889" gradientUnits="userSpaceOnUse"> <stop stop-color="#FF7D38"/> <stop offset="0.612828" stop-color="#FE6412"/> <stop offset="1" stop-color="#EB4600"/> </linearGradient> <linearGradient id="paint1_linear_4261_17539" x1="191.081" y1="108.57" x2="99.8669" y2="204.513" gradientUnits="userSpaceOnUse"> <stop stop-color="#61C5FF"/> <stop offset="1" stop-color="#2A92FA"/> </linearGradient> <linearGradient id="paint2_linear_4261_17539" x1="219.95" y1="36.3375" x2="110.77" y2="154.4" gradientUnits="userSpaceOnUse"> <stop stop-color="#FFC414"/> <stop offset="1" stop-color="#FF9447"/> </linearGradient> <linearGradient id="paint3_linear_4261_17539" x1="213.791" y1="0.279311" x2="13.2289" y2="115.112" gradientUnits="userSpaceOnUse"> <stop offset="0.154904" stop-color="#403649"/> <stop offset="1" stop-color="#312938"/> </linearGradient> <linearGradient id="paint4_linear_4261_17539" x1="253.492" y1="-163.255" x2="-5.65041" y2="269.705" gradientUnits="userSpaceOnUse"> <stop offset="0.105" stop-color="#776A83"/> <stop offset="0.568693" stop-color="#312938"/> <stop offset="0.960073" stop-color="#19151D"/> </linearGradient> <clipPath id="cake-a"> <rect width="220" height="294" fill="white"/> </clipPath> </defs> </svg>