<svg xmlns="http://www.w3.org/2000/svg" width="42" height="42" fill="none" viewBox="0 0 303.402 308.7"><g clip-path="url(#cake-a)" transform="translate(41.726 7.234)"><path fill="#ff630f" d="M198.245 130.355c-3.096 3.087-5.674 6.262-7.416 10.915s-2.604 9.719-3.845 17.731c-1.777 11.407-5.243 15.893-7.988 18.725-5.605 5.778-13.567 5.453-23.271 3.535-6.097-1.205-7.681.246-14.93 6.509l-38.219 37.836-.017 57.441c0 1.029 1.249 1.548 1.98.818l112.877-112.656a8.1 8.1 0 0 0 2.385-5.735l.14-56.931-21.696 21.803z"/><path fill="url(#cake-b)" d="M198.245 130.355c-3.096 3.087-5.674 6.262-7.416 10.915s-2.604 9.719-3.845 17.731c-1.777 11.407-5.243 15.893-7.988 18.725-5.605 5.778-13.567 5.453-23.271 3.535-6.097-1.205-7.681.246-14.93 6.509l-38.219 37.836-.017 57.441c0 1.029 1.249 1.548 1.98.818l112.877-112.656a8.1 8.1 0 0 0 2.385-5.735l.14-56.931-21.696 21.803z" style="fill:url(#cake-b)"/><path fill="#61c5ff" d="M152.707 166.292c7.355.211 12.484 5.532 18.537 1.715s5.886-8.065 7.056-15.084c1.179-7.027 3.51-15.198 5.587-20.123 2.085-4.934 6.739-11.24 11.472-15.84l24.397-25.374.159-25.567c0-1.566-1.883-2.357-2.992-1.25L105.972 175.686a11.6 11.6 0 0 0-3.405 8.215v25.171l37.48-37.608s5.296-5.373 12.651-5.162z"/><path fill="url(#cake-c)" d="M152.707 166.292c7.355.211 12.484 5.532 18.537 1.715s5.886-8.065 7.056-15.084c1.179-7.027 3.51-15.198 5.587-20.123 2.085-4.934 6.739-11.24 11.472-15.84l24.397-25.374.159-25.567c0-1.566-1.883-2.357-2.992-1.25L105.972 175.686a11.6 11.6 0 0 0-3.405 8.215v25.171l37.48-37.608s5.296-5.373 12.651-5.162z" style="fill:url(#cake-c)"/><path fill="#ffc414" d="M219.95 45.053 102.567 162.706v-25.119c0-3.078 1.223-6.034 3.405-8.215L216.95 18.43c1.099-1.099 2.991-.325 2.991 1.24v25.383z"/><path fill="url(#cake-d)" d="M219.95 45.053 102.567 162.706v-25.119c0-3.078 1.223-6.034 3.405-8.215L216.95 18.43c1.099-1.099 2.991-.325 2.991 1.24v25.383z" style="fill:url(#cake-d)"/><path fill="var(--color-darkFondant)" d="m210.914.346-198.72 43.28A15.48 15.48 0 0 0 0 58.756v145.058a8.13 8.13 0 0 0 2.384 5.752L86 293.154c1.707 1.706 4.628.501 4.628-1.918V135.773a19.4 19.4 0 0 1 5.675-13.676L213.412 4.911c1.91-1.909.15-5.137-2.489-4.565z" class="dark:fill-cakeSecondary"/><path fill="url(#cake-e)" d="m210.914.346-198.72 43.28A15.48 15.48 0 0 0 0 58.756v145.058a8.13 8.13 0 0 0 2.384 5.752L86 293.154c1.707 1.706 4.628.501 4.628-1.918V135.773a19.4 19.4 0 0 1 5.675-13.676L213.412 4.911c1.91-1.909.15-5.137-2.489-4.565z" class="dark:fill-cakeSecondary" style="fill:url(#cake-e)"/></g><defs><linearGradient id="cake-b" x1="216.871" x2="102.975" y1="141.437" y2="258.889" gradientUnits="userSpaceOnUse"><stop stop-color="#FF7D38"/><stop offset=".613" stop-color="#FE6412"/><stop offset="1" stop-color="#EB4600"/></linearGradient><linearGradient id="cake-c" x1="191.081" x2="99.867" y1="108.57" y2="204.513" gradientUnits="userSpaceOnUse"><stop stop-color="#61C5FF"/><stop offset="1" stop-color="#2A92FA"/></linearGradient><linearGradient id="cake-d" x1="219.95" x2="110.77" y1="36.337" y2="154.4" gradientUnits="userSpaceOnUse"><stop stop-color="#FFC414"/><stop offset="1" stop-color="#FF9447"/></linearGradient><linearGradient id="cake-e" x1="253.492" x2="-5.65" y1="-163.255" y2="269.705" gradientUnits="userSpaceOnUse"><stop offset=".105" stop-color="#776A83"/><stop offset=".569" stop-color="#312938"/><stop offset=".96" stop-color="#19151D"/></linearGradient><clipPath id="cake-a"><path fill="#fff" d="M0 0h220v294H0Z"/></clipPath></defs></svg>
