<?xml version="1.0" encoding="UTF-8"?>
<svg width="400px" height="400px" viewBox="0 0 400 400" version="1.1" xmlns="http://www.w3.org/2000/svg" xmlns:xlink="http://www.w3.org/1999/xlink">
    <title>Exodus_logo</title>
    <defs>
        <linearGradient x1="0%" y1="50%" x2="100%" y2="50%" id="linearGradient-1">
            <stop stop-color="#00BFFF" offset="0%"></stop>
            <stop stop-color="#6619FF" offset="100%"></stop>
        </linearGradient>
    </defs>
    <g id="Exodus_logo" stroke="none" stroke-width="1" fill="none" fill-rule="evenodd">
        <g id="Exodus-logo">
            <rect id="Rectangle" fill="#1A1D40" x="0" y="0" width="400" height="400"></rect>
            <path d="M244.25,200 L310,265.75 L286.8,265.75 C282.823093,265.746499 279.010347,264.16385 276.2,261.35 L215,200 L276.25,138.6 C279.068515,135.804479 282.880256,134.240227 286.85,134.249954 L310,134.249954 L244.25,200 Z M123.75,138.6 C120.931485,135.804479 117.119744,134.240227 113.15,134.249954 L90,134.249954 L155.75,200 L90,265.75 L113.2,265.75 C117.176907,265.746499 120.989653,264.16385 123.8,261.35 L185,200 L123.75,138.6 Z M200,215 L138.6,276.25 C135.804479,279.068515 134.240227,282.880256 134.249954,286.85 L134.249954,310 L200,244.25 L265.750046,310 L265.750046,286.85 C265.759773,282.880256 264.195521,279.068515 261.4,276.25 L200,215 Z M200,185 L261.4,123.75 C264.195521,120.931485 265.759773,117.119744 265.750046,113.15 L265.750046,90 L200,155.75 L134.249954,90 L134.249954,113.15 C134.240227,117.119744 135.804479,120.931485 138.6,123.75 L200,185 Z" id="01-Exodus-wallet" fill="url(#linearGradient-1)" fill-rule="nonzero"></path>
        </g>
    </g>
</svg>
