<?xml version="1.0" encoding="UTF-8" standalone="no"?>
<svg
   width="326.883"
   height="320"
   viewBox="0 0 326.883 320"
   fill="none"
   version="1.1"
   id="svg3"
   xmlns="http://www.w3.org/2000/svg"
   xmlns:svg="http://www.w3.org/2000/svg">
  <path
     fill-rule="evenodd"
     clip-rule="evenodd"
     d="m 189.444,26.002 c 0,14.3606 -11.642,26.0021 -26.002,26.0021 -14.361,0 -26.002,-11.6415 -26.002,-26.0021 C 137.44,11.6415 149.081,0 163.442,0 c 14.36,0 26.002,11.6415 26.002,26.002 z m 110.213,53.0968 c 0,14.3605 -11.641,26.0022 -26.002,26.0022 -14.36,0 -26.002,-11.6417 -26.002,-26.0022 0,-14.3605 11.642,-26.002 26.002,-26.002 14.361,0 26.002,11.6415 26.002,26.002 z m 1.224,145.2622 c 14.361,0 26.002,-11.642 26.002,-26.002 0,-14.361 -11.641,-26.002 -26.002,-26.002 -14.36,0 -26.002,11.641 -26.002,26.002 0,14.36 11.642,26.002 26.002,26.002 z m -50.278,69.637 c 0,14.361 -11.641,26.002 -26.002,26.002 -14.361,0 -26.002,-11.641 -26.002,-26.002 0,-14.361 11.641,-26.002 26.002,-26.002 14.361,0 26.002,11.641 26.002,26.002 z M 102.282,320 c 14.361,0 26.002,-11.641 26.002,-26.002 0,-14.361 -11.641,-26.002 -26.002,-26.002 -14.3604,0 -26.0019,11.641 -26.0019,26.002 0,14.361 11.6415,26.002 26.0019,26.002 z M 52.0041,198.358 c 0,14.361 -11.6415,26.002 -26.0021,26.002 C 11.6415,224.36 0,212.719 0,198.358 c 0,-14.36 11.6415,-26.002 26.002,-26.002 14.3606,0 26.0021,11.642 26.0021,26.002 z m 1.2238,-93.257 c 14.3605,0 26.002,-11.6417 26.002,-26.0022 0,-14.3605 -11.6415,-26.002 -26.002,-26.002 -14.3606,0 -26.0021,11.6415 -26.0021,26.002 0,14.3605 11.6415,26.0022 26.0021,26.0022 z M 209,130.666 l -45.558,-21.938 -45.558,21.938 -11.253,49.294 31.53,39.528 h 50.562 l 31.53,-39.528 z m -45.58,-53.4579 0.022,-0.0105 h -0.044 z M 93.2363,111 163.42,77.2081 233.604,111 l 17.349,75.974 -48.574,60.919 H 124.461 L 75.887,186.974 Z"
     fill="url(#paint0_radial_72_1066)"
     id="path1"
     style="fill:url(#paint0_radial_72_1066)" />
  <defs
     id="defs3">
    <radialGradient
       id="paint0_radial_72_1066"
       cx="0"
       cy="0"
       r="1"
       gradientUnits="userSpaceOnUse"
       gradientTransform="matrix(-182.064,0,0,-182.064,163.441,168.584)">
      <stop
         offset="0.507956"
         stop-color="#4AD6FF"
         id="stop2" />
      <stop
         offset="1"
         stop-color="#181884"
         id="stop3" />
    </radialGradient>
  </defs>
</svg>
