<?xml version="1.0" encoding="UTF-8" standalone="no"?><svg width="56.91" height="56.91" fill="none" xmlns="http://www.w3.org/2000/svg"><path style="fill:#3654ff;fill-opacity:1;fill-rule:evenodd;stroke:none;stroke-width:4" d="M0 0h56.91v56.91H0z"/><path d="M35.097 23.313a6.521 6.521 0 0 0-.838-1.839 5.378 5.378 0 0 0-1.314-1.364 5.868 5.868 0 0 0-1.761-.859 7.545 7.545 0 0 0-2.18-.298c-1.487 0-2.792.37-3.914 1.108-1.122.738-1.996 1.811-2.621 3.217-.625 1.406-.938 3.123-.938 5.15 0 2.025.308 3.75.923 5.17s1.486 2.502 2.613 3.245c1.127.743 2.458 1.115 3.992 1.115 1.392 0 2.583-.249 3.572-.746.99-.497 1.748-1.2 2.273-2.109.498-.863.76-1.876.786-3.04h-6.248v-4.63h12.174v3.664c0 2.557-.54 4.752-1.62 6.584a10.975 10.975 0 0 1-4.46 4.233c-1.893.99-4.061 1.484-6.504 1.484-2.728 0-5.123-.604-7.188-1.812-2.065-1.208-3.672-2.926-4.823-5.156-1.15-2.23-1.726-4.879-1.726-7.947 0-2.358.343-4.463 1.03-6.313.687-1.852 1.65-3.42 2.89-4.709a12.495 12.495 0 0 1 4.334-2.94c1.647-.673 3.433-1.009 5.355-1.009 1.648 0 3.182.24 4.602.718 1.42.478 2.683 1.152 3.786 2.023a11.025 11.025 0 0 1 2.706 3.104 10.648 10.648 0 0 1 1.35 3.955z" fill="#fff"/></svg>
