<svg xmlns="http://www.w3.org/2000/svg" width="331" height="136"><rect id="backgroundrect" width="100%" height="100%" x="0" y="0" fill="none" stroke="none"/>
<g class="currentLayer" style=""><title>Layer 1</title><path d="M191.4168062878418,81.69682996093752 C191.4168062878418,81.69682996093752 191.4101862878418,81.69682996093752 191.4101862878418,81.69682996093752 C190.7928562878418,81.69682996093752 190.2477862878418,81.90047996093745 189.7354762878418,82.31427996093748 C189.3545462878418,82.61631996093752 189.0917762878418,83.02361996093748 188.8816162878418,83.47679996093746 C188.8816162878418,83.47679996093746 188.9078762878418,83.47679996093746 188.9078762878418,83.47679996093746 C189.1180262878418,83.02361996093748 189.3808062878418,82.61631996093752 189.75510628784178,82.31427996093748 C190.2674162878418,81.90047996093745 190.8124862878418,81.7034599609375 191.4168062878418,81.69682996093752 z" id="path2877" style="fill:#bd0000;fill-opacity:1;fill-rule:evenodd;stroke:none;stroke-width:1pt;stroke-linecap:butt;stroke-linejoin:miter" class=""/><path d="M191.4364462878418,81.69682996093752 C191.4299362878418,81.69682996093752 191.4233162878418,81.69682996093752 191.4168062878418,81.69682996093752 C192.0538862878418,81.7034599609375 192.4741962878418,81.92022996093749 192.7566062878418,82.38653996093751 C192.8813762878418,82.58355996093746 192.9470062878418,82.87909996093754 192.9470062878418,83.25339996093749 C192.9470062878418,83.31915996093755 192.9338862878418,83.40453996093754 192.9273762878418,83.47679996093746 C192.9273762878418,83.47679996093746 192.9536262878418,83.47679996093746 192.9536262878418,83.47679996093746 C192.9536262878418,83.40453996093754 192.9667562878418,83.31915996093755 192.9667562878418,83.25339996093749 C192.9667562878418,82.87909996093754 192.9076262878418,82.58355996093746 192.7828562878418,82.38653996093751 C192.5004462878418,81.91360996093749 192.0735262878418,81.69682996093752 191.4364462878418,81.69682996093752 z" id="path2879" style="fill:#bd0000;fill-opacity:1;fill-rule:evenodd;stroke:none;stroke-width:1pt;stroke-linecap:butt;stroke-linejoin:miter" class=""/><g id="g2881" style="fill:#663366;fill-opacity:1" class="">
        <g id="g2883" style="fill:#663366;fill-opacity:1;fill-rule:evenodd;stroke:none;stroke-width:1pt;stroke-linecap:butt;stroke-linejoin:miter" stroke-width="0">
          <path d="M-2.8635821536227013e-7,135.97326930930546 C-2.8635821536227013e-7,135.97326930930546 4.8995268470842674,135.97326930930546 4.8995268470842674,135.97326930930546 C4.8995268470842674,135.97326930930546 7.099716645614066,126.7784462706735 7.099716645614066,126.7784462706735 C7.099716645614066,126.7784462706735 15.059806304772621,126.7784462706735 15.059806304772621,126.7784462706735 C15.059806304772621,126.7784462706735 16.084372300505905,122.8378078255455 16.084372300505905,122.8378078255455 C16.084372300505905,122.8378078255455 8.091443987637945,122.8378078255455 8.091443987637945,122.8378078255455 C8.091443987637945,122.8378078255455 9.418125597497706,116.92685015785344 9.418125597497706,116.92685015785344 C9.418125597497706,116.92685015785344 17.9233369082323,116.92685015785344 17.9233369082323,116.92685015785344 C17.9233369082323,116.92685015785344 18.947902903965584,112.32943863853745 18.947902903965584,112.32943863853745 C18.947902903965584,112.32943863853745 5.516893536820987,112.32943863853745 5.516893536820987,112.32943863853745 C5.516893536820987,112.32943863853745 -2.8635821536227013e-7,135.97326930930546 -2.8635821536227013e-7,135.97326930930546 z" id="path2885" style="fill:#663366;fill-opacity:1" stroke-width="0"/>
        </g>
        <g id="g2887" style="fill:#663366;fill-opacity:1;fill-rule:evenodd;stroke:none;stroke-width:1pt;stroke-linecap:butt;stroke-linejoin:miter" stroke-width="0">
          <path d="M21.975622577793743,135.97326160622538 C21.975622577793743,135.97326160622538 23.446794263974866,129.7995947088582 23.446794263974866,129.7995947088582 C24.221786491516703,126.45661976124131 25.85715144624482,123.49457319665339 28.950552625670298,123.49457319665339 C29.226397316829264,123.49457319665339 29.495674277246344,123.63249554223285 29.699273930244622,123.66533419594225 C29.699273930244622,123.66533419594225 30.894600925266786,118.93000033104681 30.894600925266786,118.93000033104681 C30.61875623410782,118.93000033104681 30.316640619981342,118.89716167733741 29.97511862140358,118.89716167733741 C27.696116053971224,118.89716167733741 25.78490640808414,120.49968797835618 24.510766644159425,122.79839373801417 C24.510766644159425,122.79839373801417 24.37941202932182,122.79839373801417 24.37941202932182,122.79839373801417 C24.569876220836342,121.67531178115269 24.734069489383344,120.61133940096806 24.858856373479064,119.55393475152539 C24.858856373479064,119.55393475152539 20.635805506450225,119.55393475152539 20.635805506450225,119.55393475152539 C20.392799469000664,120.92002274583649 20.018438816713505,123.5930891577816 19.44704624216994,126.0034463400516 C19.44704624216994,126.0034463400516 17.043256790641863,135.97326160622538 17.043256790641863,135.97326160622538 C17.043256790641863,135.97326160622538 21.975622577793743,135.97326160622538 21.975622577793743,135.97326160622538 z" id="path2889" style="fill:#663366;fill-opacity:1" stroke-width="0"/>
        </g>
        <g id="g2891" style="fill:#663366;fill-opacity:1;fill-rule:evenodd;stroke:none;stroke-width:1pt;stroke-linecap:butt;stroke-linejoin:miter" stroke-width="0">
          <path d="M43.7673801940531,131.54004335545642 C42.40785993048394,132.20338416038624 40.85787547540026,132.03262316109738 39.05174952138327,132.03262316109738 C37.62655195039531,132.03262316109738 36.52317318575946,131.78304939290592 35.918941957506505,131.2970373180068 C35.60369088189627,130.7650511279146 35.472336267058665,129.93751705443765 35.49860719002618,129.40553086434545 C42.15171843155062,129.58285959437615 46.34849837561194,128.0460106007763 46.55866575935211,123.84266292597306 C46.71629129715723,120.67044897764504 44.39788234527359,118.89716167733741 41.02863647468914,118.89716167733741 C35.01259511512707,118.89716167733741 31.071956669999068,124.2038881167764 30.81581517106575,129.31358263395907 C30.592512325841824,133.7730718076956 32.904353546983586,135.97326160622538 37.67252606558847,135.97326160622538 C39.50492294257299,135.97326160622538 41.934983317068586,135.76309422248528 43.92500573185822,135.16543072497416 C43.92500573185822,135.16543072497416 43.7673801940531,131.54004335545642 43.7673801940531,131.54004335545642 zM41.96782197077799,123.84266292597306 C41.889009201875425,125.40578284254048 39.95809636376271,125.49773107292685 36.15538026421419,125.46489241921745 C36.56914730095262,124.09223669416451 37.96150621823118,122.83780012246541 40.240508785663536,122.83780012246541 C41.36359074252502,122.83780012246541 42.00722835522926,123.26470262068756 41.96782197077799,123.84266292597306 z" id="path2893" style="fill:#663366;fill-opacity:1" stroke-width="0"/>
        </g>
        <g id="g2895" style="fill:#663366;fill-opacity:1;fill-rule:evenodd;stroke:none;stroke-width:1pt;stroke-linecap:butt;stroke-linejoin:miter" stroke-width="0">
          <path d="M61.17843922831125,131.54004335545642 C59.81891896474208,132.20338416038624 58.26893450965841,132.03262316109738 56.469376286383294,132.03262316109738 C55.03761098465344,132.03262316109738 53.940799950759484,131.78304939290592 53.33656872250653,131.2970373180068 C53.02131764689629,130.7650511279146 52.88339530131681,129.93751705443765 52.90966622428432,129.40553086434545 C59.56934519655064,129.58285959437615 63.759557409870084,128.0460106007763 63.97629252435213,123.84266292597306 C64.13391806215725,120.67044897764504 61.81550911027361,118.89716167733741 58.44626323968916,118.89716167733741 C52.4236541493852,118.89716167733741 48.48301570425721,124.2038881167764 48.22687420532388,129.31358263395907 C48.01013909084185,133.7730718076956 50.32198031198361,135.97326160622538 55.0835850998466,135.97326160622538 C56.92254970757301,135.97326160622538 59.35261008206861,135.76309422248528 61.34263249685824,135.16543072497416 C61.34263249685824,135.16543072497416 61.17843922831125,131.54004335545642 61.17843922831125,131.54004335545642 zM59.38544873577801,123.84266292597306 C59.30663596687545,125.40578284254048 57.37572312876273,125.49773107292685 53.56643929847233,125.46489241921745 C53.986774065952645,124.09223669416451 55.37256525248932,122.83780012246541 57.65156781992168,122.83780012246541 C58.774649776783164,122.83780012246541 59.42485512022928,123.26470262068756 59.38544873577801,123.84266292597306 z" id="path2897" style="fill:#663366;fill-opacity:1" stroke-width="0"/>
        </g>
        <g id="g2899" style="fill:#663366;fill-opacity:1;fill-rule:evenodd;stroke:none;stroke-width:1pt;stroke-linecap:butt;stroke-linejoin:miter" stroke-width="0">
          <path d="M86.52987141087694,135.97326160622538 C86.56927779532822,133.89129096104944 87.0684253317111,130.6205610515932 87.58727606031961,128.47291309899845 C87.58727606031961,128.47291309899845 89.6955176284631,119.55393475152539 89.6955176284631,119.55393475152539 C88.35570055711958,119.10076133033567 86.26716218120173,118.89716167733741 84.25743657418646,118.89716167733741 C76.10031499277149,118.89716167733741 72.05459285577341,124.93947395986697 71.77218043387258,130.60085785936758 C71.59485170384181,134.15400019072467 73.51919681121265,135.97326160622538 76.51408202950994,135.97326160622538 C78.45156259836453,135.97326160622538 80.63861693541057,135.03407611013654 82.3396591975575,132.20995189112818 C82.3396591975575,132.20995189112818 82.41190423571817,132.20995189112818 82.41190423571817,132.20995189112818 C82.28054962088058,133.56947215469734 82.12292408307545,134.88958603381525 82.03754358343102,135.97326160622538 C82.03754358343102,135.97326160622538 86.52987141087694,135.97326160622538 86.52987141087694,135.97326160622538 zM83.16062554029249,126.59454210682077 C82.20173685197801,130.77161885865644 80.24455309089777,132.03262316109738 78.78651686620042,132.03262316109738 C77.42699660263125,132.03262316109738 76.83590083586205,131.06716674204108 76.91471360476461,129.66167236327874 C77.07233914256973,126.48945841495072 79.5812122859679,122.83780012246541 82.74685850355405,122.83780012246541 C83.25914150142069,122.83780012246541 83.65977307667538,122.74585189207914 84.03413372896253,122.65390366169277 C84.03413372896253,122.65390366169277 83.16062554029249,126.59454210682077 83.16062554029249,126.59454210682077 z" id="path2901" style="fill:#663366;fill-opacity:1" stroke-width="0"/>
        </g>
        <g id="g2903" style="fill:#663366;fill-opacity:1;fill-rule:evenodd;stroke:none;stroke-width:1pt;stroke-linecap:butt;stroke-linejoin:miter" stroke-width="0">
          <path d="M89.74149796004181,135.19826937868356 C90.68725118687253,135.93385522177414 92.67070587092029,135.94042295251597 94.73954105461249,135.97326160622538 C99.15962384389772,136.00610025993478 102.49603106077276,134.07518742182208 102.69306298302917,130.52861282120693 C102.80471440564114,128.16422975413013 100.97231752865662,126.76530310610963 99.17932703612337,125.82611761002079 C97.88548407997303,125.20218318954221 97.23527873652688,124.60451969203109 97.26811739023628,123.90834023339187 C97.31409150542945,122.96915473730303 98.19416742484137,122.83780012246541 99.48801038099174,122.83780012246541 C100.9460466056891,122.83780012246541 102.11510267774372,123.01512885249622 102.78501121341549,123.14648346733372 C102.78501121341549,123.14648346733372 104.11169282327526,119.5867734052348 104.11169282327526,119.5867734052348 C103.35640378795904,119.13359998404508 101.84582571732665,118.89716167733741 99.90834514847205,118.89716167733741 C95.61961697402441,118.89716167733741 92.48024167940576,121.163028783286 92.30291294937501,124.60451969203109 C92.19782925750494,126.73246445240022 93.72811052036297,128.16422975413013 95.58021058957314,129.13625390392838 C97.07765319872178,129.90467840072824 97.58993619658841,130.49577416749753 97.55052981213714,131.3298759717162 C97.50455569694398,132.17054550667694 96.75583439236965,132.03262316109738 95.3963141288005,132.03262316109738 C93.80035555852365,132.03262316109738 92.03363598895793,131.82245577735728 91.10101822361098,131.67796570103587 C91.10101822361098,131.67796570103587 89.74149796004181,135.19826937868356 89.74149796004181,135.19826937868356 z" id="path2905" style="fill:#663366;fill-opacity:1" stroke-width="0"/>
        </g>
        <g id="g2907" style="fill:#663366;fill-opacity:1;fill-rule:evenodd;stroke:none;stroke-width:1pt;stroke-linecap:butt;stroke-linejoin:miter" stroke-width="0">
          <path d="M115.94672286034242,135.97327778269346 C115.94672286034242,135.97327778269346 119.92019995917983,119.55395092799347 119.92019995917983,119.55395092799347 C119.92019995917983,119.55395092799347 115.05351147944674,119.55395092799347 115.05351147944674,119.55395092799347 C115.05351147944674,119.55395092799347 111.05376345764182,135.97327778269346 111.05376345764182,135.97327778269346 C111.05376345764182,135.97327778269346 115.94672286034242,135.97327778269346 115.94672286034242,135.97327778269346 zM118.22572542777479,117.58363170542941 C119.89392903621231,117.58363170542941 121.37823618387719,116.20440824963464 121.47018441426351,113.84002518255784 C121.54899718316605,112.23749888153918 120.51129572594903,111.67267403773747 118.98101446309099,111.67267403773747 C117.38505589281414,111.67267403773747 115.92701966811677,112.71037549495452 115.84163916847234,114.26035995003815 C115.76282639956978,115.82347986660568 116.80052785678683,117.58363170542941 118.22572542777479,117.58363170542941 z" id="path2909" style="fill:#663366;fill-opacity:1" stroke-width="0"/>
        </g>
        <g id="g2911" style="fill:#663366;fill-opacity:1;fill-rule:evenodd;stroke:none;stroke-width:1pt;stroke-linecap:butt;stroke-linejoin:miter" stroke-width="0">
          <path d="M125.33856920148432,135.9732603814357 C125.33856920148432,135.9732603814357 127.07245011734062,128.5779955660788 127.07245011734062,128.5779955660788 C127.9722292289782,124.81468585098162 129.9097097978328,123.4945719718637 131.50566836810964,123.4945719718637 C132.76667267055058,123.4945719718637 133.13446559209586,124.03312589269785 133.07535601541895,124.81468585098162 C133.04251736170954,125.44518800220203 132.94400140058136,126.10852880713196 132.81264678574374,126.69962457390113 C132.81264678574374,126.69962457390113 130.60588925647207,135.9732603814357 130.60588925647207,135.9732603814357 C130.60588925647207,135.9732603814357 135.50541638991456,135.9732603814357 135.50541638991456,135.9732603814357 C135.50541638991456,135.9732603814357 137.83039307254006,126.24645115271142 137.83039307254006,126.24645115271142 C138.0077218025708,125.40578161775079 138.20475372482724,124.15134504605169 138.2441601092785,123.38948827999366 C138.38865018559986,120.42744171540573 136.91091076867687,119.35033387373744 134.19187024153854,119.35033387373744 C132.01138363523438,119.35033387373744 129.89000660560714,120.36176440798693 128.21523526642775,122.55538647577487 C128.21523526642775,122.55538647577487 128.14955795900894,122.55538647577487 128.14955795900894,122.55538647577487 C128.14955795900894,122.55538647577487 128.5961636494568,119.5539335267357 128.5961636494568,119.5539335267357 C128.5961636494568,119.5539335267357 124.27459682129975,119.5539335267357 124.27459682129975,119.5539335267357 C123.99218439939892,120.95942790549805 123.6309592085955,122.66047016764492 123.11867621072886,124.64392485169276 C123.11867621072886,124.64392485169276 120.43904206804183,135.9732603814357 120.43904206804183,135.9732603814357 C120.43904206804183,135.9732603814357 125.33856920148432,135.9732603814357 125.33856920148432,135.9732603814357 z" id="path2913" style="fill:#663366;fill-opacity:1" stroke-width="0"/>
        </g>
        <g id="g2915" style="fill:#663366;fill-opacity:1;fill-rule:evenodd;stroke:none;stroke-width:1pt;stroke-linecap:butt;stroke-linejoin:miter" stroke-width="0">
          <path d="M146.42099169244182,135.97326930930546 C146.42099169244182,135.97326930930546 151.3205188258843,135.97326930930546 151.3205188258843,135.97326930930546 C151.3205188258843,135.97326930930546 153.52727635515598,126.7784462706735 153.52727635515598,126.7784462706735 C153.52727635515598,126.7784462706735 161.48079828357265,126.7784462706735 161.48079828357265,126.7784462706735 C161.48079828357265,126.7784462706735 162.50536427930592,122.8378078255455 162.50536427930592,122.8378078255455 C162.50536427930592,122.8378078255455 154.51243596643798,122.8378078255455 154.51243596643798,122.8378078255455 C154.51243596643798,122.8378078255455 155.83911757629772,116.92685015785344 155.83911757629772,116.92685015785344 C155.83911757629772,116.92685015785344 164.34432888703233,116.92685015785344 164.34432888703233,116.92685015785344 C164.34432888703233,116.92685015785344 165.36889488276563,112.32943863853745 165.36889488276563,112.32943863853745 C165.36889488276563,112.32943863853745 151.93788551562102,112.32943863853745 151.93788551562102,112.32943863853745 C151.93788551562102,112.32943863853745 146.42099169244182,135.97326930930546 146.42099169244182,135.97326930930546 z" id="path2917" style="fill:#663366;fill-opacity:1" stroke-width="0"/>
        </g>
        <g id="g2919" style="fill:#663366;fill-opacity:1;fill-rule:evenodd;stroke:none;stroke-width:1pt;stroke-linecap:butt;stroke-linejoin:miter" stroke-width="0">
          <path d="M168.39661455659368,135.97326160622538 C168.39661455659368,135.97326160622538 169.8677862427748,129.7995947088582 169.8677862427748,129.7995947088582 C170.64277847031664,126.45661976124131 172.27814342504476,123.49457319665339 175.37154460447024,123.49457319665339 C175.6473892956292,123.49457319665339 175.91666625604628,123.63249554223285 176.12026590904458,123.66533419594225 C176.12026590904458,123.66533419594225 177.31559290406673,118.93000033104681 177.31559290406673,118.93000033104681 C177.03974821290777,118.93000033104681 176.7376325987813,118.89716167733741 176.39611060020354,118.89716167733741 C174.11710803277117,118.89716167733741 172.2058983868841,120.49968797835618 170.93175862295936,122.79839373801417 C170.93175862295936,122.79839373801417 170.80040400812177,122.79839373801417 170.80040400812177,122.79839373801417 C170.99086819963628,121.67531178115269 171.15506146818328,120.61133940096806 171.279848352279,119.55393475152539 C171.279848352279,119.55393475152539 167.05679748525017,119.55393475152539 167.05679748525017,119.55393475152539 C166.8203591785425,120.92002274583649 166.43943079551346,123.5930891577816 165.86803822096988,126.0034463400516 C165.86803822096988,126.0034463400516 163.4642487694418,135.97326160622538 163.4642487694418,135.97326160622538 C163.4642487694418,135.97326160622538 168.39661455659368,135.97326160622538 168.39661455659368,135.97326160622538 z" id="path2921" style="fill:#663366;fill-opacity:1" stroke-width="0"/>
        </g>
        <g id="g2923" style="fill:#663366;fill-opacity:1;fill-rule:evenodd;stroke:none;stroke-width:1pt;stroke-linecap:butt;stroke-linejoin:miter" stroke-width="0">
          <path d="M190.18837217285312,131.54004335545642 C188.82885190928394,132.20338416038624 187.27886745420028,132.03262316109738 185.47274150018328,132.03262316109738 C184.0475439291953,132.03262316109738 182.94416516455948,131.78304939290592 182.3399339363065,131.2970373180068 C182.02468286069626,130.7650511279146 181.89332824585867,129.93751705443765 181.91959916882618,129.40553086434545 C188.57271041035062,129.58285959437615 192.76949035441194,128.0460106007763 192.9796577381521,123.84266292597306 C193.13728327595723,120.67044897764504 190.8188743240736,118.89716167733741 187.44962845348914,118.89716167733741 C181.43358709392706,118.89716167733741 177.49294864879906,124.2038881167764 177.23680714986574,129.31358263395907 C177.01350430464183,133.7730718076956 179.33191325652547,135.97326160622538 184.09351804438847,135.97326160622538 C185.925914921373,135.97326160622538 188.36254302661047,135.76309422248528 190.34599771065822,135.16543072497416 C190.34599771065822,135.16543072497416 190.18837217285312,131.54004335545642 190.18837217285312,131.54004335545642 zM188.38881394957798,123.84266292597306 C188.31000118067544,125.40578284254048 186.3790883425627,125.49773107292685 182.5763722430142,125.46489241921745 C182.99013927975264,124.09223669416451 184.3824981970312,122.83780012246541 186.66150076446354,122.83780012246541 C187.78458272132502,122.83780012246541 188.42822033402928,123.26470262068756 188.38881394957798,123.84266292597306 z" id="path2925" style="fill:#663366;fill-opacity:1" stroke-width="0"/>
        </g>
        <g id="g2927" style="fill:#663366;fill-opacity:1;fill-rule:evenodd;stroke:none;stroke-width:1pt;stroke-linecap:butt;stroke-linejoin:miter" stroke-width="0">
          <path d="M207.59939269171122,131.54004335545642 C206.23987242814206,132.20338416038624 204.68988797305838,132.03262316109738 202.89032974978326,132.03262316109738 C201.4585644480534,132.03262316109738 200.36175341415947,131.78304939290592 199.75752218590648,131.2970373180068 C199.44227111029625,130.7650511279146 199.30434876471676,129.93751705443765 199.3306196876843,129.40553086434545 C205.9902986599506,129.58285959437615 210.18051087327007,128.0460106007763 210.3972459877521,123.84266292597306 C210.55487152555722,120.67044897764504 208.23646257367358,118.89716167733741 204.86721670308913,118.89716167733741 C198.84460761278518,118.89716167733741 194.90396916765718,124.2038881167764 194.64782766872386,129.31358263395907 C194.43109255424181,133.7730718076956 196.74293377538356,135.97326160622538 201.50453856324657,135.97326160622538 C203.34350317097298,135.97326160622538 205.77356354546856,135.76309422248528 207.7635859602582,135.16543072497416 C207.7635859602582,135.16543072497416 207.59939269171122,131.54004335545642 207.59939269171122,131.54004335545642 zM205.80640219917797,123.84266292597306 C205.72758943027543,125.40578284254048 203.7966765921627,125.49773107292685 199.9873927618723,125.46489241921745 C200.40772752935263,124.09223669416451 201.7935187158893,122.83780012246541 204.07252128332166,122.83780012246541 C205.19560324018315,122.83780012246541 205.84580858362926,123.26470262068756 205.80640219917797,123.84266292597306 z" id="path2929" style="fill:#663366;fill-opacity:1" stroke-width="0"/>
        </g>
        <g id="g2931" style="fill:#663366;fill-opacity:1;fill-rule:evenodd;stroke:none;stroke-width:1pt;stroke-linecap:butt;stroke-linejoin:miter" stroke-width="0">
          <path d="M227.06616341876412,111.67267403773747 C227.06616341876412,111.67267403773747 225.22063108029585,119.13361616051316 225.22063108029585,119.13361616051316 C224.55072254462408,118.85777146935413 223.67721435595405,118.89717785380549 222.9941703587985,118.89717785380549 C216.70228430807748,118.89717785380549 212.24936286508282,124.28271706214707 211.95381498169823,130.11486196093654 C211.75678305944183,134.2262614053534 213.95040512722974,135.97327778269346 216.77452934623815,135.97327778269346 C218.75141629954402,135.97327778269346 220.83338694472,135.09976959402343 222.40964232277116,132.84047021881668 C222.40964232277116,132.84047021881668 222.47531963018997,132.84047021881668 222.47531963018997,132.84047021881668 C222.47531963018997,132.84047021881668 222.10095897790285,135.97327778269346 222.10095897790285,135.97327778269346 C222.10095897790285,135.97327778269346 226.55388042089749,135.97327778269346 226.55388042089749,135.97327778269346 C226.75748007389575,134.0029585601295 227.18438257211795,131.65827868527833 227.66382691627518,129.51719846342542 C227.66382691627518,129.51719846342542 231.92628416775528,111.67267403773747 231.92628416775528,111.67267403773747 C231.92628416775528,111.67267403773747 227.06616341876412,111.67267403773747 227.06616341876412,111.67267403773747 zM223.23060866550617,127.71107250940838 C222.46218416870624,130.9489637651552 220.64949048394735,132.03263933756546 219.21772518221752,132.03263933756546 C217.79252761122956,132.03263933756546 216.99783219146207,131.0409119955416 217.09634815259028,129.2741924259759 C217.26054142113728,126.00346251651968 219.50670533486024,122.83781629893349 222.42934551499684,122.83781629893349 C223.25031185773184,122.83781629893349 223.95305904711302,122.96260318302916 224.34055516088392,123.1464996438018 C224.34055516088392,123.1464996438018 223.23060866550617,127.71107250940838 223.23060866550617,127.71107250940838 z" id="path2933" style="fill:#663366;fill-opacity:1" stroke-width="0"/>
        </g>
        <g id="g2935" style="fill:#663366;fill-opacity:1;fill-rule:evenodd;stroke:none;stroke-width:1pt;stroke-linecap:butt;stroke-linejoin:miter" stroke-width="0">
          <path d="M238.23785583997648,135.97326160622538 C243.95178158541205,135.97326160622538 248.35872891321355,131.64512704732647 248.66741225808192,125.75387257186014 C248.85787644959646,121.85264051118338 246.42781607510085,118.89716167733741 241.9420559783968,118.89716167733741 C236.01796284922102,118.89716167733741 231.7686410592247,123.69160511890982 231.47309317584006,129.48434363324793 C231.2694935228418,133.70082676953496 233.9885340499801,135.97326160622538 238.23785583997648,135.97326160622538 zM239.00628033677646,132.03262316109738 C237.33807672833893,132.03262316109738 236.4185944244757,130.96865078091287 236.51711038560393,129.37925994137788 C236.64846500044155,126.73246445240022 238.28382995516967,122.83780012246541 241.10138644343618,122.83780012246541 C243.04543474303262,122.83780012246541 243.64309824054374,124.32867500087218 243.56428547164114,125.79327895631138 C243.4197953953198,128.68308048273866 241.65964355649595,132.03262316109738 239.00628033677646,132.03262316109738 z" id="path2937" style="fill:#663366;fill-opacity:1" stroke-width="0"/>
        </g>
        <g id="g2939" style="fill:#663366;fill-opacity:1;fill-rule:evenodd;stroke:none;stroke-width:1pt;stroke-linecap:butt;stroke-linejoin:miter" stroke-width="0">
          <path d="M254.75572164179545,135.97326160622538 C254.75572164179545,135.97326160622538 256.529008942103,128.47291309899845 256.529008942103,128.47291309899845 C257.2711625159355,125.12993815138157 259.12326258514565,122.83780012246541 260.7848984628413,122.83780012246541 C261.98022545786347,122.83780012246541 262.30861199495746,123.71130831113544 262.24950241828054,124.85409346022254 C262.21666376457114,125.44518922699172 262.0853091497335,126.10853003192165 261.94738680415406,126.76530310610963 C261.94738680415406,126.76530310610963 259.7537647363661,135.97326160622538 259.7537647363661,135.97326160622538 C259.7537647363661,135.97326160622538 264.4825308705197,135.97326160622538 264.4825308705197,135.97326160622538 C264.4825308705197,135.97326160622538 266.2558181708273,128.44007444528904 266.2558181708273,128.44007444528904 C267.07021678282047,124.992015805802 268.8172331601605,122.83780012246541 270.44603038414675,122.83780012246541 C271.56911234100824,122.83780012246541 272.03542122368174,123.6390632729748 271.9828793777467,124.7818484220619 C271.9500407240373,125.44518922699172 271.8121183784578,126.17420733934046 271.64135737916894,126.83754814427027 C271.64135737916894,126.83754814427027 269.5134126187998,135.97326160622538 269.5134126187998,135.97326160622538 C269.5134126187998,135.97326160622538 274.2750174066628,135.97326160622538 274.2750174066628,135.97326160622538 C274.2750174066628,135.97326160622538 276.5671554355789,126.2464523775011 276.5671554355789,126.2464523775011 C276.74448416560966,125.37294418883107 276.948083818608,124.01342392526192 276.9809224723174,123.3172444666227 C277.12541254863874,120.42744294019542 275.7133504391345,118.89716167733741 273.16507091128506,118.89716167733741 C270.9845843049809,118.89716167733741 268.86320727535366,119.88232128861944 267.2541132435931,121.95772420305354 C267.19500366691614,120.46028159390482 266.12446355598973,118.89716167733741 263.4711003362702,118.89716167733741 C261.32345238367543,118.89716167733741 259.2743203922089,119.86918582713565 257.6323877067389,122.06937562566543 C257.6323877067389,122.06937562566543 257.5667103993201,122.06937562566543 257.5667103993201,122.06937562566543 C257.5667103993201,122.06937562566543 258.00674835902606,119.55393475152539 258.00674835902606,119.55393475152539 C258.00674835902606,119.55393475152539 253.7902652227391,119.55393475152539 253.7902652227391,119.55393475152539 C253.51442053158013,120.95942913028773 253.17946626374425,122.6604713924346 252.6671832658776,124.64392607648244 C252.6671832658776,124.64392607648244 250.02695550764184,135.97326160622538 250.02695550764184,135.97326160622538 C250.02695550764184,135.97326160622538 254.75572164179545,135.97326160622538 254.75572164179545,135.97326160622538 z" id="path2941" style="fill:#663366;fill-opacity:1" stroke-width="0"/>
        </g>
      </g><path xmlns:sodipodi="http://sodipodi.sourceforge.net/DTD/sodipodi-0.dtd" id="path2943" sodipodi:nodetypes="cccccssccccscccsccc" d="M208.1814362878418,91.90676996093748 C208.4480962878418,92.59213996093752 208.71463628784178,93.27646996093745 208.9923662878418,93.94573996093754 C209.4200962878418,94.8550699609375 209.9143662878418,95.72547996093749 210.5087562878418,96.53800996093753 C213.7192662878418,100.90213996093746 219.0959162878418,103.2916699609375 225.9222862878418,103.88662996093751 C225.9222862878418,103.88662996093751 233.26530628784178,103.88662996093751 233.26530628784178,103.88662996093751 C235.58703628784178,103.70546996093753 238.01994628784178,103.3678099609375 240.5416662878418,102.87455996093752 C244.8907262878418,102.02412996093744 249.5009562878418,100.71777996093749 254.28892628784178,98.97194996093754 C257.9159762878418,97.64949996093753 261.6430262878418,96.08482996093755 265.42554628784177,94.26627996093748 C273.6628362878418,90.31754996093753 282.1722562878418,85.2247999609375 290.5206062878418,79.0787699609375 C293.2700662878418,77.0563499609375 295.9083262878418,74.98118996093751 298.4412362878418,72.8710999609375 C300.7629662878418,70.93930996093752 302.9902862878418,68.97738996093744 305.1177262878418,66.99389996093748 C311.0553162878418,61.27170996093753 315.5378162878418,55.460139960937454 318.0762062878418,50.3572299609375 C320.7200662878418,45.04324996093749 321.2477862878418,40.499789960937505 319.0815362878418,37.63755996093755 C317.7540662878418,35.880659960937464 315.5322262878418,34.93912996093752 312.6717062878418,34.71756996093745 C325.5580362878418,25.04836996093752 333.0676062878418,13.319069960937554 330.3737462878418,5.923879960937484 C329.5182962878418,3.5637999609374447 327.6353662878418,1.8030199609374904 324.9359062878418,0.8292999609375329 C323.7361762878418,0.39780996093747945 322.3864462878418,0.12441996093753005 320.9144662878418,-0.000010039062544819899 C320.9144662878418,-0.000010039062544819899 316.9486162878418,-0.000010039062544819899 316.9486162878418,-0.000010039062544819899 C311.4108962878418,0.39940996093753256 303.3578562878418,2.3823299609374544 296.5258862878418,5.730509960937525 " style="fill:#ffffff;fill-opacity:0;fill-rule:evenodd;stroke:#663266;stroke-width:3.28386545;stroke-linecap:butt;stroke-linejoin:miter;stroke-miterlimit:4;stroke-opacity:1" class=""/>
      <path d="M28.6849872878418,2.5690899609375037 C28.6849872878418,2.5690899609375037 5.8415972878418,102.23439996093748 5.8415972878418,102.23439996093748 C5.8481772878418,102.23439996093748 65.9330162878418,102.23439996093748 65.9461562878418,102.23439996093748 C92.37099628784179,102.23439996093748 171.6249962878418,102.23439996093748 171.6249962878418,102.23439996093748 C171.6251162878418,102.23439996093748 226.58870628784177,102.23439996093748 226.58870628784177,102.23439996093748 C220.04074628784178,101.66294996093745 214.8710562878418,99.36428996093753 211.7907962878418,95.17412996093753 C211.21946628784178,94.39903996093744 210.7473362878418,93.5641399609375 210.3336462878418,92.69064996093755 C210.0708762878418,92.04705996093753 209.8238462878418,91.39764996093754 209.5741962878418,90.74093996093745 C208.9173762878418,88.65230996093749 208.6555062878418,86.33480996093749 208.7737662878418,83.86525996093746 C209.1021862878418,76.98225996093754 212.3318662878418,68.79497996093755 217.9275762878418,60.22139996093745 C223.87132628784178,51.11005996093752 232.48576628784178,41.56037996093755 243.15174628784177,32.69856996093745 C245.54241628784177,30.713819960937485 248.01436628784182,28.753839960937512 250.6019562878418,26.84909996093745 C253.80047628784178,24.49598996093755 257.0236562878418,22.328709960937545 260.2483262878418,20.301949960937463 C272.1293262878418,12.82193996093747 283.9808662878418,7.587979960937446 294.4826962878418,4.9293999609375305 C284.4471762878418,8.203369960937493 273.1728962878418,13.761519960937449 262.0339962878418,21.328169960937544 C261.6333262878418,21.598709960937526 261.2376762878418,21.875869960937507 260.8435062878418,22.149149960937507 C254.66334628784182,26.431309960937483 249.0643362878418,30.979109960937535 244.1779662878418,35.57187996093751 C228.4547362878418,50.35585996093755 220.14416628784178,65.67509996093747 223.9206462878418,74.6499199609375 C224.18992628784179,75.26724996093753 224.51091628784178,75.85672996093751 224.88522628784182,76.4150499609375 C228.9441062878418,82.38504996093752 239.0033662878418,83.41697996093751 251.75134628784178,80.21194996093755 C252.6183262878418,79.9952899609375 253.4853062878418,79.74974996093749 254.37842628784182,79.49359996093744 C258.4504362878418,78.31805996093749 262.7736962878418,76.73021996093746 267.2266262878418,74.77308996093745 C268.29714628784177,74.30015996093755 269.3791862878418,73.81421996093752 270.4694462878418,73.29528996093745 C270.5810862878418,73.24277996093747 270.6861062878418,73.19026996093748 270.7977462878418,73.1311399609375 C284.85275628784177,66.14768996093756 295.6542262878418,58.1122299609375 297.9922762878418,53.28429996093746 C298.5045962878418,52.23410996093753 298.6277562878418,51.338709960937535 298.2795962878418,50.636669960937525 C296.6113862878418,47.2542499609375 284.9381462878418,49.53933996093747 270.7977462878418,55.665049960937495 C269.6615962878418,56.15771996093747 268.5122062878418,56.66455996093748 267.3496862878418,57.204379960937445 C268.2954262878418,56.32632996093753 269.2798762878418,55.44484996093752 270.2846362878418,54.57729996093747 C271.8872062878418,53.196749960937495 273.5463962878418,51.846789960937485 275.3131162878418,50.51349996093745 C278.0780962878418,48.41973996093748 280.8734362878418,46.52687996093755 283.62540628784177,44.848849960937514 C296.5112762878418,35.12725996093752 303.0256762878418,25.931209960937508 301.6661262878418,22.51853996093746 C301.4099762878418,21.875529960937456 300.8649062878418,21.43329996093746 300.0241762878418,21.163899960937556 C297.3379662878418,20.30947996093755 292.4351562878418,21.329309960937508 286.4782762878418,23.7705499609375 C281.5655362878418,25.785559960937462 275.9230362878418,28.773929960937494 270.2025562878418,32.49331996093747 C270.2025562878418,32.49331996093747 269.4226762878418,33.00643996093754 269.4226762878418,33.00643996093754 C269.4226762878418,33.00643996093754 269.2789562878418,33.08850996093747 269.2789562878418,33.08850996093747 C269.2789562878418,33.08850996093747 266.5288262878418,34.915159960937444 266.5288262878418,34.915159960937444 C266.5288262878418,34.915159960937444 268.1091362878418,32.021309960937515 268.1091362878418,32.021309960937515 C270.4538062878418,27.72920996093751 274.2729762878418,23.251049960937507 279.0279562878418,19.091029960937476 C282.5153962878418,16.049459960937497 286.4996262878418,13.1836899609375 290.7882962878418,10.676119960937513 C292.4104962878418,9.726379960937493 294.0303062878418,8.844339960937532 295.6525162878418,8.049039960937534 C297.3142162878418,7.23719996093746 298.9766062878418,6.515759960937544 300.59881628784177,5.8734299609375284 C305.3118962878418,4.0095599609375085 310.4893562878418,1.6557599609375302 314.4128562878418,1.347779960937487 C314.0555562878418,1.347779960937487 302.7128962878418,2.5690899609375037 302.7128962878418,2.5690899609375037 C302.7128962878418,2.5690899609375037 265.5641262878418,2.5690899609375037 265.5641262878418,2.5690899609375037 C265.5641262878418,2.5690899609375037 101.7608662878418,2.5690899609375037 101.7608662878418,2.5690899609375037 C101.7608662878418,2.5690899609375037 28.6849872878418,2.5690899609375037 28.6849872878418,2.5690899609375037 zM206.6187062878418,2.7127999609374456 C205.9751162878418,12.536109960937551 207.8797362878418,26.924329960937484 212.2012862878418,42.89902996093747 C212.9697462878418,45.74151996093747 213.8062562878418,48.634339960937496 214.7257462878418,51.56026996093749 C215.2971862878418,53.36705996093747 215.8866662878418,55.145539960937526 216.49086628784178,56.896509960937465 C216.13619628784178,57.41795996093754 215.7791362878418,57.93619996093753 215.4440962878418,58.456389960937486 C210.0520362878418,66.71981996093746 206.9003162878418,74.52925996093745 206.1055962878418,81.32024996093753 C203.8265562878418,73.68853996093753 202.1108662878418,65.32933996093755 201.1387462878418,56.4654799609375 C200.8629562878418,53.92582996093745 200.6470962878418,51.41449996093752 200.5025862878418,48.93318996093751 C199.43857628784178,30.909359960937536 201.79146628784179,14.570739960937544 206.6187062878418,2.7127999609374456 zM99.0106162878418,15.499249960937505 C99.1335562878418,15.496399960937538 99.2547862878418,15.499249960937505 99.38001628784178,15.499249960937505 C99.38001628784178,15.499249960937505 123.6601462878418,15.499249960937505 123.6601462878418,15.499249960937505 C125.7355362878418,15.499249960937505 127.3405062878418,15.888279960937552 128.4832762878418,16.6691899609375 C129.6194262878418,17.454669960937508 130.0455562878418,18.470729960937547 129.7762662878418,19.70675996093746 C129.7762662878418,19.70675996093746 126.8824162878418,32.78063996093749 126.8824162878418,32.78063996093749 C126.8824162878418,32.78063996093749 118.32379628784179,32.78063996093749 118.32379628784179,32.78063996093749 C118.32379628784179,32.78063996093749 121.13557628784179,20.055719960937495 121.13557628784179,20.055719960937495 C121.13557628784179,20.055719960937495 99.7084262878418,20.055719960937495 99.7084262878418,20.055719960937495 C99.7084262878418,20.055719960937495 91.97078628784179,55.02876996093755 91.97078628784179,55.02876996093755 C91.97078628784179,55.02876996093755 89.1794362878418,67.69226996093755 89.1794362878418,67.69226996093755 C89.1794362878418,67.69226996093755 110.58614628784179,67.69226996093755 110.58614628784179,67.69226996093755 C110.58614628784179,67.69226996093755 110.6066962878418,67.6101999609375 110.6066962878418,67.6101999609375 C110.6066962878418,67.6101999609375 114.8962762878418,48.235269960937444 114.8962762878418,48.235269960937444 C114.8962762878418,48.235269960937444 104.8394262878418,48.235269960937444 104.8394262878418,48.235269960937444 C104.8394262878418,48.235269960937444 105.8041162878418,43.86371996093749 105.8041162878418,43.86371996093749 C105.8041162878418,43.86360996093754 124.4194862878418,43.86371996093749 124.4194862878418,43.86371996093749 C124.4194862878418,43.86360996093754 119.0832462878418,68.04111996093752 119.0832462878418,68.04111996093752 C119.0109862878418,68.38528996093748 118.88450628784179,68.69703996093745 118.71373628784178,69.00581996093752 C118.2736762878418,69.80703996093746 117.5061262878418,70.49331996093747 116.43561628784181,71.05825996093745 C114.95130628784179,71.83973996093755 113.1747662878418,72.22807996093752 111.0992562878418,72.22807996093752 C111.0992562878418,72.22807996093752 86.8397862878418,72.22807996093752 86.8397862878418,72.22807996093752 C84.76439628784179,72.22807996093752 83.1594262878418,71.83973996093755 82.01654628784179,71.05825996093745 C80.88039628784179,70.27665996093754 80.4477062878418,69.2785199609375 80.7235562878418,68.04111996093752 C80.7235562878418,68.04111996093752 91.4166962878418,19.70675996093746 91.4166962878418,19.70675996093746 C91.6924862878418,18.470729960937547 92.5528462878418,17.454669960937508 94.0436562878418,16.6691899609375 C94.09628628784179,16.64087996093747 94.1554162878418,16.634489960937458 94.20792628784179,16.607659960937553 C95.5687262878418,15.92605996093755 97.1657062878418,15.542859960937449 99.0106162878418,15.499249960937505 zM137.0624462878418,15.499249960937505 C137.06232628784178,15.499249960937505 167.6228462878418,15.499249960937505 167.6228462878418,15.499249960937505 C169.6719762878418,15.499249960937505 171.2826562878418,15.888279960937552 172.4255462878418,16.6691899609375 C173.5748162878418,17.454669960937508 174.0148762878418,18.470729960937547 173.7390862878418,19.70675996093746 C173.7390862878418,19.70675996093746 168.0333362878418,45.485129960937456 168.0333362878418,45.485129960937456 C167.7640562878418,46.71328996093746 166.8831462878418,47.715309960937475 165.3857062878418,48.50215996093755 C163.8882662878418,49.291629960937485 162.1256562878418,49.69252996093746 160.0698962878418,49.69252996093746 C160.0698962878418,49.69252996093746 137.8627562878418,49.69252996093746 137.8627562878418,49.69252996093746 C137.8627562878418,49.69252996093746 133.5732862878418,69.0467999609375 133.5732862878418,69.0467999609375 C133.5732862878418,69.0467999609375 132.8754762878418,72.22807996093752 132.8754762878418,72.22807996093752 C132.8754762878418,72.22807996093752 124.5015562878418,72.22807996093752 124.5015562878418,72.22807996093752 C124.5015562878418,72.22807996093752 125.1378362878418,69.35465996093751 125.1378362878418,69.35465996093751 C125.1378362878418,69.35465996093751 137.0624462878418,15.499249960937505 137.0624462878418,15.499249960937505 zM179.2805662878418,15.499249960937505 C179.2805662878418,15.499249960937505 187.65437628784179,15.499249960937505 187.65437628784179,15.499249960937505 C187.65437628784179,15.499249960937505 178.1722662878418,58.33321996093753 178.1722662878418,58.33321996093753 C178.1722662878418,58.33321996093753 176.0992762878418,67.69226996093755 176.0992762878418,67.69226996093755 C176.0992762878418,67.69226996093755 196.1309262878418,67.69226996093755 196.1309262878418,67.69226996093755 C196.3410762878418,69.22840996093748 196.5864962878418,70.73726996093751 196.8492762878418,72.22807996093752 C196.8492762878418,72.22807996093752 166.7197962878418,72.22807996093752 166.7197962878418,72.22807996093752 C166.7197962878418,72.22807996093752 169.1005362878418,61.47341996093746 169.1005362878418,61.47341996093746 C169.1005362878418,61.47341996093746 179.2805662878418,15.499249960937505 179.2805662878418,15.499249960937505 zM144.4305762878418,20.055719960937495 C144.4305762878418,20.055719960937495 138.8684362878418,45.136169960937536 138.8684362878418,45.136169960937536 C138.8684362878418,45.136169960937536 159.7415962878418,45.136169960937536 159.7415962878418,45.136169960937536 C159.7415962878418,45.136169960937536 165.2830862878418,20.055719960937495 165.2830862878418,20.055719960937495 C165.2830862878418,20.055719960937495 144.4305762878418,20.055719960937495 144.4305762878418,20.055719960937495 zM99.9215462878418,79.24999996093754 C100.00350628784179,79.24713996093749 100.08535628784179,79.24999996093754 100.16788628784181,79.24999996093754 C101.13988628784179,79.24999996093754 101.98882628784179,79.42064996093745 102.6717962878418,79.74255996093746 C103.40088628784179,80.08409996093746 103.92221628784179,80.59138996093748 104.21113628784181,81.26134996093754 C104.49354628784181,81.91154996093746 104.5673962878418,82.64953996093755 104.41637628784179,83.45738996093746 C104.41637628784179,83.45738996093746 104.35484628784181,83.76525996093756 104.35484628784181,83.76525996093756 C104.35484628784181,83.76525996093756 101.95355628784179,83.76525996093756 101.95355628784179,83.76525996093756 C101.95344628784179,83.76525996093756 101.9739862878418,83.47793996093753 101.9739862878418,83.47793996093753 C102.03608628784178,82.91345996093753 101.9661162878418,82.46963996093746 101.74831628784179,82.16439996093754 C101.7198862878418,82.12615996093746 101.6786862878418,82.07558996093746 101.6455762878418,82.04122996093747 C101.5914662878418,81.98586996093752 101.5100762878418,81.92273996093752 101.44044628784181,81.87707996093752 C101.1043862878418,81.66532996093747 100.5788362878418,81.54866996093745 99.9011162878418,81.54866996093745 C99.00125628784178,81.54866996093745 98.32890628784179,81.70539996093748 97.8692162878418,82.02067996093751 C97.42254628784178,82.32934996093752 97.14013628784178,82.67419996093747 97.0482362878418,83.08799996093751 C96.95623628784179,83.5082999609375 97.1072562878418,83.72918996093745 97.21238628784181,83.84732996093749 C97.21569628784181,83.85063996093754 97.22894628784181,83.86422996093745 97.2329362878418,83.86787996093744 C97.36603628784181,83.98122996093753 97.8281262878418,84.24720996093754 99.2648362878418,84.58623996093752 C100.5652462878418,84.90151996093755 101.42640628784179,85.18472996093749 101.9124662878418,85.42775996093746 C102.6480562878418,85.80205996093753 103.1619662878418,86.28731996093745 103.43124628784179,86.88489996093745 C103.7005362878418,87.47609996093752 103.75966628784181,88.16807996093746 103.5953962878418,88.91679996093751 C103.43124628784179,89.64588996093755 103.0593462878418,90.31823996093749 102.5076462878418,90.94869996093746 C101.96257628784178,91.57915996093755 101.2688762878418,92.07833996093746 100.43465628784179,92.42649996093746 C99.60717628784181,92.76803996093747 98.69921628784181,92.96004996093745 97.7665962878418,92.96004996093745 C96.5843262878418,92.96004996093745 95.6352762878418,92.78116996093752 94.89317628784178,92.42649996093746 C94.11819628784178,92.05870996093745 93.5590862878418,91.47824996093755 93.2307862878418,90.7229099609375 C92.91549628784179,89.98742996093745 92.8481562878418,89.15240996093746 93.0254262878418,88.23953996093746 C93.0254262878418,88.23953996093746 93.0870662878418,87.95221996093755 93.0870662878418,87.95221996093755 C93.0870662878418,87.95221996093755 95.44737628784179,87.95221996093755 95.44737628784179,87.95221996093755 C95.44737628784179,87.95221996093755 95.42683628784181,88.23953996093746 95.42683628784181,88.23953996093746 C95.3677062878418,88.78460996093747 95.42603628784181,89.22466996093749 95.5704362878418,89.55307996093745 C95.70844628784181,89.86836996093746 95.97110628784179,90.1294299609375 96.39141628784179,90.3329599609375 C96.8380862878418,90.54973996093747 97.3962862878418,90.66137996093755 98.0333662878418,90.66137996093755 C98.6048062878418,90.66137996093755 99.1269362878418,90.56537996093755 99.5932462878418,90.39460996093749 C100.05293628784179,90.2303399609375 100.41833628784181,90.01367996093745 100.6809962878418,89.73777996093747 C100.93715628784179,89.46198996093744 101.0873762878418,89.1704499609375 101.15301628784181,88.85526996093745 C101.21876628784179,88.57285996093754 101.2031262878418,88.33393996093753 101.0914862878418,88.13691996093746 C100.96671628784179,87.92676996093746 100.71957628784179,87.74035996093755 100.33203628784179,87.58282996093749 C100.33203628784179,87.58270996093745 98.3206862878418,86.98752996093754 98.3206862878418,86.98752996093754 C97.1976662878418,86.70511996093751 96.44152628784181,86.43582996093755 96.0014762878418,86.16654996093746 C95.4037762878418,85.81198996093747 94.97285628784181,85.35709996093749 94.74945628784181,84.81202996093748 C94.52617628784179,84.27345996093754 94.50243628784179,83.67655996093754 94.64694628784179,83.0263599609375 C94.7979762878418,82.33014996093755 95.13369628784179,81.66772996093755 95.6526262878418,81.07664996093752 C96.1780662878418,80.47894996093748 96.85612628784179,80.01012996093755 97.66397628784179,79.70146996093752 C98.37821628784181,79.43366996093755 99.1297962878418,79.27658996093749 99.9215462878418,79.24999996093754 zM121.47197628784178,79.29097996093753 C121.6018762878418,79.28092996093756 121.72402628784181,79.29097996093753 121.86191628784181,79.29097996093753 C121.86191628784181,79.29097996093753 123.3396062878418,79.45512996093748 123.3396062878418,79.45512996093748 C123.3396062878418,79.45512996093748 123.8321762878418,79.49621996093754 123.8321762878418,79.49621996093754 C123.83228628784181,79.49621996093754 123.11392628784179,81.32286996093751 123.11392628784179,81.32286996093751 C123.11392628784179,81.32286996093751 122.9702162878418,81.61018996093753 122.9702162878418,81.61018996093753 C122.9702162878418,81.61018996093753 121.8413662878418,81.50756996093753 121.8413662878418,81.50756996093753 C121.50804628784181,81.50756996093753 121.2631962878418,81.5590499609375 121.10246628784179,81.67183996093752 C121.09185628784181,81.67982996093747 121.0713062878418,81.70424996093755 121.0614862878418,81.71281996093751 C121.0399162878418,81.73175996093755 121.0037262878418,81.76463996093753 120.97941628784179,81.7949999609375 C120.88055628784178,81.92456996093745 120.7602462878418,82.1561799609375 120.6715462878418,82.57488996093753 C120.6715462878418,82.57488996093753 120.62885628784178,82.75215996093755 120.58947628784179,82.90329996093749 C121.10828628784179,82.90329996093749 122.35448628784181,82.90329996093749 122.35448628784181,82.90329996093749 C122.35448628784181,82.90329996093749 121.90301628784181,84.93519996093755 121.90301628784181,84.93519996093755 C121.90301628784181,84.93519996093755 120.6124162878418,84.93519996093755 120.17898628784181,84.93519996093755 C120.0475962878418,85.5262699609375 118.4344062878418,92.75479996093748 118.4344062878418,92.75479996093748 C118.4344062878418,92.75479996093748 116.05354628784178,92.75479996093748 116.05354628784178,92.75479996093748 C116.05354628784178,92.75479996093748 117.60109628784178,85.80867996093752 117.7981262878418,84.93519996093755 C117.3974562878418,84.93519996093755 116.4230562878418,84.93519996093755 116.4230562878418,84.93519996093755 C116.4230562878418,84.93519996093755 116.8745262878418,82.90329996093749 116.8745262878418,82.90329996093749 C116.8745262878418,82.90329996093749 117.8547462878418,82.90329996093749 118.22916628784179,82.90329996093749 C118.29479628784179,82.62088996093746 118.3933062878418,82.26701996093755 118.3933062878418,82.26701996093755 C118.5378262878418,81.61018996093753 118.68884628784178,81.13817996093746 118.8858762878418,80.80975996093753 C119.15527628784179,80.35657996093755 119.53528628784179,79.9773699609375 120.0147162878418,79.70146996093752 C120.4096862878418,79.47201996093747 120.9090962878418,79.33480996093749 121.47197628784178,79.29097996093753 zM127.15717628784179,79.39359996093754 C127.15717628784179,79.39359996093754 126.53482628784181,82.19395996093749 126.3772962878418,82.90329996093749 C126.8369862878418,82.90329996093749 127.9165162878418,82.90329996093749 127.9165162878418,82.90329996093749 C127.9165162878418,82.90329996093749 127.4650462878418,84.93519996093755 127.4650462878418,84.93519996093755 C127.4650462878418,84.93519996093755 126.3328862878418,84.93519996093755 125.92570628784179,84.93519996093755 C125.80094628784181,85.49989996093746 124.81741628784181,89.8814999609375 124.81741628784181,89.8814999609375 C124.81741628784181,89.8814999609375 124.73533628784179,90.40772996093744 124.73533628784179,90.55875996093755 C124.7354562878418,90.5637799609375 124.73488628784179,90.57553996093748 124.73533628784179,90.57929996093753 C124.73567628784178,90.58089996093747 124.73488628784179,90.59847996093754 124.73533628784179,90.59984996093749 C124.7359062878418,90.6008799609375 124.7549762878418,90.59904996093746 124.7557762878418,90.59984996093749 C124.7557762878418,90.59984996093749 125.0021062878418,90.62027996093752 125.0021062878418,90.62027996093752 C125.0021062878418,90.62027996093752 126.1309562878418,90.53820996093748 126.1309562878418,90.53820996093748 C126.1309562878418,90.53820996093748 126.00778628784181,92.36485996093745 126.00778628784181,92.36485996093745 C126.00778628784181,92.36485996093745 126.0283362878418,92.69326996093753 126.0283362878418,92.69326996093753 C126.0283362878418,92.69326996093753 124.4069262878418,92.87796996093755 124.4069262878418,92.87796996093755 C123.76333628784181,92.87796996093755 123.29120628784179,92.77294996093747 122.94966628784181,92.54955996093747 C122.58849628784179,92.3131499609375 122.37833628784179,91.99957996093747 122.2929562878418,91.6055199609375 C122.27982628784179,91.53326996093745 122.2518562878418,91.42812996093755 122.2518562878418,91.27710996093754 C122.2518562878418,90.98156996093746 122.30767628784179,90.48158996093753 122.49819628784181,89.61460996093751 C122.49819628784181,89.61460996093751 123.36095628784179,85.74954996093754 123.54485628784181,84.93519996093755 C123.2361862878418,84.93519996093755 122.41612628784179,84.93519996093755 122.41612628784179,84.93519996093755 C122.41612628784179,84.93519996093755 122.86759628784179,82.90329996093749 122.86759628784179,82.90329996093749 C122.86759628784179,82.90329996093749 123.6680262878418,82.90329996093749 123.99643628784179,82.90329996093749 C124.10156628784179,82.43036996093747 124.4684562878418,80.80975996093753 124.4684562878418,80.80975996093753 C124.4684562878418,80.80975996093753 126.3772962878418,79.80408996093752 126.3772962878418,79.80408996093752 C126.3772962878418,79.80408996093752 127.15717628784179,79.39359996093754 127.15717628784179,79.39359996093754 zM51.5256372878418,79.47566996093747 C51.5256372878418,79.47566996093747 60.761507287841795,79.47566996093747 60.761507287841795,79.47566996093747 C60.761507287841795,79.47566996093747 60.2484072878418,81.77445996093752 60.2484072878418,81.77445996093752 C60.2484072878418,81.77445996093752 54.0870572878418,81.77445996093752 53.49595728784179,81.77445996093752 C53.390897287841796,82.24076996093754 52.969737287841795,84.12894996093746 52.818677287841794,84.81202996093748 C53.672487287841804,84.81202996093748 58.6680472878418,84.81202996093748 58.6680472878418,84.81202996093748 C58.6680472878418,84.81202996093748 58.15493728784179,87.1106999609375 58.15493728784179,87.1106999609375 C58.15493728784179,87.1106999609375 52.896667287841794,87.1106999609375 52.3055672878418,87.1106999609375 C52.18077728784179,87.68213996093755 51.05358728784179,92.75479996093748 51.05358728784179,92.75479996093748 C51.05358728784179,92.75479996093748 48.570157287841795,92.75479996093748 48.570157287841795,92.75479996093748 C48.570157287841795,92.75479996093748 51.5256372878418,79.47566996093747 51.5256372878418,79.47566996093747 zM63.90171728784179,82.71859996093747 C63.9943772878418,82.70718996093751 64.0956372878418,82.71859996093747 64.1890272878418,82.71859996093747 C64.7801272878418,82.71859996093747 65.32609728784179,82.8983899609375 65.8515072878418,83.27269996093753 C65.8515072878418,83.27269996093753 66.1798962878418,83.49848996093749 66.1798962878418,83.49848996093749 C66.1798962878418,83.49848996093749 64.9073872878418,85.59190996093753 64.9073872878418,85.59190996093753 C64.9073872878418,85.59190996093753 64.5584672878418,85.3455699609375 64.5584672878418,85.3455699609375 C64.3023472878418,85.18141996093755 64.0265072878418,85.0993499609375 63.7375172878418,85.0993499609375 C63.4879372878418,85.0993499609375 63.2556172878418,85.18803996093754 63.0191772878418,85.3455699609375 C62.76959728784179,85.50983996093748 62.561067287841794,85.7274099609375 62.40346728784179,86.02294996093747 C62.1276172878418,86.52863996093754 61.925637287841795,87.09505996093753 61.7877172878418,87.70587996093752 C61.7877172878418,87.70587996093752 60.679397287841795,92.75479996093748 60.679397287841795,92.75479996093748 C60.679397287841795,92.75479996093748 58.29860728784179,92.75479996093748 58.29860728784179,92.75479996093748 C58.29860728784179,92.75479996093748 60.494717287841794,82.90329996093749 60.494717287841794,82.90329996093749 C60.494717287841794,82.90329996093749 62.711317287841794,82.90329996093749 62.711317287841794,82.90329996093749 C62.711317287841794,82.90329996093749 62.634937287841794,83.20203996093755 62.6086772878418,83.31367996093752 C62.7137872878418,83.23490996093744 62.824587287841794,83.12657996093753 62.9165672878418,83.06744996093755 C63.2346672878418,82.87761996093752 63.570677287841804,82.75912996093746 63.90171728784179,82.71859996093747 zM70.96201628784179,82.71859996093747 C71.1053662878418,82.70764996093749 71.2464762878418,82.71859996093747 71.3930362878418,82.71859996093747 C72.73283628784179,82.71859996093747 73.74671628784179,83.18810996093748 74.4100662878418,84.11421996093748 C74.8238362878418,84.71179996093747 75.0463462878418,85.4507099609375 75.0463462878418,86.33080996093747 C75.0463462878418,86.81675996093747 74.98641628784179,87.33979996093751 74.8616262878418,87.9111299609375 C74.8616262878418,87.9111299609375 74.6769062878418,88.62947996093749 74.6769062878418,88.62947996093749 C74.6769062878418,88.62947996093749 68.6559362878418,88.62947996093749 67.9860062878418,88.62947996093749 C67.9728662878418,88.76737996093755 67.96546628784179,88.91519996093746 67.96546628784179,89.03996996093747 C67.96546628784179,89.55227996093754 68.0705762878418,89.9553499609375 68.2938462878418,90.25088996093746 C68.39996628784179,90.39539996093754 68.5229862878418,90.52553996093752 68.6632862878418,90.62027996093752 C68.9278262878418,90.79287996093751 69.2692962878418,90.88716996093751 69.6690062878418,90.88716996093751 C70.1549962878418,90.88716996093751 70.5819062878418,90.75326996093747 70.9825362878418,90.49722996093749 C71.3634462878418,90.25419996093751 71.7279662878418,89.86585996093754 72.0497962878418,89.32728996093749 C72.0497962878418,89.32728996093749 74.5947862878418,89.32728996093749 74.5947862878418,89.32728996093749 C74.5947862878418,89.32728996093749 74.3690462878418,89.81984996093752 74.3690462878418,89.81984996093752 C73.8830162878418,90.8050899609375 73.2048762878418,91.57344996093752 72.35765628784179,92.11863996093746 C71.5104362878418,92.66370996093747 70.4981762878418,92.96004996093745 69.3816462878418,92.96004996093745 C67.9301962878418,92.96004996093745 66.8497962878418,92.49053996093755 66.1798962878418,91.56442996093745 C65.5165472878418,90.6580699609375 65.3736972878418,89.40525996093754 65.7283372878418,87.82904996093748 C66.0830362878418,86.22647996093747 66.79067628784179,84.94580996093748 67.8218062878418,84.05257996093746 C68.7460262878418,83.25122996093751 69.79475628784179,82.80672996093745 70.96201628784179,82.71859996093747 zM81.6551462878418,82.71859996093747 C81.7984062878418,82.70764996093749 81.9396062878418,82.71859996093747 82.0860662878418,82.71859996093747 C83.42597628784179,82.71859996093747 84.4398662878418,83.18810996093748 85.1032062878418,84.11421996093748 C85.51699628784179,84.71179996093747 85.73936628784179,85.4507099609375 85.73936628784179,86.33080996093747 C85.73936628784179,86.81024996093754 85.6794362878418,87.32575996093749 85.5546662878418,87.89057996093754 C85.5546662878418,87.89057996093754 85.3699762878418,88.62947996093749 85.3699762878418,88.62947996093749 C85.3699762878418,88.62947996093749 79.3490062878418,88.62947996093749 78.67910628784179,88.62947996093749 C78.67252628784179,88.72148996093745 78.6651262878418,88.80435996093752 78.6585862878418,88.89624996093755 C78.6536562878418,88.93072996093747 78.6607462878418,88.98311996093753 78.6585862878418,89.01941996093751 C78.6583962878418,89.02535996093752 78.6585862878418,89.03425996093745 78.6585862878418,89.03996996093747 C78.6585862878418,89.1384799609375 78.67252628784179,89.23539996093746 78.67910628784179,89.32728996093749 C78.71192628784179,89.70170996093748 78.8096462878418,90.01447996093748 78.9869662878418,90.25088996093746 C79.0207462878418,90.2968899609375 79.0524762878418,90.3536299609375 79.08956628784179,90.39460996093749 C79.3903762878418,90.71639996093745 79.8161262878418,90.88716996093751 80.3620762878418,90.88716996093751 C80.8480962878418,90.88716996093751 81.2815262878418,90.75326996093747 81.67557628784179,90.49722996093749 C82.05661628784179,90.25419996093751 82.42109628784179,89.86585996093754 82.7428962878418,89.32728996093749 C82.7428962878418,89.32728996093749 85.3083362878418,89.32728996093749 85.3083362878418,89.32728996093749 C85.3083362878418,89.32728996093749 85.0621062878418,89.81984996093752 85.0621062878418,89.81984996093752 C84.57604628784179,90.8050899609375 83.8979862878418,91.57344996093752 83.05075628784179,92.11863996093746 C82.2035262878418,92.66370996093747 81.1912262878418,92.96004996093745 80.0747562878418,92.96004996093745 C78.6232662878418,92.96004996093745 77.5428662878418,92.49053996093755 76.8729762878418,91.56442996093745 C76.4395162878418,90.97334996093753 76.2367362878418,90.22051996093751 76.2367362878418,89.32728996093749 C76.2367362878418,89.18938996093755 76.2440862878418,89.0407699609375 76.2572662878418,88.89624996093755 C76.2835262878418,88.55482996093747 76.3360562878418,88.20996996093754 76.42145628784179,87.82904996093748 C76.7761062878418,86.23309996093747 77.4632562878418,84.94580996093748 78.49438628784179,84.05257996093746 C79.4185762878418,83.25122996093751 80.4878262878418,82.80672996093745 81.6551462878418,82.71859996093747 zM110.77883628784178,82.71859996093747 C110.92552628784179,82.70729996093746 111.06044628784178,82.71859996093747 111.20987628784181,82.71859996093747 C112.57603628784179,82.71859996093747 113.62600628784179,83.18068996093746 114.3089762878418,84.09366996093752 C114.9855462878418,85.00653996093752 115.1496962878418,86.23800996093746 114.8016462878418,87.78795996093754 C114.5323662878418,88.99647996093745 114.1432262878418,89.97258996093751 113.6111662878418,90.68192996093751 C113.0792162878418,91.39125996093753 112.40115628784179,91.97080996093746 111.5998162878418,92.36485996093745 C110.8052062878418,92.75890996093744 109.96367628784179,92.96004996093745 109.1164462878418,92.96004996093745 C107.72402628784181,92.96004996093745 106.6871962878418,92.48391996093756 106.0172362878418,91.56442996093745 C105.58380628784181,90.97985996093746 105.3605262878418,90.22714996093748 105.3605262878418,89.32728996093749 C105.3605262878418,88.84134996093746 105.4138362878418,88.32492996093754 105.54521628784181,87.74697996093755 C105.9392662878418,85.98675996093755 106.7438062878418,84.64616996093753 107.92596628784179,83.78580996093751 C108.7937462878418,83.15933996093747 109.75215628784179,82.7974799609375 110.77883628784178,82.71859996093747 zM146.8398562878418,82.71859996093747 C147.0130262878418,82.7078699609375 147.1732962878418,82.71859996093747 147.3529662878418,82.71859996093747 C148.1804562878418,82.71859996093747 148.8306562878418,82.80227996093754 149.3232262878418,83.00591996093749 C149.8486662878418,83.21607996093746 150.2213662878418,83.5132099609375 150.4315162878418,83.86787996093744 C150.6351662878418,84.20279996093745 150.7393862878418,84.61419996093753 150.7393862878418,85.11988996093748 C150.7393862878418,85.11988996093748 150.4931662878418,86.6181299609375 150.4931662878418,86.6181299609375 C150.4931662878418,86.6181299609375 150.0415762878418,88.65002996093745 150.0415762878418,88.65002996093745 C149.6540362878418,90.38387996093752 149.5687662878418,91.03407996093745 149.5490162878418,91.27710996093754 C149.5292662878418,91.6055199609375 149.55963628784178,91.92560996093755 149.6516362878418,92.22125996093746 C149.6516362878418,92.22125996093746 149.8157862878418,92.75479996093748 149.8157862878418,92.75479996093748 C149.8157862878418,92.75479996093748 147.3939462878418,92.75479996093748 147.3939462878418,92.75479996093748 C147.3939462878418,92.75479996093748 147.2913262878418,92.44693996093747 147.2913262878418,92.44693996093747 C147.2519462878418,92.30252996093748 147.2634762878418,92.11863996093746 147.2503462878418,91.95436996093747 C146.7905462878418,92.2367799609375 146.33005628784178,92.4872299609375 145.9162562878418,92.63162996093752 C145.3054362878418,92.84189996093755 144.6716662878418,92.96004996093745 144.0279662878418,92.96004996093745 C142.9115662878418,92.96004996093745 142.0847662878418,92.66941996093749 141.5855762878418,92.0980899609375 C141.2047662878418,91.67777996093753 141.0314862878418,91.16386996093752 141.0314862878418,90.57929996093753 C141.0314862878418,90.35601996093749 141.0610562878418,90.1245199609375 141.1135662878418,89.8814999609375 C141.2252062878418,89.3823099609375 141.4280562878418,88.92010996093745 141.7498462878418,88.50630996093753 C142.0651262878418,88.09912996093749 142.4378362878418,87.76420996093748 142.8581362878418,87.5211799609375 C143.26531628784178,87.2781599609375 143.7192962878418,87.1057899609375 144.1922262878418,86.98752996093754 C144.1922262878418,86.98752996093754 145.6494862878418,86.74129996093745 145.6494862878418,86.74129996093745 C146.7725062878418,86.60990996093744 147.6107262878418,86.44655996093752 148.2149262878418,86.26916996093746 C148.2280562878418,86.20352996093754 148.2560262878418,86.12556996093747 148.2560262878418,86.12556996093747 C148.3512262878418,85.70297996093745 148.3393562878418,85.38529996093746 148.2354762878418,85.22251996093746 C148.2278262878418,85.21200996093751 148.2030562878418,85.19043996093751 148.1943762878418,85.18141996093755 C148.1722362878418,85.15778996093752 148.1382162878418,85.12068996093751 148.1123062878418,85.0993499609375 C147.8652862878418,84.90391996093751 147.4440662878418,84.81202996093748 146.8808362878418,84.81202996093748 C146.2437562878418,84.81202996093748 145.7725462878418,84.91624996093753 145.4442462878418,85.11988996093748 C145.1223362878418,85.32342996093746 144.8243962878418,85.69612996093747 144.5616262878418,86.22818996093747 C144.5616262878418,86.22818996093747 142.0782562878418,86.22818996093747 142.0782562878418,86.22818996093747 C142.0782562878418,86.22818996093747 142.3039362878418,85.73562996093744 142.3039362878418,85.73562996093744 C142.5994762878418,85.05254996093754 142.9517462878418,84.48600996093751 143.3917962878418,84.05257996093746 C143.8318562878418,83.61914996093753 144.4262362878418,83.28330996093746 145.1158262878418,83.04689996093748 C145.6442362878418,82.87247996093754 146.2213862878418,82.75672996093749 146.8398562878418,82.71859996093747 zM157.2455662878418,82.71859996093747 C157.3382562878418,82.70718996093751 157.4395062878418,82.71859996093747 157.5328862878418,82.71859996093747 C158.1305862878418,82.71859996093747 158.6904962878418,82.8983899609375 159.2159362878418,83.27269996093753 C159.2159362878418,83.27269996093753 159.5237962878418,83.49848996093749 159.5237962878418,83.49848996093749 C159.5237962878418,83.49848996093749 158.2512362878418,85.59190996093753 158.2512362878418,85.59190996093753 C158.2512362878418,85.59190996093753 157.9023962878418,85.3455699609375 157.9023962878418,85.3455699609375 C157.6462362878418,85.18141996093755 157.3842562878418,85.0993499609375 157.1019662878418,85.0993499609375 C156.8523162878418,85.0993499609375 156.6059762878418,85.18803996093754 156.3630562878418,85.3455699609375 C156.1134062878418,85.50983996093748 155.9320262878418,85.7274099609375 155.7678762878418,86.02294996093747 C155.4985862878418,86.52863996093754 155.2900362878418,87.09505996093753 155.15213628784178,87.70587996093752 C155.15213628784178,87.70587996093752 154.0232962878418,92.75479996093748 154.0232962878418,92.75479996093748 C154.0232962878418,92.75479996093748 151.6424362878418,92.75479996093748 151.6424362878418,92.75479996093748 C151.6424362878418,92.75479996093748 153.8385962878418,82.90329996093749 153.8385962878418,82.90329996093749 C153.8385962878418,82.90329996093749 156.0551962878418,82.90329996093749 156.0551962878418,82.90329996093749 C156.0551962878418,82.90329996093749 155.99937628784178,83.20203996093755 155.9731162878418,83.31367996093752 C156.0781362878418,83.23490996093744 156.1824762878418,83.12657996093753 156.28098628784178,83.06744996093755 C156.5939862878418,82.87761996093752 156.91475628784178,82.75912996093746 157.2455662878418,82.71859996093747 zM164.2853962878418,82.71859996093747 C164.42854628784178,82.70764996093749 164.5698662878418,82.71859996093747 164.7163262878418,82.71859996093747 C166.05623628784178,82.71859996093747 167.0766362878418,83.18810996093748 167.7334562878418,84.11421996093748 C168.1537662878418,84.71179996093747 168.3696262878418,85.4507099609375 168.3696262878418,86.33080996093747 C168.3696262878418,86.81675996093747 168.2892662878418,87.33979996093751 168.1643862878418,87.9111299609375 C168.1643862878418,87.9111299609375 168.0002362878418,88.62947996093749 168.0002362878418,88.62947996093749 C168.0002362878418,88.62947996093749 161.97269628784179,88.62947996093749 161.3093562878418,88.62947996093749 C161.2962262878418,88.76737996093755 161.26826628784178,88.91519996093746 161.26826628784178,89.03996996093747 C161.26826628784178,89.55227996093754 161.38001628784178,89.9553499609375 161.5966762878418,90.25088996093746 C161.63046628784178,90.2968899609375 161.6826362878418,90.3536299609375 161.7198462878418,90.39460996093749 C161.7414162878418,90.41754996093755 161.7792062878418,90.45532996093755 161.8019162878418,90.47667996093753 C162.0955162878418,90.74356996093752 162.49516628784178,90.88716996093751 162.9922962878418,90.88716996093751 C163.4783462878418,90.88716996093751 163.9052762878418,90.75326996093747 164.3058362878418,90.49722996093749 C164.68687628784178,90.25419996093751 165.0447362878418,89.86585996093754 165.3731462878418,89.32728996093749 C165.3731462878418,89.32728996093749 167.9387062878418,89.32728996093749 167.9387062878418,89.32728996093749 C167.9387062878418,89.32728996093749 167.6923662878418,89.81984996093752 167.6923662878418,89.81984996093752 C167.20630628784178,90.8050899609375 166.5216262878418,91.57344996093752 165.6810162878418,92.11863996093746 C164.8271662878418,92.66370996093747 163.8281062878418,92.96004996093745 162.7049762878418,92.96004996093745 C161.2535362878418,92.96004996093745 160.1936362878418,92.49053996093755 159.5237962878418,91.56442996093745 C158.8604662878418,90.6580699609375 158.7036262878418,89.40525996093754 159.05166628784178,87.82904996093748 C159.4063362878418,86.22647996093747 160.0935262878418,84.94580996093748 161.1246562878418,84.05257996093746 C162.0546562878418,83.25122996093751 163.1192262878418,82.80672996093745 164.2853962878418,82.71859996093747 zM128.3475462878418,82.90329996093749 C128.3475462878418,82.90329996093749 130.78993628784178,82.90329996093749 130.78993628784178,82.90329996093749 C130.78993628784178,82.90329996093749 131.0911762878418,88.7493399609375 131.0977962878418,88.83472996093747 C131.1963162878418,88.62536996093752 131.2727962878418,88.44923996093746 131.2824962878418,88.42423996093748 C131.2824962878418,88.42423996093748 133.9712162878418,82.90329996093749 133.9712162878418,82.90329996093749 C133.9712162878418,82.90329996093749 136.2083562878418,82.90329996093749 136.2083562878418,82.90329996093749 C136.2083562878418,82.90329996093749 136.4136062878418,88.67867996093753 136.4136062878418,88.7115599609375 C136.4792462878418,88.59340996093749 139.4716062878418,82.90329996093749 139.4716062878418,82.90329996093749 C139.4716062878418,82.90329996093749 141.89344628784178,82.90329996093749 141.89344628784178,82.90329996093749 C141.89344628784178,82.90329996093749 136.5572062878418,92.75479996093748 136.5572062878418,92.75479996093748 C136.5572062878418,92.75479996093748 134.3611662878418,92.75479996093748 134.3611662878418,92.75479996093748 C134.3611662878418,92.75479996093748 134.1484962878418,87.41285996093745 134.1353662878418,87.1106999609375 C133.2290062878418,88.96941996093744 131.3851162878418,92.75479996093748 131.3851162878418,92.75479996093748 C131.3851162878418,92.75479996093748 129.12742628784179,92.75479996093748 129.12742628784179,92.75479996093748 C129.12742628784179,92.75479996093748 128.3475462878418,82.90329996093749 128.3475462878418,82.90329996093749 zM71.00306628784179,84.77092996093745 C70.4373162878418,84.79478996093746 69.9234762878418,84.99877996093755 69.4432262878418,85.38666996093752 C69.0623162878418,85.68882996093748 68.8053362878418,86.10341996093746 68.60174628784179,86.55648996093748 C68.60174628784179,86.55660996093752 72.6449862878418,86.55648996093748 72.6449862878418,86.55648996093748 C72.6515662878418,86.4843499609375 72.6655062878418,86.3964499609375 72.6655062878418,86.33080996093747 C72.6655062878418,85.95639996093746 72.5990262878418,85.6657699609375 72.4807862878418,85.46873996093746 C72.1918462878418,84.99592996093747 71.7632862878418,84.77092996093745 71.1261962878418,84.77092996093745 C71.0880262878418,84.77092996093745 71.0407762878418,84.76933996093749 71.00306628784179,84.77092996093745 zM81.69612628784179,84.77092996093745 C81.1303862878418,84.79478996093746 80.6165962878418,84.99877996093755 80.1362962878418,85.38666996093752 C79.7553862878418,85.68882996093748 79.50499628784179,86.10341996093746 79.2948162878418,86.55648996093748 C79.2948162878418,86.55660996093752 83.3380762878418,86.55648996093748 83.3380762878418,86.55648996093748 C83.34458628784179,86.4843499609375 83.3586262878418,86.3964499609375 83.3586262878418,86.33080996093747 C83.3586262878418,85.95639996093746 83.29869628784179,85.6657699609375 83.1739262878418,85.46873996093746 C83.1165062878418,85.37273996093745 83.03888628784179,85.27719996093754 82.96868628784179,85.2019699609375 C82.69437628784179,84.9186499609375 82.3169962878418,84.77092996093745 81.8192962878418,84.77092996093745 C81.78105628784179,84.77092996093745 81.73390628784179,84.76933996093749 81.69612628784179,84.77092996093745 zM164.4085662878418,84.77092996093745 C163.82673628784178,84.78885996093754 163.2833762878418,84.9858799609375 162.7870462878418,85.38666996093752 C162.4127462878418,85.68882996093748 162.1557862878418,86.10341996093746 161.9456362878418,86.55648996093748 C161.9456362878418,86.55660996093752 165.9683362878418,86.55648996093748 165.9683362878418,86.55648996093748 C165.9749562878418,86.4843499609375 165.9888862878418,86.3964499609375 165.9888862878418,86.33080996093747 C165.9888862878418,85.95639996093746 165.9289562878418,85.6657699609375 165.8041862878418,85.46873996093746 C165.5217762878418,85.00242996093755 165.0866262878418,84.77754996093745 164.4495462878418,84.77092996093745 C164.4307162878418,84.77115996093755 164.4272862878418,84.77035996093753 164.4085662878418,84.77092996093745 zM110.63523628784179,84.81202996093748 C110.09232628784179,84.87640996093751 109.5874362878418,85.12422996093756 109.1164462878418,85.55081996093747 C108.5516262878418,86.06312996093754 108.14193628784179,86.86766996093752 107.90552628784181,87.93166996093748 C107.8070162878418,88.37822996093746 107.76181628784181,88.76006996093747 107.76181628784181,89.10149996093753 C107.76181628784181,89.56780996093755 107.8513062878418,89.93399996093751 108.0286962878418,90.20978996093754 C108.07584628784178,90.2806799609375 108.13851628784181,90.35544996093745 108.1928462878418,90.41503996093752 C108.4848462878418,90.7250699609375 108.89248628784179,90.88716996093751 109.40376628784179,90.88716996093751 C110.0671062878418,90.88716996093751 110.65167628784181,90.64002996093745 111.20987628784181,90.1277199609375 C111.7746962878418,89.60889996093749 112.17776628784179,88.79613996093747 112.4207962878418,87.70587996093752 C112.64407628784178,86.70762996093754 112.61290628784181,85.96221996093755 112.29762628784181,85.48928996093753 C111.9955762878418,85.0295999609375 111.55381628784178,84.81202996093748 110.9430962878418,84.81202996093748 C110.83945628784178,84.81202996093748 110.7358062878418,84.80003996093751 110.63523628784179,84.81202996093748 zM147.7223662878418,88.40368996093753 C147.1641662878418,88.55482996093747 146.5384962878418,88.68198996093747 145.7110162878418,88.79374996093748 C145.0936862878418,88.88563996093751 144.6536262878418,88.98254996093749 144.39747628784178,89.08105996093752 C144.1741962878418,89.17295996093753 143.9944062878418,89.30023996093746 143.8432662878418,89.47100996093752 C143.6988662878418,89.63515996093747 143.6019562878418,89.8075199609375 143.5559462878418,90.00465996093749 C143.5428262878418,90.08342996093745 143.5354062878418,90.16469996093747 143.5354062878418,90.2303399609375 C143.5354062878418,90.23570996093747 143.53528628784179,90.24563996093752 143.5354062878418,90.25088996093746 C143.53608628784178,90.26652996093753 143.5336862878418,90.29734996093748 143.5354062878418,90.31252996093747 C143.5395162878418,90.34220996093745 143.5478462878418,90.38729996093753 143.5559462878418,90.41503996093752 C143.5589162878418,90.42428996093747 143.5730762878418,90.44722996093753 143.5764962878418,90.45612996093746 C143.5836862878418,90.47382996093745 143.5881362878418,90.50087996093748 143.5970462878418,90.51777996093745 C143.60628628784178,90.5343299609375 143.62706628784179,90.56331996093752 143.6380262878418,90.57929996093753 C143.6552562878418,90.60292996093744 143.6786662878418,90.63922996093754 143.6996662878418,90.66137996093755 C143.8638162878418,90.84527996093755 144.1914262878418,90.9281499609375 144.6642462878418,90.9281499609375 C145.1831762878418,90.9281499609375 145.6822462878418,90.82963996093747 146.1420462878418,90.59984996093749 C146.5952362878418,90.3764599609375 146.96051628784178,90.04312996093745 147.2297962878418,89.65569996093745 C147.4268262878418,89.37990996093754 147.5844662878418,88.95537996093753 147.7223662878418,88.40368996093753 zM22.357707287841798,71.94756996093747 L77.44030628784179,15.075579960937489 L86.4354862878418,15.075579960937489 L73.13568628784179,71.94756996093747 L65.7370572878418,71.94756996093747 L69.5133962878418,55.57650996093753 L46.42187828784179,55.57650996093753 L30.729846287841795,71.94756996093747 L22.357707287841798,71.94756996093747 M52.03338628784179,49.718609960937556 L70.9193662878418,49.718609960937556 L74.40385628784179,35.44242996093749 C75.8101462878418,29.77854996093754 77.1638162878418,25.05861996093745 78.4648762878418,21.28262996093747 C75.8648062878418,24.541359960937484 72.4248662878418,28.407829960937534 68.1450562878418,32.882019960937555 L52.03338628784179,49.718609960937556 " style="fill:#663366;fill-opacity:1;fill-rule:evenodd;stroke:none;stroke-width:1pt;stroke-linecap:butt;stroke-linejoin:miter;stroke-opacity:1" id="path2945" class=""/>
      </g>
</svg>
