<svg width="800" height="800" xmlns="http://www.w3.org/2000/svg">

 <title>Labelbase</title>
 <g>
  <title>Layer 1</title>
  <ellipse stroke="#fff" ry="400" rx="400" id="svg_14" cy="400" cx="400" fill="#000000"/>
  <g id="svg_13">
   <path id="svg_1" fill="#fff" d="m126.03,425.63l-59.53,0l0,-87.55l23.11,0l0,67.41l36.42,0l0,20.14z" class="cls-1"/>
   <path id="svg_2" fill="#fff" d="m222,425.63l0,-87.55l33.32,0q15.12,0 23.35,6.13t8.23,17.33a21.9,21.9 0 0 1 -2.8,11.12a20.27,20.27 0 0 1 -7.6,7.62a21.68,21.68 0 0 1 11,7.58a21,21 0 0 1 4,12.9a23.34,23.34 0 0 1 -3.67,13.16a24,24 0 0 1 -10.45,8.64a38.59,38.59 0 0 1 -16,3.07l-39.38,0zm23.11,-52.24l8.64,0q5,0 7.67,-2a6.74,6.74 0 0 0 2.72,-5.75a6.34,6.34 0 0 0 -2.75,-5.43c-1.83,-1.32 -4.37,-2 -7.64,-2l-8.64,0l0,15.18zm0,32.1l10.21,0a22.25,22.25 0 0 0 6.77,-0.9a9.09,9.09 0 0 0 4.26,-2.59a6.21,6.21 0 0 0 1.46,-4.17a6.51,6.51 0 0 0 -1.31,-4.16a7.81,7.81 0 0 0 -3.76,-2.51a19,19 0 0 0 -6.05,-0.85l-11.58,0l0,15.18z" class="cls-1"/>
   <path id="svg_3" fill="#fff" d="m300.12,425.63l0,-87.55l58.38,0l0,20.13l-35.26,0l0,13.54l32.91,0l0,20.14l-32.91,0l0,13.6l35.83,0l0,20.14l-58.95,0z" class="cls-1"/>
   <path id="svg_4" fill="#fff" d="m429.9,425.63l-59.53,0l0,-87.55l23.13,0l0,67.41l36.4,0l0,20.14z" class="cls-1"/>
   <path id="svg_5" fill="#fff" d="m435,425.63l0,-87.55l33.33,0q15.12,0 23.34,6.13t8.24,17.33a21.9,21.9 0 0 1 -2.81,11.12a20.17,20.17 0 0 1 -7.6,7.62a21.72,21.72 0 0 1 11,7.58a21.07,21.07 0 0 1 4,12.9a23.34,23.34 0 0 1 -3.68,13.16a23.92,23.92 0 0 1 -10.45,8.64a38.53,38.53 0 0 1 -16,3.07l-39.37,0zm23.12,-52.24l8.63,0q5,0 7.68,-2a6.74,6.74 0 0 0 2.71,-5.75a6.33,6.33 0 0 0 -2.74,-5.43c-1.83,-1.32 -4.38,-2 -7.65,-2l-8.63,0l0,15.18zm0,32.1l10.21,0a22.34,22.34 0 0 0 6.77,-0.9a9.09,9.09 0 0 0 4.26,-2.59a6.26,6.26 0 0 0 1.46,-4.17a6.57,6.57 0 0 0 -1.32,-4.16a7.85,7.85 0 0 0 -3.77,-2.51a19,19 0 0 0 -6,-0.85l-11.61,0l0,15.18z" class="cls-1"/>
   <path id="svg_6" fill="#fff" d="m528.5,425.63l-24.26,0l34.2,-87.55l24.23,0l34.14,87.55l-24.22,0l-5.66,-15.63l-32.8,0l-5.63,15.63zm13,-35.72l18.15,0l-9.1,-25l-9.05,25z" class="cls-1"/>
   <path id="svg_7" fill="#fff" d="m598,415.59l10.85,-17.59a65.91,65.91 0 0 0 8,5.43a31.41,31.41 0 0 0 7.24,3.06a27.31,27.31 0 0 0 7.21,1a20,20 0 0 0 6.18,-0.85a8.51,8.51 0 0 0 3.94,-2.45a5.67,5.67 0 0 0 1.37,-3.82a6.53,6.53 0 0 0 -2,-4.79a18.93,18.93 0 0 0 -5.29,-3.58q-3.3,-1.58 -7.21,-3.15q-4.2,-1.69 -8.58,-3.77a39.76,39.76 0 0 1 -8.06,-5.08a23.24,23.24 0 0 1 -5.95,-7.26a22.09,22.09 0 0 1 -2.28,-10.48a23.57,23.57 0 0 1 4.12,-14a26,26 0 0 1 11.26,-8.87a40.83,40.83 0 0 1 16.2,-3.06a60.11,60.11 0 0 1 14,1.75a69.64,69.64 0 0 1 14.88,5.48l-9,18.56a40.78,40.78 0 0 0 -9.2,-4.11a31.08,31.08 0 0 0 -9.18,-1.55a15,15 0 0 0 -5,0.76a7.37,7.37 0 0 0 -3.3,2.19a5.13,5.13 0 0 0 -1.17,3.36a6.14,6.14 0 0 0 2,4.52a20.49,20.49 0 0 0 5.25,3.59q3.27,1.63 7.12,3.33q4.2,1.8 8.61,4a43.56,43.56 0 0 1 8.11,5.26a24,24 0 0 1 6,7.26a21.19,21.19 0 0 1 2.27,10.13a23.18,23.18 0 0 1 -4.29,13.86a28,28 0 0 1 -12,9.31a44.48,44.48 0 0 1 -17.83,3.33a55.23,55.23 0 0 1 -18.21,-3a55.8,55.8 0 0 1 -16.06,-8.77z" class="cls-1"/>
   <path id="svg_8" fill="#fff" d="m674.55,425.63l0,-87.55l58.36,0l0,20.13l-35.25,0l0,13.54l32.92,0l0,20.14l-32.92,0l0,13.6l35.84,0l0,20.14l-58.95,0z" class="cls-1"/>
   <rect y="328" id="svg_9" fill="#fff" rx="1.81" height="30.55" width="3.62" x="188.41" class="cls-1"/>
   <path id="svg_10" fill="#fff" d="m205.97,338.08l-13,0l0,6l12.1,0l0,27.18l-40.52,40.49l-27.23,-27.23l40.49,-40.52l9.69,0l0,-6l-10.07,0a5,5 0 0 0 -3.55,1.47l-41.38,41.53a5,5 0 0 0 0,7.1l28.5,28.51a5,5 0 0 0 7.11,0l41.39,-41.41a5,5 0 0 0 1.48,-3.56l0,-28.54a5,5 0 0 0 -5.01,-5.02z" class="cls-1"/>
   <path id="svg_11" fill="#fff" d="m195.42,353.35a7.27,7.27 0 0 0 -2.48,-1.63l0,4l0.07,0.05a3.95,3.95 0 1 1 -5.58,0l0.07,-0.05l0,-4a7.35,7.35 0 1 0 7.92,1.63z" class="cls-1"/>
   <path id="svg_12" opacity="0.85" fill="#fff" d="m199.75,385l-31.64,31.61a5,5 0 0 1 -7.11,0l-18.57,-18.61l-1.21,1.21a5.78,5.78 0 0 0 0,8.18l14.7,14.7a12,12 0 0 0 16.89,0l27.95,-28a5.78,5.78 0 0 0 0,-8.18l-1.01,-0.91z" class="cls-2"/>
  </g>
 </g>
</svg>