<svg width="128" height="128" viewBox="0 0 128 128" fill="none" xmlns="http://www.w3.org/2000/svg">
<rect width="128" height="128" rx="26.8387" fill="#F5F1ED"/>
<path d="M74.9171 52.7115C82.4766 51.5409 93.4087 43.5806 93.4087 37.3762C93.4087 35.5032 91.8968 34.2155 89.6871 34.2155C85.5004 34.2155 78.4061 40.5369 74.9171 52.7115ZM39.911 83.4992C30.0256 83.4992 29.2115 93.3325 39.0969 93.3325C43.5163 93.3325 48.8661 91.5766 51.6573 88.4159C47.5868 84.904 44.2141 83.4992 39.911 83.4992ZM102.829 79.2849C103.41 95.7908 95.0369 105.039 80.8484 105.039C72.4748 105.039 68.2881 101.878 59.333 96.025C54.681 101.176 45.8423 105.039 38.5154 105.039C13.2785 105.039 14.3252 72.8464 40.0273 72.8464C45.3771 72.8464 49.9128 74.2512 55.7277 77.8801L59.5656 64.4179C43.7489 60.0865 35.8405 47.9119 43.6326 30.4695H56.1929C49.215 42.0587 53.9832 51.6579 62.822 52.7115C67.5903 35.7373 77.8246 22.5092 91.4316 22.5092C99.1074 22.5092 105.155 27.5429 105.155 36.6738C105.155 51.3068 86.0819 63.2472 71.6607 64.4179L65.7295 85.3722C72.4748 93.2155 91.199 100.825 91.199 79.2849H102.829Z" fill="#12100F"/>
</svg>