<svg width="387" height="377" viewBox="-58.05 -56.55 503.1 490.1" fill="none" xmlns="http://www.w3.org/2000/svg">
<path d="M249.327 137.966C283.745 132.618 333.52 96.2553 333.52 67.9135C333.52 59.3574 326.637 53.4752 316.576 53.4752C297.513 53.4752 265.212 82.3518 249.327 137.966ZM89.9409 278.606C44.9317 278.606 41.225 323.525 86.2343 323.525C106.356 323.525 130.714 315.504 143.422 301.065C124.889 285.023 109.533 278.606 89.9409 278.606ZM376.411 259.355C379.059 334.755 340.934 377 276.332 377C238.207 377 219.144 362.562 178.371 335.824C157.19 359.353 116.946 377 83.5867 377C-31.3192 377 -26.5536 229.943 90.4704 229.943C114.828 229.943 135.48 236.36 161.956 252.938L179.43 191.441C107.415 171.655 71.4077 116.041 106.886 36.3631H164.074C132.303 89.3035 154.013 133.153 194.256 137.966C215.967 60.4269 262.565 0 324.518 0C359.467 0 387.002 22.9943 387.002 64.705C387.002 131.549 300.161 186.094 234.5 191.441L207.494 287.162C238.207 322.99 323.459 357.749 323.459 259.355H376.411Z" fill="#F5F1ED"/>
</svg>