<?xml version="1.0" encoding="UTF-8"?>
<svg width="400px" height="125px" viewBox="0 0 400 125" version="1.1" xmlns="http://www.w3.org/2000/svg" xmlns:xlink="http://www.w3.org/1999/xlink">
    <title>brand/logo-products/liquid</title>
    <defs>
        <polygon id="path-1" points="0 0.649692716 52.8225298 0.649692716 52.8225298 106.004141 0 106.004141"></polygon>
    </defs>
    <g id="Unified-Headers" stroke="none" stroke-width="1" fill="none" fill-rule="evenodd">
        <g id="Assets" transform="translate(-190.000000, -200.000000)">
            <g id="brand/products/logos/liquid" transform="translate(190.000000, 200.000000)">
                <g id="Group-38" transform="translate(0.000000, -0.000000)">
                    <path d="M23.1161265,84.4720497 C20.9217995,84.4720497 18.8355937,83.190767 17.9227679,81.0564707 C14.8209325,73.8058557 13.2505176,66.1022975 13.2505176,58.160812 C13.2505176,28.6260995 35.4507963,3.63844273 64.8916448,0.0413340043 C67.9881627,-0.330537599 70.7975393,1.84781928 71.178622,4.92325031 C71.5597046,7.99691891 69.3600602,10.7956493 66.2688597,11.1728081 C42.4733515,14.0825713 24.5305634,34.2817203 24.5305634,58.160812 C24.5305634,64.5866123 25.8014296,70.8132586 28.3041676,76.6662709 C29.523632,79.5161116 28.1871841,82.8118457 25.3210883,84.0226314 C24.59969,84.3275309 23.8517046,84.4720497 23.1161265,84.4720497" id="Fill-1" fill="#2CCCBF"></path>
                    <path d="M35.3026907,53.8302277 C34.9875568,53.8302277 34.6653808,53.791147 34.3467259,53.7076562 C32.2974754,53.1765128 31.0651083,51.0697032 31.5915051,49.0037509 C36.4646368,29.9003529 53.5346821,16.563147 73.1064326,16.563147 C83.0921274,16.563147 92.8137435,20.1017344 100.480828,26.5305234 C102.107552,27.8912453 102.331139,30.3284651 100.979056,31.9680817 C99.6304943,33.6094746 97.2150547,33.8350773 95.5883301,32.4725791 C89.2926946,27.1948968 81.3087161,24.2869311 73.1064326,24.2869311 C57.0293232,24.2869311 43.0085063,35.2419856 39.0068342,50.9275913 C38.563182,52.6737918 37.0068784,53.8302277 35.3026907,53.8302277" id="Fill-3" fill="#9EF2ED"></path>
                    <path d="M70.2960951,99.2782606 C65.7440202,98.9692101 61.3042321,97.9493436 57.1014942,96.2404763 C55.1124121,95.4314912 54.1428237,93.1317921 54.9341789,91.1029667 C55.7290988,89.0759592 57.981966,88.0869978 59.9710481,88.8941649 C63.4198597,90.2976176 67.0665102,91.1356897 70.811189,91.3902019 C75.981733,91.741065 81.0382078,90.9738927 85.8415915,89.1068643 C87.8431499,88.3324202 90.0817584,89.3559226 90.8428141,91.3956557 C91.6038697,93.4353888 90.600417,95.7205443 88.6006409,96.4986243 C82.7456815,98.7710542 76.5895081,99.7054774 70.2960951,99.2782606" id="Fill-5" fill="#9EF2ED"></path>
                    <g id="Group-9" transform="translate(0.000000, 18.219462)">
                        <mask id="mask-2" fill="white">
                            <use xlink:href="#path-1"></use>
                        </mask>
                        <g id="Clip-8"></g>
                        <path d="M48.9808033,106.004671 C48.6097888,106.004671 48.2317074,105.949902 47.8589262,105.835064 C19.6812588,97.2416618 -0.000176673568,69.6717516 -0.000176673568,39.142559 C-0.000176673568,26.0704817 3.71526846,13.3711856 10.7451097,2.41742443 C11.8881877,0.631254658 14.2644472,0.111834369 16.0523837,1.26021256 C17.8385535,2.40505728 18.3579738,4.78308351 17.2113623,6.56925328 C10.9783188,16.2809993 7.6833568,27.545706 7.6833568,39.142559 C7.6833568,66.3220207 25.1263382,90.870813 50.1009137,98.4854438 C52.130893,99.105568 53.273971,101.252152 52.6538468,103.282131 C52.1485604,104.937562 50.627401,106.004671 48.9808033,106.004671" id="Fill-7" fill="#9EF2ED" mask="url(#mask-2)"></path>
                    </g>
                    <path d="M72.4972871,114.285714 C55.7249457,114.285714 40.4087071,107.985296 30.1336329,96.7687076 C28.493546,94.9775315 28.6267155,92.2090341 30.4297597,90.5795855 C32.2328039,88.953615 35.0241056,89.0840404 36.6659447,90.8752165 C45.7407417,100.778855 59.7007546,106.112386 74.9066028,105.474171 C77.350963,105.359397 79.3975672,107.253174 79.4991965,109.670393 C79.6008258,112.085872 77.7084179,114.129204 75.2710665,114.230066 C74.3441371,114.266585 73.4154554,114.285714 72.4972871,114.285714" id="Fill-10" fill="#2CCCBF"></path>
                    <path d="M177.585459,12.4223602 C176.017471,12.4223602 174.741201,13.6665439 174.741201,15.1951123 L174.741201,51.3457557 L182.194617,51.3457557 L182.194617,12.4223602 L177.585459,12.4223602 Z" id="Fill-12" fill="#2CCCBF"></path>
                    <path d="M237.942976,12.4223602 C236.427782,12.4223602 235.196687,13.6595342 235.196687,15.1822098 L235.196687,37.8549202 C235.196687,45.6709693 241.117167,51.3457557 249.275362,51.3457557 C257.433558,51.3457557 263.354037,45.6709693 263.354037,37.8549202 L263.354037,12.4223602 L258.985579,12.4223602 C257.470386,12.4223602 256.239291,13.6595342 256.239291,15.1822098 L256.239291,37.5799927 C256.239291,42.1321583 253.570165,44.9607398 249.275362,44.9607398 C245.01388,44.9607398 242.367552,42.1321583 242.367552,37.5799927 L242.367552,12.4223602 L237.942976,12.4223602 Z" id="Fill-14" fill="#2CCCBF"></path>
                    <path d="M279.45246,12.4223602 C277.880825,12.4223602 276.604555,13.6665439 276.604555,15.1986671 L276.604555,51.3457557 L284.057971,51.3457557 L284.057971,12.4223602 L279.45246,12.4223602 Z" id="Fill-16" fill="#2CCCBF"></path>
                    <path d="M305.401473,18.8601217 L311.408106,18.8601217 C314.020458,18.8601217 315.897087,19.6546218 317.311667,21.3644856 L317.311667,21.366263 C318.768897,23.1596648 319.015916,25.525391 319.015916,31.7160932 C319.015916,37.7734899 318.77956,40.5960093 317.311667,42.4000756 C315.898864,44.1117167 314.022236,44.9062168 311.408106,44.9062168 L305.401473,44.9062168 L305.401473,18.8601217 Z M298.136646,51.3457557 L312.126059,51.3457557 C316.407118,51.3457557 319.947122,50.0695788 322.363992,47.648753 C326.353604,43.6602558 326.321616,38.5786545 326.287851,33.1948943 C326.284297,32.7043304 326.28252,32.2119892 326.28252,31.7160932 C326.28252,31.2201971 326.284297,30.7278559 326.287851,30.2372921 C326.319839,25.029495 326.353604,20.1060827 322.363992,16.1175856 C319.947122,13.7003146 316.407118,12.4223602 312.126059,12.4223602 L300.923155,12.4223602 C299.385955,12.4223602 298.136646,13.6718761 298.136646,15.2093315 L298.136646,51.3457557 Z" id="Fill-18" fill="#2CCCBF"></path>
                    <path d="M143.784276,44.9062168 L143.784276,12.4223602 L139.369977,12.4223602 C137.86653,12.4223602 136.645963,13.6665439 136.645963,15.1951123 L136.645963,51.3457557 L160.929848,51.3457557 L163.975155,44.9062168 L143.784276,44.9062168 Z" id="Fill-20" fill="#2CCCBF"></path>
                    <path d="M202.558533,31.8831842 C202.558533,24.5713947 202.894357,22.6193706 204.448192,20.8840439 C205.620964,19.5314328 207.449722,18.7520212 209.466402,18.7520212 C211.477862,18.7520212 213.2405,19.5104621 214.432411,20.8840439 C215.911426,22.5389829 216.374271,24.2743096 216.374271,31.8831842 C216.374271,39.4955539 215.911426,41.229133 214.430671,42.884072 C213.2405,44.2576539 211.477862,45.0143472 209.466402,45.0143472 C207.449722,45.0143472 205.620964,44.2366832 204.446452,42.8805769 C202.894357,41.1487453 202.558533,39.1967212 202.558533,31.8831842 L202.558533,31.8831842 Z M220.612953,46.1030768 C223.457881,42.4908711 223.489202,38.0730404 223.489202,32.1523084 L223.489202,31.61406 C223.489202,25.1026529 223.490942,20.3999699 219.708144,16.6007753 C216.910196,13.7889519 213.558923,12.4223602 209.466402,12.4223602 C205.337341,12.4223602 201.968667,13.7889519 199.170719,16.6007753 C195.440122,20.3457956 195.441862,24.9628481 195.445135,31.3519261 L195.445135,32.4144423 C195.441862,38.8035203 195.440122,43.4205728 199.170719,47.1690882 C201.970407,49.9774165 205.339081,51.3457557 209.466402,51.3457557 L225.258799,51.3457557 L225.258799,46.1030768 L220.612953,46.1030768 Z" id="Fill-22" fill="#2CCCBF"></path>
                    <path d="M201.242236,79.3141248 L201.242236,72.8778468 L178.370003,72.8778468 C176.825622,72.8778468 175.569358,74.1238647 175.569358,75.6560579 L175.569358,111.801242 L201.242236,111.801242 L201.242236,105.363187 L182.885037,105.363187 L182.885037,95.393266 L198.516752,95.393266 L198.516752,88.9552106 L182.885037,88.9552106 L182.885037,79.3141248 L201.242236,79.3141248 Z" id="Fill-24" fill="#FFFFFF"></path>
                    <path d="M317.197691,103.341306 C316.002786,104.71314 314.233138,105.471581 312.215425,105.471581 C310.190724,105.471581 308.352946,104.69217 307.173763,103.337811 C305.615495,101.604232 305.278336,99.6522077 305.278336,92.3386707 C305.278336,85.0286288 305.615495,83.0748572 307.177257,81.3395305 C308.352946,79.9869193 310.190724,79.2092553 312.215425,79.2092553 C314.233138,79.2092553 316.002786,79.9659486 317.199438,81.341278 C318.686082,82.996217 319.149021,84.7315437 319.149021,92.3386707 C319.149021,99.952788 318.686082,101.686367 317.197691,103.341306 M312.215425,72.8778468 C308.068195,72.8778468 304.686124,74.246186 301.877048,77.0580094 C298.131614,80.8030297 298.133361,85.4200822 298.136646,91.8074126 L298.136646,92.8699289 C298.133361,99.2590068 298.131614,103.876059 301.877048,107.624575 C304.687871,110.434651 308.069942,111.801242 312.215425,111.801242 C316.322476,111.801242 319.685331,110.434651 322.4979,107.622827 C326.295743,103.823633 326.293996,99.1192021 326.293996,92.6077949 L326.293996,92.0712941 C326.293996,85.5581394 326.295743,80.8554565 322.496153,77.0580094 C319.687078,74.246186 316.324223,72.8778468 312.215425,72.8778468" id="Fill-26" fill="#FFFFFF"></path>
                    <path d="M400,111.801242 L387.470054,90.9868774 L387.532154,90.8802282 L397.995067,72.8778468 L391.282976,72.8778468 C390.285832,72.8778468 389.364982,73.4164251 388.875282,74.2891709 L379.924053,90.2438881 L379.924053,72.8778468 L375.445777,72.8778468 C373.914576,72.8778468 372.670807,74.1238647 372.670807,75.6542804 L372.670807,111.801242 L379.924053,111.801242 L379.924053,91.6925395 L391.675091,111.801242 L400,111.801242 Z" id="Fill-28" fill="#FFFFFF"></path>
                    <path d="M163.975155,111.801242 L163.975155,72.8778468 L159.587186,72.8778468 C158.086862,72.8778468 156.868174,74.1238647 156.868174,75.6560579 L156.868174,97.5315821 L143.02799,72.8778468 L139.366712,72.8778468 C137.866389,72.8778468 136.645963,74.1238647 136.645963,75.6560579 L136.645963,111.801242 L143.754682,111.801242 L143.754682,87.0888499 L157.594867,111.801242 L163.975155,111.801242 Z" id="Fill-30" fill="#FFFFFF"></path>
                    <path d="M240.165631,72.8778468 L216.062155,72.8778468 C212.522521,72.8778468 209.632344,75.7449322 209.52381,79.3141248 L221.264823,79.3141248 L221.264823,111.801242 L228.422867,111.801242 L228.422867,79.3141248 L233.625535,79.3141248 C237.16517,79.3141248 240.057097,76.4452618 240.165631,72.8778468" id="Fill-32" fill="#FFFFFF"></path>
                    <path d="M343.340151,79.3138308 L350.61878,79.3138308 C353.95127,79.3138308 356.277232,81.5338099 356.277232,84.7135877 C356.277232,87.8933655 353.95127,90.1133446 350.61878,90.1133446 L343.340151,90.1133446 L343.340151,79.3138308 Z M355.4063,111.801242 L363.561077,111.801242 L353.956485,95.5095466 L354.23115,95.4491148 C355.067314,95.2695969 355.807868,95.0723049 356.501484,94.8501293 C360.809209,93.2540195 363.387238,89.4645917 363.387238,84.7135877 C363.387238,77.7443821 358.335483,72.8778468 351.103791,72.8778468 L338.86728,72.8778468 C337.413988,72.8778468 336.231884,74.0882597 336.231884,75.572393 L336.231884,111.801242 L343.340151,111.801242 L343.340151,96.112087 L346.420574,96.112087 L355.4063,111.801242 Z" id="Fill-34" fill="#FFFFFF"></path>
                    <path d="M285.426135,73.7043402 L279.389798,98.2716342 L272.720847,75.1049354 C272.340925,73.7861008 271.139312,72.8778468 269.773361,72.8778468 L268.972875,72.8778468 C267.610458,72.8778468 266.41238,73.782546 266.034225,75.0978258 L259.36174,98.275189 L253.176969,72.8778468 L247.034607,72.8778468 C246.33131,72.8778468 245.818857,73.5479285 245.999099,74.2304521 L255.965417,111.801242 L262.030027,111.801242 L269.375769,87.4312402 L269.571915,88.0817705 L276.723278,111.801242 L282.786121,111.801242 L293.167702,72.8778468 L286.475779,72.8778468 C285.977463,72.8778468 285.544529,73.2191086 285.426135,73.7043402" id="Fill-36" fill="#FFFFFF"></path>
                </g>
            </g>
        </g>
    </g>
</svg>