<svg width="142" height="142" viewBox="-7 -12 142 142" fill="none" xmlns="http://www.w3.org/2000/svg">
<g clip-path="url(#clip0)">
<path fill-rule="evenodd" clip-rule="evenodd" d="M125.297 62.7213C121.792 59.1445 118.681 55.202 116.017 50.9613C114.187 48.0645 113.028 44.7945 112.627 41.3913C112.547 40.8013 112.627 40.2013 112.487 39.6213C112.117 36.9413 112.487 35.7213 114.207 34.8113H114.267C115.032 34.8261 115.791 34.6689 116.487 34.3513C117.387 33.8313 117.617 33.5913 117.687 32.7213C117.713 32.0818 117.59 31.4449 117.327 30.8613C117.137 30.1913 116.977 29.9113 117.577 29.4813C118.177 29.0513 118.367 29.0513 118.287 28.6813C118.207 28.3113 117.657 28.3813 117.367 27.6813C117.187 27.2013 117.567 27.2313 117.977 26.8713C118.387 26.5113 118.427 26.5213 118.167 26.0813C117.907 25.6413 117.637 25.3413 117.337 24.7413C117.037 24.1413 116.947 23.7413 117.217 23.2913C117.657 22.6413 117.217 23.0713 117.967 22.5113C118.717 21.9513 118.317 21.3013 118.167 20.9713C117.736 20.384 117.25 19.8383 116.717 19.3413C116.127 18.6913 115.137 17.7813 114.417 16.9113L114.357 16.7813L114.277 16.4013C114.977 14.0713 113.987 12.1813 113.157 10.3313C112.437 8.58075 111.351 7.00471 109.971 5.70927C108.591 4.41384 106.95 3.42909 105.157 2.82131C99.5371 0.911311 94.5771 2.49131 90.1571 5.92131C87.027 8.45505 84.2846 11.4333 82.0171 14.7613C80.122 17.619 77.8251 20.1887 75.1971 22.3913C72.4371 24.6241 69.4147 26.5114 66.1971 28.0113V28.3313C67.246 28.7767 68.3682 29.0242 69.5071 29.0613C71.1371 29.0113 72.7571 28.5613 74.3871 28.4013C74.6006 28.4241 74.8072 28.49 74.9945 28.5948C75.1819 28.6996 75.346 28.8413 75.4771 29.0113C75.5971 29.1613 75.4171 29.7613 75.1971 29.9313C73.7371 31.1113 72.3771 32.6013 70.6971 33.2913C67.6429 34.5745 64.4075 35.3741 61.1071 35.6613C58.8849 35.9466 56.6882 36.4046 54.5371 37.0313C54.0342 37.2354 53.5732 37.5303 53.1771 37.9013L53.2571 38.2113C56.7271 38.8013 59.8371 39.3913 62.9771 39.8213C66.1171 40.2513 69.2371 40.5313 72.6071 40.8913C72.6378 40.8926 72.6676 40.9023 72.6933 40.9192C72.719 40.9361 72.7396 40.9597 72.7529 40.9874C72.7663 41.0151 72.7718 41.0459 72.7691 41.0765C72.7663 41.1072 72.7552 41.1365 72.7371 41.1613C71.6671 42.7513 69.9071 42.7613 68.7971 43.7613C66.2119 46.1144 63.0697 47.7698 59.6671 48.5713C56.4371 49.3313 54.4471 51.2713 52.1471 53.4913C52.125 53.5129 52.1087 53.5399 52.1001 53.5697C52.0914 53.5994 52.0905 53.6309 52.0975 53.661C52.1046 53.6912 52.1193 53.7191 52.1402 53.7419C52.1612 53.7647 52.1877 53.7817 52.2171 53.7913C52.5342 53.9283 52.8725 54.0095 53.2171 54.0313C55.0755 53.7441 56.9484 53.5605 58.8271 53.4813C61.7371 53.5513 64.6271 53.7513 67.4871 52.4813C67.5159 52.4674 67.548 52.4619 67.5798 52.4653C67.6115 52.4688 67.6417 52.4812 67.6667 52.501C67.6918 52.5209 67.7107 52.5474 67.7214 52.5775C67.7321 52.6076 67.7341 52.6401 67.7271 52.6713C67.659 53.3875 67.3648 54.0634 66.8871 54.6013C62.0403 58.997 56.4134 62.4464 50.2971 64.7713L48.3771 65.4713C48.3478 65.4865 48.3231 65.5094 48.3059 65.5376C48.2887 65.5658 48.2796 65.5983 48.2796 65.6313C48.2796 65.6644 48.2887 65.6968 48.3059 65.725C48.3231 65.7532 48.3478 65.7762 48.3771 65.7913C49.2971 66.3113 49.8171 66.7913 50.3771 66.7913C52.5026 67.0008 54.6459 66.9437 56.7571 66.6213C67.7391 64.1602 78.2807 60.036 88.0171 54.3913C88.5677 54.0877 89.1391 53.8237 89.7271 53.6013C89.76 53.5854 89.7972 53.5806 89.8331 53.5875C89.8689 53.5943 89.9016 53.6126 89.9263 53.6395C89.951 53.6665 89.9664 53.7006 89.9701 53.737C89.9739 53.7733 89.9658 53.8099 89.9471 53.8413C89.4276 54.8457 88.6513 55.6945 87.6971 56.3013C85.4171 57.7813 83.0671 59.1513 80.6971 60.5413C75.3771 63.6713 70.0171 66.7213 64.7671 69.9613C61.1271 72.1713 57.5671 74.5213 54.0171 76.8813C49.1371 80.1213 44.3271 82.3613 38.2071 79.4713C33.9171 77.4713 29.7071 79.3513 25.9671 81.8813C25.7796 82.0397 25.6467 82.2531 25.5871 82.4913C25.5468 82.5906 25.5284 82.6975 25.5334 82.8046C25.5384 82.9116 25.5666 83.0164 25.6161 83.1115C25.6655 83.2066 25.7351 83.2898 25.8198 83.3554C25.9046 83.421 26.0027 83.4673 26.1071 83.4913C26.3599 83.5548 26.6244 83.5548 26.8771 83.4913C28.1371 83.1913 29.3571 82.7113 30.5971 82.3213C33.2026 81.36 36.0514 81.2792 38.7071 82.0913C39.6271 82.3913 39.7771 82.8213 39.8171 83.2613C39.8571 83.7013 39.3371 84.2613 38.9071 84.5713C38.0571 85.1513 36.6871 84.8313 36.1071 86.0413C36.0847 86.0864 36.0785 86.1378 36.0894 86.1869C36.1003 86.2361 36.1278 86.28 36.1671 86.3113C37.4971 87.4113 38.8471 86.2013 40.0971 86.1213C42.5041 85.9448 44.8672 85.3844 47.0971 84.4613C54.4071 81.5513 61.5971 78.3213 68.9571 75.5313C76.7098 72.7067 84.1657 69.1261 91.2171 64.8413C93.3171 63.5213 95.4171 62.1813 97.5871 60.9813C97.8869 60.7901 98.2271 60.6713 98.5808 60.6344C98.9345 60.5975 99.2919 60.6434 99.6247 60.7686C99.9575 60.8938 100.257 61.0947 100.498 61.3556C100.74 61.6164 100.918 61.9299 101.017 62.2713C101.199 62.833 101.287 63.4209 101.277 64.0113C101.277 67.5813 101.437 71.1513 101.277 74.7013C101.262 76.9606 100.641 79.1745 99.4771 81.1113C98.125 83.2735 96.2542 85.0637 94.0346 86.3193C91.815 87.5749 89.3169 88.2562 86.7671 88.3013C84.8771 88.4113 82.9671 88.3013 81.0671 88.3013C74.6202 88.1698 68.3717 90.5345 63.6271 94.9013C61.0171 97.2313 58.2571 99.6613 54.4871 99.9613C51.0771 100.251 47.6471 100.511 44.2271 100.481C37.6471 100.421 31.7871 98.0813 26.4271 94.3713C21.5604 90.9452 17.5664 86.4237 14.7671 81.1713C10.5371 73.4713 8.06713 65.2813 8.55713 56.3913C8.85713 50.8813 13.1271 48.2813 17.8071 49.1813C19.5215 49.5747 21.1954 50.1271 22.8071 50.8313C28.5081 53.2077 34.8307 53.6503 40.8071 52.0913C45.6471 50.8213 49.6671 48.3513 53.6171 45.4313C53.6459 45.4123 53.6681 45.3849 53.681 45.3529C53.6938 45.3209 53.6966 45.2858 53.689 45.2522C53.6814 45.2185 53.6638 45.188 53.6385 45.1646C53.6131 45.1413 53.5813 45.1262 53.5471 45.1213C49.0571 44.3213 48.5471 43.9813 43.9471 40.9113C41.9699 39.635 39.8775 38.5469 37.6971 37.6613C34.9144 36.6304 31.9832 36.0563 29.0171 35.9613C25.8062 35.8233 22.5948 36.2255 19.5171 37.1513C19.476 37.1699 19.4292 37.1714 19.387 37.1554C19.3448 37.1395 19.3107 37.1074 19.2921 37.0663C19.2736 37.0252 19.2721 36.9784 19.288 36.9362C19.304 36.894 19.336 36.8599 19.3771 36.8413C21.2271 35.5013 22.7771 34.4513 23.9171 33.6913C25.0571 32.9313 25.6071 32.5913 26.6571 31.8013C27.7071 31.0113 28.7771 30.0913 30.2371 28.8013C30.9217 28.1757 31.5663 27.5077 32.1671 26.8013C32.4571 26.4613 32.7371 26.0913 33.0171 25.7113C35.1154 23.0318 36.5664 19.9038 37.2571 16.5713C37.85 13.5811 38.6553 10.6369 39.6671 7.76131C40.2981 6.39105 41.0025 5.05578 41.7771 3.76131C41.8123 3.70244 41.8289 3.6343 41.8247 3.56584C41.8204 3.49738 41.7956 3.4318 41.7534 3.37771C41.7112 3.32363 41.6537 3.28357 41.5883 3.26279C41.5229 3.24202 41.4528 3.2415 41.3871 3.26131C40.9871 3.37131 40.5571 3.52131 40.4471 3.54131C33.1885 4.87637 26.4322 8.16808 20.9071 13.0613C12.7388 20.2229 6.96834 29.7216 4.37713 40.2713C2.93713 46.0913 1.18713 51.8313 0.55713 57.8613C-0.331577 64.7939 -0.156222 71.8216 1.07713 78.7013C3.36713 90.0313 9.07713 99.6213 17.1471 107.701C23.4627 113.983 31.1071 118.767 39.5171 121.701C44.7457 123.563 50.1952 124.733 55.7271 125.181C63.1702 125.742 70.6548 125.066 77.8771 123.181C86.2086 121.252 93.9811 117.422 100.587 111.991C107.406 106.402 112.774 99.2494 116.237 91.1413C118.147 86.5513 119.947 81.9313 120.527 76.9613C120.737 75.2513 120.447 73.8113 122.277 73.2013C123.64 72.8042 124.866 72.0355 125.817 70.9813C126.149 70.6403 126.457 70.2761 126.737 69.8913C127.425 68.8513 127.837 67.654 127.937 66.4113V66.4113C128.197 64.7813 127.937 65.3613 125.297 62.7213Z" fill="url(#paint0_linear)"/>
</g>
<defs>
<linearGradient id="paint0_linear" x1="21.9171" y1="84.0413" x2="116.247" y2="31.8513" gradientUnits="userSpaceOnUse">
<stop stop-color="#56AEAA"/>
<stop offset="1" stop-color="#83D7BC"/>
</linearGradient>
<clipPath id="clip0">
<rect width="142" height="142" fill="white"/>
</clipPath>
</defs>
</svg>
