<svg width="512" height="512" viewBox="0 0 512 512" fill="none" xmlns="http://www.w3.org/2000/svg">
<path d="M12 417.5H52.6667V437.75H113.667V417.5H134V215H154.333V174.5H134V154.25H93.3333V174.5H73V194.75H52.6667V215H113.667V255.5H93.3333V275.75H52.6667V255.5H32.3333V174.5H52.6667V154.25H73V134H195V154.25H215.333V174.5H235.667V215H256V255.5H276.333V275.75H296.667V235.25H317V215H337.333V174.5H357.667V134H378V113.75H398.333V73.25H439V53H479.667V73.25H500V93.5H459.333V73.25H439V93.5H418.667V336.5H439V437.75H459.333V458H378V437.75H357.667V235.25H337.333V255.5H317V296H296.667V336.5H276.333V377H235.667V336.5H215.333V296H195V235.25H174.667V356.75H154.333V417.5H134V437.75H113.667V458H32.3333V437.75H12V417.5Z" fill="#E23A5E"/>
</svg>
