<svg xmlns="http://www.w3.org/2000/svg" xml:space="preserve" viewBox="0 0 100 100"><style>.st4{fill:purple}</style><path d="M45.618 26.51c2.74.182 3.745 2.923 4.385 5.846.822 2.74 1.279 6.03 1.644 9.775.183 1.279.457 2.923.64 4.567.822 5.024 2.1 10.87 3.928 11.236.822.183 5.024 0 16.9-19 .64-.823 1.004-1.645 1.644-2.741-.457-12.698-7.125-23.386-17.083-25.853-13.154-3.106-27.131 8.313-31.242 25.853-1.461 5.846-1.461 11.419-.64 16.443 5.39-5.39 9.136-12.515 11.876-17.722 3.106-5.481 4.842-8.587 7.948-8.404" class="st4"/><path d="M56.671 63.233c-.456 0-.822 0-1.278-.183-4.75-1.005-6.67-7.308-7.948-14.342-.183-1.919-.64-3.746-.822-5.664-.457-3.563-.822-6.669-1.462-9.135 0-.183-.183-.457-.183-.64-.822 1.28-1.644 2.924-2.466 4.385-2.74 5.025-6.03 11.42-11.053 17.083-1.28 1.462-2.467 2.74-3.929 3.928 2.284 6.212 6.486 11.236 11.693 13.794l-8.587 8.13c-2.1 1.919-1.279 5.207 1.462 6.03l11.236 3.38c2.74.822 5.024-1.462 4.385-4.203l-2.74-11.419v-.182C57.31 75.474 69.734 64.42 73.753 48.16c-7.308 10.505-12.698 15.073-17.083 15.073" class="st4"/></svg>
