<?xml version="1.0" encoding="UTF-8" standalone="no"?>
<svg
   viewBox="0 0 62.449287 55.101883"
   version="1.1"
   id="svg395"
   sodipodi:docname="phoenix.svg"
   width="62.449287"
   height="55.101883"
   inkscape:version="1.2.2 (b0a8486541, 2022-12-01)"
   xmlns:inkscape="http://www.inkscape.org/namespaces/inkscape"
   xmlns:sodipodi="http://sodipodi.sourceforge.net/DTD/sodipodi-0.dtd"
   xmlns="http://www.w3.org/2000/svg"
   xmlns:svg="http://www.w3.org/2000/svg">
  <sodipodi:namedview
     id="namedview397"
     pagecolor="#ffffff"
     bordercolor="#000000"
     borderopacity="0.25"
     inkscape:showpageshadow="2"
     inkscape:pageopacity="0.0"
     inkscape:pagecheckerboard="0"
     inkscape:deskcolor="#d1d1d1"
     showgrid="false"
     inkscape:zoom="12.259259"
     inkscape:cx="29.936556"
     inkscape:cy="27.978852"
     inkscape:window-width="3840"
     inkscape:window-height="2091"
     inkscape:window-x="0"
     inkscape:window-y="32"
     inkscape:window-maximized="1"
     inkscape:current-layer="svg395" />
  <defs
     id="defs389">
    <style
       id="style387">.outline{fill:#50b338;}.bg{fill:#fff;}</style>
  </defs>
  <path
     class="outline"
     d="m 58.070086,17.34 a 6,6 0 0 0 0.58,-0.65 7.16,7.16 0 0 0 1,-7 c -2.14,-6.51 -10.58,-9.69 -25.75,-9.69 -11.82,0 -23,0 -28.8400005,19.87 -7.53,25.62 -6.16,34.13 0.84,35.13 4.2400005,0.61 6.6200005,-1.62 9.0000005,-4 2,-2 4,-4.46 7,-4 14,2 24.1,-0.21 29.85,-4.83 a 7.7,7.7 0 0 0 3.15,-6.17 5.52,5.52 0 0 0 -0.49,-2.38 c 4.61,-1.11 7.58,-3.4 8,-7.76 0.33,-3.86 -1.45,-6.59 -4.34,-8.52 z m -0.67,8.07 c -0.43,4.74 -11.72,4.46 -26.44,3.59 a 1,1 0 0 0 -1.06,0.91 1,1 0 0 0 0.88,1.09 l 2.43,0.3 c 5.83,0.7 16.69,1.98 16.69,4.7 a 3.44,3.44 0 0 1 -1.41,2.56 c -4,3.4 -15.54,5.16 -24.77,3.76 -4.9,-0.74 -7.55,1.45 -9.9,3.38 -2.09,1.71 -3.73,3.06 -6.6800005,2.33 a 1.59,1.59 0 0 1 -1,-0.83 c -1.74,-3.2 -0.36,-12.85 3.76,-25.9 C 14.950086,5 22.490086,5 33.900086,5 c 12.22,0 19.69,2.24 21,6.32 a 2.17,2.17 0 0 1 -0.2,2.25 c -2.47,3.16 -15.44,1.86 -19.7,1.43 a 1.0054974,1.0054974 0 0 0 -0.21,2 l 2.06,0.23 c 8.4,0.88 21.1,2.22 20.55,8.18 z"
     id="path391" />
  <path
     class="bg"
     d="m 36.900086,17.22 -2.11,-0.22 a 1.0054974,1.0054974 0 0 1 0.21,-2 c 4.26,0.43 17.23,1.73 19.75,-1.43 a 2.17,2.17 0 0 0 0.2,-2.25 c -1.36,-4.08 -8.83,-6.32 -21.05,-6.32 -11.41,0 -19,0 -24.0000005,16.3 -4.12,13.05 -5.5,22.7 -3.72,25.9 a 1.59,1.59 0 0 0 1,0.83 c 2.9500005,0.73 4.5900005,-0.62 6.6800005,-2.33 2.35,-1.93 5,-4.12 9.9,-3.38 9.23,1.4 20.81,-0.36 24.77,-3.76 a 3.44,3.44 0 0 0 1.37,-2.56 c 0,-2.72 -10.86,-4 -16.69,-4.71 l -2.43,-0.29 a 1,1 0 0 1 -0.88,-1.09 1,1 0 0 1 1.06,-0.91 c 14.72,0.87 26,1.15 26.44,-3.59 0.55,-5.96 -12.15,-7.3 -20.5,-8.19 z"
     id="path393" />
</svg>
