<svg width="897" height="1072" viewBox="0 0 897 1072" fill="none" xmlns="http://www.w3.org/2000/svg">
<path d="M304.742 112.004L448.742 29.7188V157.719L304.742 240.004V112.004Z" fill="#40607D"/>
<path d="M616.742 224L592.742 240V112L616.742 95.9999V224Z" fill="#40607D"/>
<path d="M52.6641 256.045L192.744 176V304L164.728 320.009L52.6641 256.045Z" fill="#40607D"/>
<path d="M168.742 480L192.742 464V411.789L280.742 462.736V416L304.742 400L448.742 482.4V208L192.742 356.21V336L168.742 352V480Z" fill="#40607D"/>
<path d="M728.742 352L896.741 256V699.935C896.741 771.706 858.284 837.975 795.969 873.583L448.742 1072V511.999L616.742 416V543.999L728.742 480V352Z" fill="#40607D"/>
<path d="M448.742 157.719L592.742 240.004V112.004L448.742 29.7188V157.719Z" fill="#6891AA"/>
<path d="M304.742 240L280.742 224V95.9999L304.742 112V240Z" fill="#6891AA"/>
<path d="M168.742 352L0.742188 256V699.935C0.742188 771.706 39.1994 837.975 101.514 873.583L448.742 1072V511.999L280.742 416V543.999L168.742 480V352Z" fill="#6891AA"/>
<path d="M704.741 464L728.741 480V352L704.741 336V356.21L448.742 208V482.4L592.742 400L616.742 416V462.736L704.741 411.789V464Z" fill="#6891AA"/>
<path d="M732.757 320.009L704.741 304V176L844.821 256.045L732.757 320.009Z" fill="#6891AA"/>
<path d="M448.742 29.6L592.742 112L616.742 95.9999L448.742 0L280.742 95.9999L304.742 112L448.742 29.6Z" fill="#A2BECE"/>
<path d="M280.742 224L304.742 240L448.742 157.719L592.742 240.004L616.742 224L704.741 274.285V304L732.757 320.009L844.901 256L704.741 176L728.741 160L896.741 256L728.741 352L704.741 336V356.21L448.742 208L192.742 356.21V336L168.742 352L0.742188 256L168.742 160L192.742 176L52.5821 256L164.728 320.009L192.744 304V274.284L280.742 224Z" fill="#A2BECE"/>
<path d="M592.742 400L616.742 416L448.742 511.999L280.742 416L304.742 400L448.742 482.4L592.742 400Z" fill="#A2BECE"/>
<path d="M192.742 411.789L280.742 462.736V543.999L168.742 480L192.742 464V411.789Z" fill="#A2BECE"/>
<path d="M728.741 480L616.742 543.999V462.736L704.741 411.789V464L728.741 480Z" fill="#A2BECE"/>
</svg>
