<?xml version="1.0" encoding="UTF-8" standalone="no" ?>
<!DOCTYPE svg PUBLIC "-//W3C//DTD SVG 1.1//EN" "http://www.w3.org/Graphics/SVG/1.1/DTD/svg11.dtd">
<svg xmlns="http://www.w3.org/2000/svg" xmlns:xlink="http://www.w3.org/1999/xlink" version="1.1" width="200" height="200" viewBox="0 0 200 200" xml:space="preserve">
<defs>
</defs>
<rect x="0" y="0" width="100%" height="100%" fill="transparent"></rect>
<g transform="matrix(1 0 0 1 100 100)" id="83eb3c06-e75b-4ba8-8ae0-6ecee4a0a0b2">
<rect style="stroke: none; stroke-width: 1; stroke-dasharray: none; stroke-linecap: butt; stroke-dashoffset: 0; stroke-linejoin: miter; stroke-miterlimit: 4; fill: rgb(255,255,255); fill-rule: nonzero; opacity: 1; visibility: hidden;" vector-effect="non-scaling-stroke"  x="-100" y="-100" rx="0" ry="0" width="200" height="200" />
</g>
<g transform="matrix(Infinity NaN NaN Infinity 0 0)" id="dde875c5-c3d7-4902-975f-2f9bad8740df">
</g>
<g transform="matrix(0.63 0 0 0.63 100 100)">
<g style="" vector-effect="non-scaling-stroke" >
<g transform="matrix(1 0 0 1 0 0)">
<rect style="stroke: none; stroke-width: 1; stroke-dasharray: none; stroke-linecap: butt; stroke-dashoffset: 0; stroke-linejoin: miter; stroke-miterlimit: 4; fill: rgb(27,20,100); fill-rule: nonzero; opacity: 1;" vector-effect="non-scaling-stroke"  x="-250" y="-250" rx="0" ry="0" width="500" height="500" />
</g>
<g transform="matrix(1 0 0 1 0 0.18)">
<linearGradient id="SVGID_linear-gradient_3" gradientUnits="userSpaceOnUse" gradientTransform="matrix(1 0 0 1 0 0)"  x1="175" y1="250" x2="325" y2="250">
<stop offset="0%" style="stop-color:rgb(255,0,255);stop-opacity: 1"/>
<stop offset="100%" style="stop-color:rgb(0,0,255);stop-opacity: 1"/>
</linearGradient>
<path style="stroke: none; stroke-width: 1; stroke-dasharray: none; stroke-linecap: butt; stroke-dashoffset: 0; stroke-linejoin: miter; stroke-miterlimit: 4; fill: url(#SVGID_linear-gradient_3); fill-rule: nonzero; opacity: 1;" vector-effect="non-scaling-stroke"  transform=" translate(-250, -250.18)" d="M 188.66 297.69 C 185.0380626090283 297.68734656530177 181.56356211596963 299.12429596327104 179.00152732293847 301.6844551817831 C 176.4394925299073 304.24461440029523 174.99999902804578 307.71806163707413 175 311.34 L 175 311.34 C 174.86558420938763 316.3065680538503 177.43841429565256 320.95448731944555 181.7185832795378 323.47738630824387 C 185.99875226342303 326.0002852970422 191.31124773657697 326.0002852970422 195.5914167204622 323.47738630824387 C 199.87158570434744 320.95448731944555 202.44441579061237 316.3065680538503 202.31 311.34 L 202.31 311.34 C 202.30999999999997 303.80131316480964 196.1986868351903 297.69 188.66 297.69 Z M 270.38 236.34 L 175 236.34 L 175 263.66 L 270.38 263.66 Z M 188.66 202.34 C 196.20160441229743 202.33999191662778 202.31630849754845 196.22826042470857 202.319983736653 188.6866569079313 C 202.32365897575752 181.14505339115408 196.2149146365801 175.02736506319306 188.67331381425902 175.02000650248846 C 181.13171299193795 175.01264794178383 175.01104188054944 181.11840367107047 175 188.66 C 174.99999902804578 192.2819383629258 176.4394925299073 195.75538559970477 179.00152732293847 198.3155448182169 C 181.56356211596963 200.875704036729 185.03806260902826 202.31265343469823 188.66 202.31 Z M 309.65999999999997 175.03 L 229.65999999999997 175.03 L 229.65999999999997 202.34 L 325 202.34 L 325 190.34 C 325 181.86795193759565 318.1320480624044 175.00000000000003 309.66 175 Z M 229.65999999999997 325.03 L 309.65999999999997 325.03 C 313.7336241240884 325.03000779010233 317.63996644087825 323.4097163707201 320.5176384181544 320.52641661252363 C 323.3953103954305 317.6431168543272 325.00796667039356 313.73361633399355 325 309.66 L 325 297.66 L 229.62 297.66 Z M 311.38 236.36999999999998 C 305.8487069817187 236.35381616694565 300.8536160844738 239.674936531664 298.7284620682323 244.7817148485476 C 296.6033080519909 249.8884931654312 297.7676142525571 255.7728083014525 301.67741021826106 259.68547489561877 C 305.587206183965 263.59814148978506 311.4706651985733 264.7667661395809 316.5790018858666 262.645360789396 C 321.6873385731599 260.52395543921114 325.01212416464153 255.53130340653732 325 250 C 325 246.3771427487918 323.5608255606084 242.90266829859192 320.9990786310082 240.34092136899176 C 318.4373317014081 237.7791744393916 314.96285725120816 236.34 311.34 236.34 Z" stroke-linecap="round" />
</g>
</g>
</g>
</svg>
