<?xml version="1.0" encoding="utf-8"?>
<svg version="1.1" id="Layer_1" xmlns="http://www.w3.org/2000/svg" xmlns:xlink="http://www.w3.org/1999/xlink" x="0px" y="0px"
	 viewBox="0 0 216 216" style="enable-background:new 0 0 216 216;" xml:space="preserve">
<style type="text/css">
	.st0{fill:#002248;}
	.st1{opacity:0.5;fill:#FFFFFF;}
	.st2{fill:#FFFFFF;}
	.st3{opacity:0.75;fill:#FFFFFF;}
</style>
<rect class="st0" width="216" height="216"/>
<g>
	<g>
		<path class="st1" d="M108,39.5V108l59.3,34.2V73.8L108,39.5z M126.9,95.4c0,2,1.1,3.8,2.8,4.8l27.9,16l0,10.8L125,108.2
			c-4.6-2.6-7.4-7.5-7.4-12.8l-0.1-22.7c0-1.9,0.5-3.7,1.4-5.3c0.9-1.5,2.2-2.9,3.8-3.8c3.3-1.9,7.2-1.9,10.5,0l24.5,14.2l-0.2,10.7
			l-29-16.8c-0.5-0.3-0.9-0.2-1.2,0c-0.3,0.2-0.6,0.5-0.6,1L126.9,95.4z"/>
		<path class="st2" d="M108,39.5L48.7,73.8v68.5L108,108V39.5z M99.7,93.1c0,5.3-2.8,10.2-7.4,12.8l-19.6,11.4
			c-1.7,1-3.5,1.4-5.3,1.5c-1.8,0-3.6-0.5-5.2-1.4c-3.3-1.9-5.3-5.3-5.3-9.1V80l9.4-5.2l-0.1,33.5c0,0.6,0.3,0.9,0.6,1
			c0.3,0.2,0.7,0.3,1.2,0l19.6-11.4c1.7-1,2.8-2.8,2.8-4.8L90.3,61l9.4-5.4L99.7,93.1z"/>
		<path class="st3" d="M108,108l-59.3,34.2l59.3,34.2l59.3-34.2L108,108z M133.8,152l-24.5,14.2l-9.2-5.5l29.1-16.7
			c0.5-0.3,0.6-0.7,0.6-1c0-0.3-0.1-0.7-0.6-1l-19.7-11.2c-1.7-1-3.8-1-5.5,0l-27.8,16.1l-9.4-5.4l32.6-18.7
			c4.6-2.6,10.2-2.6,14.8,0l19.7,11.2c1.7,0.9,3,2.3,3.9,3.9c0.9,1.5,1.4,3.3,1.4,5.2C139.1,146.7,137.1,150.1,133.8,152z"/>
	</g>
</g>
</svg>
