<?xml version="1.0" standalone="no"?>
<!DOCTYPE svg PUBLIC "-//W3C//DTD SVG 20010904//EN"
 "http://www.w3.org/TR/2001/REC-SVG-20010904/DTD/svg10.dtd">
<svg version="1.0" xmlns="http://www.w3.org/2000/svg"
 width="501.000000pt" height="501.000000pt" viewBox="0 0 501.000000 501.000000"
 preserveAspectRatio="xMidYMid meet">
<metadata>
Created by potrace 1.14, written by Peter Selinger 2001-2017
</metadata>
<g transform="translate(0.000000,501.000000) scale(0.100000,-0.100000)"
fill="#000000" stroke="none">
<path d="M555 4997 c-132 -14 -247 -66 -345 -155 -109 -98 -171 -208 -199
-352 -8 -39 -10 -634 -9 -2020 l3 -1965 27 -73 c77 -210 218 -343 433 -408 57
-17 160 -18 2025 -18 1595 0 1975 2 2020 13 30 7 93 31 139 53 164 78 299 252
333 430 19 96 17 3913 -2 4003 -51 247 -237 433 -485 485 -47 10 -461 13
-1965 14 -1048 1 -1936 -2 -1975 -7z"/>
</g>
</svg>
